<?xml version="1.0" standalone="no"?>
<!DOCTYPE svg PUBLIC "-//W3C//DTD SVG 1.1//EN" "http://www.w3.org/Graphics/SVG/1.1/DTD/svg11.dtd" >
<svg xmlns="http://www.w3.org/2000/svg">
<metadata>
This is a custom SVG webfont generated by Fontspring.
</metadata>
<defs>
<font id="webfontWOBhH0cQ" horiz-adv-x="551" >
<font-face units-per-em="1000" ascent="750" descent="-250" />
<missing-glyph horiz-adv-x="218" />
<glyph unicode=" "  horiz-adv-x="218" />
<glyph unicode="&#x09;" horiz-adv-x="218" />
<glyph unicode="&#xa0;" horiz-adv-x="218" />
<glyph unicode="!" horiz-adv-x="343" d="M116 700h113v-258q0 -38 -8 -116t-8 -117h-81q0 39 -8 117t-8 116v258zM100 60q0 29 21 50t51 21q29 0 50 -21t21 -50q0 -30 -21 -51t-50 -21q-30 0 -51 21t-21 51z" />
<glyph unicode="&#x22;" horiz-adv-x="344" d="M206 514v209h84l-1 -209h-83zM54 514v209h84v-209h-84z" />
<glyph unicode="#" horiz-adv-x="724" d="M372 0l38 152h-182l-38 -152h-97l38 152h-121v85h143l48 191h-146v86h167l39 150h96l-38 -150h182l39 150h96l-38 -150h113v-86h-134l-48 -191h137v-85h-159l-38 -152h-97zM298 428l-48 -191h182l48 191h-182z" />
<glyph unicode="$" horiz-adv-x="567" d="M225 -156v143q-113 11 -198 62l47 101q1 -1 12 -7l22 -11q11 -5 30.5 -12.5t39.5 -12.5t48.5 -8.5t57.5 -3.5q63 0 99 20.5t36 59.5q0 40 -34.5 63t-111.5 42q-36 9 -62 18t-59 26t-54 38t-36 53.5t-15 73.5q0 151 178 173v144h115v-143q105 -8 194 -61l-48 -101 q-82 53 -198 53q-52 0 -86 -15.5t-34 -49.5q0 -15 7.5 -27.5t15.5 -20.5t26 -15.5t27 -10.5t30.5 -8.5t24.5 -6.5q126 -37 183.5 -87.5t57.5 -137.5q0 -167 -200 -188v-143h-115z" />
<glyph unicode="%" horiz-adv-x="1122" d="M439 443q0 -106 -50.5 -164t-137.5 -58q-86 0 -137 58.5t-51 163.5t51 163.5t137 58.5q87 0 137.5 -58.5t50.5 -163.5zM324 443q0 60 -17.5 86t-55.5 26t-55.5 -26t-17.5 -86q0 -63 17 -87.5t56 -24.5t56 24.5t17 87.5zM1059 207q0 -106 -50.5 -164t-137.5 -58 q-86 0 -137 58.5t-51 163.5t51 163.5t137 58.5q87 0 137.5 -58.5t50.5 -163.5zM944 207q0 60 -18 86t-55 26q-38 0 -55.5 -26t-17.5 -86q0 -62 17 -87t56 -25q38 0 55.5 25t17.5 87zM666 650h128l-339 -650h-127z" />
<glyph unicode="&#x26;" horiz-adv-x="639" d="M630 295h-98v-71q0 -127 -68 -183t-175 -56q-60 0 -113.5 20.5t-92 67.5t-38.5 113q0 114 102 161q-80 45 -80 144q0 74 66 124t156 50q94 0 170 -46l-80 -91q-39 26 -90 26q-45 0 -73.5 -22t-28.5 -54q0 -86 103 -86h122v100h120v-100h98v-97zM166 194q0 -51 37 -75 t86 -24q123 0 123 129v71h-122q-55 0 -89.5 -26t-34.5 -75z" />
<glyph unicode="'" horiz-adv-x="194" d="M54 514v209h86l-1 -209h-85z" />
<glyph unicode="(" horiz-adv-x="386" d="M65 250q0 155 51.5 277.5t163.5 222.5l70 -64q-90 -70 -141 -180t-51 -256q0 -287 192 -436l-70 -64q-112 100 -163.5 222.5t-51.5 277.5z" />
<glyph unicode=")" horiz-adv-x="386" d="M321 250q0 -155 -51.5 -277.5t-163.5 -222.5l-70 64q192 149 192 436q0 146 -51 256.5t-141 179.5l70 64q112 -100 163.5 -222.5t51.5 -277.5z" />
<glyph unicode="*" horiz-adv-x="490" d="M298 747l-6 -142l131 52l27 -88l-134 -38l87 -108l-74 -54l-78 116l-76 -115l-75 54l88 108l-135 38l29 88l131 -51l-7 140h92z" />
<glyph unicode="+" horiz-adv-x="656" d="M600 381v-110h-213v-202h-118v202h-213v110h213v202h118v-202h213z" />
<glyph unicode="," horiz-adv-x="257" d="M47 60q0 29 21 50t51 21q38 0 56.5 -29t18.5 -73q-1 -50 -26.5 -107t-83.5 -87l-36 33q58 52 62 121q-27 3 -45 23t-18 48z" />
<glyph unicode="-" horiz-adv-x="360" d="M328 305v-110h-296v110h296z" />
<glyph unicode="." horiz-adv-x="262" d="M60 60q0 29 21 50t50 21q30 0 51 -21t21 -50q0 -30 -21 -51t-51 -21q-29 0 -50 21t-21 51z" />
<glyph unicode="/" horiz-adv-x="345" d="M250 750h95l-253 -780h-92z" />
<glyph unicode="0" horiz-adv-x="582" d="M417 305v40q0 113 -32.5 160.5t-93.5 47.5t-93.5 -47.5t-32.5 -160.5v-40q0 -113 32.5 -160.5t93.5 -47.5t93.5 47.5t32.5 160.5zM45 305v40q0 165 66 242.5t180 77.5q115 0 181 -77.5t66 -242.5v-40q0 -165 -66 -242.5t-181 -77.5q-114 0 -180 77.5t-66 242.5z" />
<glyph unicode="1" horiz-adv-x="325" d="M9 538v112h253v-650h-119v538h-134z" />
<glyph unicode="2" horiz-adv-x="504" d="M469 442q0 -97 -93 -191q-41 -42 -164 -140h257v-111h-443v111l96 75l82 65q27 21 61 51t48.5 49t25 43t10.5 48q0 49 -29.5 80t-95.5 31q-42 0 -89 -17t-77 -40l-41 102q83 67 207 67q102 0 173.5 -58.5t71.5 -164.5z" />
<glyph unicode="3" horiz-adv-x="511" d="M183 289v103h38q120 0 120 81q0 40 -25 60t-84 20q-81 0 -151 -55l-44 103q91 64 195 64q107 0 168 -51.5t61 -140.5q0 -44 -22.5 -79.5t-59.5 -56.5q41 -22 66.5 -60t25.5 -84q0 -99 -63.5 -153.5t-175.5 -54.5q-117 0 -205 70l44 102q29 -26 73 -43t88 -17 q65 0 92 22.5t27 73.5q0 42 -31.5 69t-98.5 27h-38z" />
<glyph unicode="4" horiz-adv-x="549" d="M39 244l183 406h126l-183 -406h216v246h120v-490h-120v132h-342v112z" />
<glyph unicode="5" horiz-adv-x="519" d="M60 300v350h404v-112h-284v-127h44q124 0 192 -58t68 -156q0 -103 -69 -157.5t-176 -54.5q-68 0 -114 14t-95 53l41 102q72 -57 164 -57q130 0 130 97q0 63 -42 84.5t-140 21.5h-123z" />
<glyph unicode="6" horiz-adv-x="546" d="M292 405q98 0 158.5 -50t60.5 -153q0 -108 -59 -162.5t-151 -54.5q-75 0 -126.5 24.5t-79 71.5t-39 102.5t-11.5 129.5q0 178 62.5 265t200.5 87q126 0 203 -67l-41 -102q-68 57 -166 57q-135 0 -135 -170q53 22 123 22zM289 303q-67 0 -120 -26q0 -92 27 -136t101 -44 q40 0 67 25.5t27 79.5q0 55 -29.5 78t-72.5 23z" />
<glyph unicode="7" horiz-adv-x="495" d="M207 0h-128l264 538h-319v112h447v-112z" />
<glyph unicode="8" horiz-adv-x="562" d="M281 665q94 0 158.5 -52t64.5 -124q0 -95 -78 -141q48 -22 74 -64t26 -96q0 -85 -65.5 -144t-179.5 -59t-179.5 59t-65.5 144q0 54 26 96t74 64q-78 46 -78 141q0 72 64.5 124t158.5 52zM157 197q0 -47 32.5 -74t91.5 -27t91.5 27t32.5 74q0 45 -33 72t-91 27t-91 -27 t-33 -72zM178 472q0 -38 27 -59t76 -21t76 21t27 59q0 35 -26.5 58.5t-76.5 23.5t-76.5 -23.5t-26.5 -58.5z" />
<glyph unicode="9" horiz-adv-x="546" d="M254 245q-98 0 -158.5 50t-60.5 153q0 108 59 162.5t151 54.5q60 0 105 -17t73.5 -45.5t46 -71.5t24.5 -89.5t7 -104.5q0 -178 -62.5 -265t-201.5 -87q-125 0 -202 67l41 102q68 -57 166 -57q135 0 135 170q-53 -22 -123 -22zM257 347q67 0 120 26q0 92 -27 136t-102 44 q-39 0 -66 -25.5t-27 -79.5q0 -101 102 -101z" />
<glyph unicode=":" horiz-adv-x="262" d="M60 60q0 29 21 50t50 21q30 0 51 -21t21 -50q0 -30 -21 -51t-51 -21q-29 0 -50 21t-21 51zM60 440q0 30 21 51t50 21q30 0 51 -21.5t21 -50.5t-21 -50t-51 -21q-29 0 -50 21t-21 50z" />
<glyph unicode=";" horiz-adv-x="262" d="M59 440q0 30 21 51t51 21q29 0 50 -21.5t21 -50.5t-21 -50t-50 -21q-30 0 -51 21t-21 50zM59 60q0 29 21 50t51 21q38 0 56.5 -29t18.5 -73q-1 -30 -9 -62t-34.5 -71.5t-67.5 -60.5l-35 33q58 54 62 121q-27 3 -45 23t-18 48z" />
<glyph unicode="&#x3c;" horiz-adv-x="573" d="M525 129v-102l-477 261v71l477 260v-101l-358 -195z" />
<glyph unicode="=" horiz-adv-x="587" d="M531 249v-84h-475v84h475zM531 486v-84h-475v84h475z" />
<glyph unicode="&#x3e;" horiz-adv-x="573" d="M48 27v102l358 194l-358 195v101l477 -260v-71z" />
<glyph unicode="?" horiz-adv-x="552" d="M102 60q0 29 21 50t50 21q30 0 51 -21t21 -50q0 -30 -21 -51t-51 -21q-29 0 -50 21t-21 51zM475 465q0 -42 -15.5 -76t-43 -57t-51.5 -37.5t-54 -29.5q-8 -3 -11 -5q-67 -30 -67 -75h-120q0 54 33 94.5t84 66.5q11 6 34 17.5t35.5 18.5t27.5 19.5t21.5 28t6.5 35.5 q0 89 -125 89q-84 0 -136 -30l-44 103q78 38 180 38q109 0 177 -52.5t68 -147.5z" />
<glyph unicode="@" horiz-adv-x="1164" d="M991 311q0 98 -31 168.5t-88.5 110.5t-131 58t-168.5 18q-190 0 -294.5 -99.5t-104.5 -305.5q0 -421 408 -427h12q166 0 337 54l20 -85q-178 -53 -356 -53h-13q-85 1 -158 18.5t-137 56t-109 96.5t-71 144.5t-26 195.5q1 232 127 360.5t365 128.5q112 0 201.5 -23 t161 -73t110.5 -137t39 -206q0 -66 -10.5 -121t-34 -102.5t-66.5 -74.5t-103 -27q-111 0 -141 88q-14 -35 -58 -61.5t-107 -26.5q-57 0 -99.5 20t-64.5 47.5t-35.5 67t-16.5 68.5t-3 62q0 34 6.5 67t24 69.5t44.5 63.5t72 44.5t103 17.5q111 0 201 -54v-284q0 -57 17 -81 t57 -24q37 0 62 20t37 56t17 75.5t5 89.5zM703 249v151q-47 29 -108 29q-45 0 -77 -15.5t-48.5 -42t-24 -56t-7.5 -64.5v-27q0 -8 2 -31.5t6.5 -36t13.5 -31.5t22 -29t34 -18t48 -8q71 0 105 41.5t34 137.5z" />
<glyph unicode="A" horiz-adv-x="594" d="M0 0l236 650h122l236 -650h-122l-65 180h-219l-66 -180h-122zM297 481l-69 -190h138z" />
<glyph unicode="B" horiz-adv-x="631" d="M63 650h255q123 0 181 -49t58 -132q0 -89 -80 -132q100 -46 100 -149q0 -87 -60 -137.5t-187 -50.5h-267v650zM330 281h-147v-170h147q127 0 127 85t-127 85zM318 538h-135v-154h135q62 0 90.5 21.5t28.5 55.5q0 77 -119 77z" />
<glyph unicode="C" horiz-adv-x="569" d="M165 349v-48q0 -204 176 -204q49 0 96 17.5t69 38.5l45 -103q-95 -65 -210 -65q-137 0 -216.5 77.5t-79.5 238.5v48q0 161 79.5 238.5t216.5 77.5q114 0 210 -64l-45 -103q-77 55 -165 55q-176 0 -176 -204z" />
<glyph unicode="D" horiz-adv-x="602" d="M63 0v650h202q292 0 292 -300v-51q0 -299 -292 -299h-202zM437 299v51q0 103 -42 145.5t-130 42.5h-82v-427h82q88 0 130 42.5t42 145.5z" />
<glyph unicode="E" horiz-adv-x="561" d="M183 287v-176h351v-111h-471v650h471v-112h-351v-140h311v-111h-311z" />
<glyph unicode="F" horiz-adv-x="552" d="M183 287v-287h-120v650h471v-112h-351v-140h311v-111h-311z" />
<glyph unicode="G" horiz-adv-x="596" d="M280 262v103h271v-315q-95 -65 -210 -65q-137 0 -216.5 77.5t-79.5 238.5v48q0 161 79.5 238.5t216.5 77.5q114 0 210 -64l-45 -103q-77 55 -165 55q-176 0 -176 -204v-48q0 -204 176 -204q44 0 90 16v149h-151z" />
<glyph unicode="H" horiz-adv-x="620" d="M183 287v-287h-120v650h120v-252h254v252h120v-650h-120v287h-254z" />
<glyph unicode="I" horiz-adv-x="246" d="M63 0v650h120v-650h-120z" />
<glyph unicode="J" horiz-adv-x="460" d="M397 650v-439q0 -119 -54 -172.5t-147 -53.5q-101 0 -178 50l42 103q60 -41 128 -41q45 0 67 23t22 91v327h-239v112h359z" />
<glyph unicode="K" horiz-adv-x="588" d="M63 0v650h120v-650h-120zM196 340l230 310h142l-230 -310l250 -340h-142z" />
<glyph unicode="L" horiz-adv-x="486" d="M63 0v650h120v-539h294v-111h-414z" />
<glyph unicode="M" horiz-adv-x="726" d="M63 0v650h128l172 -293l172 293h128v-650h-120v439l-180 -316l-180 316v-439h-120z" />
<glyph unicode="N" horiz-adv-x="620" d="M63 0v650h131l243 -434v434h120v-650h-132l-242 433v-433h-120z" />
<glyph unicode="O" horiz-adv-x="625" d="M459 301v48q0 110 -38 157t-109 47q-70 0 -108 -47t-38 -157v-48q0 -110 38 -157t108 -47q71 0 109 47t38 157zM45 301v48q0 162 72 239t195 77q124 0 196 -77t72 -239v-48q0 -162 -72 -239t-196 -77q-123 0 -195 77t-72 239z" />
<glyph unicode="P" horiz-adv-x="584" d="M63 650h247q127 0 187 -54.5t60 -150.5t-60 -149.5t-187 -53.5h-127v-242h-120v650zM310 538h-127v-185h127q69 0 98 23t29 69q0 47 -29 70t-98 23z" />
<glyph unicode="Q" horiz-adv-x="625" d="M459 301v48q0 110 -38 157t-109 47q-70 0 -108 -47t-38 -157v-48q0 -110 38 -157t108 -47q71 0 109 47t38 157zM45 301v48q0 162 72 239t195 77q124 0 196 -77t72 -239v-48q0 -162 -72 -239t-196 -77q-123 0 -195 77t-72 239zM120 -152v111q31 27 73 28h5q40 0 80 -13 l84 -30q39 -13 79 -13h5q42 1 73 28v-111q-31 -28 -73 -28q-1 -1 -3 -1l-81 15l-84 28q-42 15 -82 15q-2 0 -3 -1q-42 0 -73 -28z" />
<glyph unicode="R" horiz-adv-x="608" d="M470 0l-171 262h-116v-262h-120v650h247q127 0 187 -52.5t60 -142.5q0 -134 -134 -176l185 -279h-138zM310 538h-127v-165h127q127 0 127 82q0 83 -127 83z" />
<glyph unicode="S" horiz-adv-x="567" d="M27 50l47 101q1 0 12.5 -6.5t22 -11.5t30.5 -12t39.5 -12t48 -8.5t57.5 -3.5q63 0 99 19.5t36 54.5q0 40 -34.5 61.5t-111.5 38.5q-35 9 -61.5 18.5t-59.5 27t-54 38.5t-36 54.5t-15 74.5q0 181 243 181q138 0 244 -64l-48 -102q-80 54 -196 54q-122 0 -122 -69 q0 -18 8 -32t26.5 -24.5t29 -15t37.5 -12.5t30 -9q127 -35 184 -84t57 -136q0 -57 -24 -96t-65.5 -57.5t-81 -25.5t-85.5 -7q-145 0 -257 65z" />
<glyph unicode="T" horiz-adv-x="565" d="M9 538v112h547v-112h-213v-538h-121v538h-213z" />
<glyph unicode="U" horiz-adv-x="622" d="M54 301v349h120v-349q0 -110 35.5 -157t101.5 -47t101.5 47t35.5 157v349h120v-349q0 -162 -69.5 -239t-187.5 -77t-187.5 77t-69.5 239z" />
<glyph unicode="V" horiz-adv-x="594" d="M594 650l-236 -650h-122l-236 650h122l175 -482l175 482h122z" />
<glyph unicode="W" horiz-adv-x="922" d="M521 650l136 -452l136 452h120l-196 -650h-120l-136 452l-136 -452h-120l-196 650h120l136 -452l136 452h120z" />
<glyph unicode="X" horiz-adv-x="590" d="M157 650l138 -207l138 207h137l-207 -310l227 -340h-137l-158 236l-158 -236h-137l226 340l-206 310h137z" />
<glyph unicode="Y" horiz-adv-x="618" d="M618 650l-248 -398v-252h-121v250l-249 400h136l173 -282l173 282h136z" />
<glyph unicode="Z" d="M38 538v112h475v-112l-346 -427h366v-111h-515v111l345 427h-325z" />
<glyph unicode="[" horiz-adv-x="386" d="M323 -166v-84h-230v1000h230v-84h-137v-832h137z" />
<glyph unicode="\" horiz-adv-x="345" d="M0 750h95l250 -780h-92z" />
<glyph unicode="]" horiz-adv-x="386" d="M63 -250v84h137v832h-137v84h230v-1000h-230z" />
<glyph unicode="^" horiz-adv-x="592" d="M340 710l198 -407h-105l-138 314l-138 -315h-103l197 408h89z" />
<glyph unicode="_" horiz-adv-x="536" d="M527 -10v-92h-518v92h518z" />
<glyph unicode="`" horiz-adv-x="329" d="M173 750l-101 136h108l77 -136h-84z" />
<glyph unicode="a" horiz-adv-x="515" d="M461 328v-328h-101l-13 56q-41 -66 -128 -66t-139.5 41.5t-52.5 124.5v6q0 74 68 115.5t179 46.5l71 3v18q0 60 -109 60q-83 0 -151 -33l-39 93q88 50 198 50q217 0 217 -187zM345 184v56l-71 -2q-131 -3 -131 -76v-6q0 -36 28 -53t73 -17q44 0 72.5 23.5t28.5 74.5z" />
<glyph unicode="b" horiz-adv-x="543" d="M63 0v700h116v-253q37 68 127 68q83 0 137.5 -65.5t54.5 -191.5v-16q0 -123 -54.5 -187.5t-137.5 -64.5q-87 0 -128 68l-14 -58h-101zM381 242v16q0 83 -25.5 115t-75.5 32q-101 0 -101 -136v-27q0 -80 26 -113.5t75 -33.5q50 0 75.5 32t25.5 115z" />
<glyph unicode="c" horiz-adv-x="478" d="M45 247v11q0 133 63.5 195t173.5 62q101 0 178 -50l-42 -101q-64 41 -136 41q-120 0 -120 -147v-11q0 -147 120 -147q73 0 136 42l42 -102q-77 -50 -178 -50q-110 0 -173.5 62t-63.5 195z" />
<glyph unicode="d" horiz-adv-x="543" d="M480 700v-700h-102l-13 58q-41 -68 -128 -68q-83 0 -137.5 64.5t-54.5 187.5v16q0 126 54.5 191.5t137.5 65.5q90 0 127 -68v253h116zM162 258v-16q0 -83 25 -115t75 -32t76 34t26 113v25q0 138 -102 138q-50 0 -75 -32t-25 -115z" />
<glyph unicode="e" horiz-adv-x="516" d="M480 258v-51h-316v-5q0 -46 33.5 -74t89.5 -28q91 0 156 42l36 -102q-81 -50 -192 -50q-114 0 -178 62t-64 190v16q0 131 57.5 194t159.5 63t160 -63t58 -194zM164 298v-5h196v5q0 52 -27 79.5t-71 27.5t-71 -27.5t-27 -79.5z" />
<glyph unicode="f" horiz-adv-x="373" d="M48 0v527q0 188 185 188q97 0 167 -50l-42 -101q-55 41 -125 41t-70 -77v-28h185v-110h-185v-390h-115z" />
<glyph unicode="g" horiz-adv-x="543" d="M480 500v-530q0 -105 -62.5 -162.5t-162.5 -57.5q-115 0 -199 49l36 101q69 -41 163 -41q50 0 79.5 28t29.5 83v88q-39 -68 -127 -68q-83 0 -137.5 65.5t-54.5 191.5v11q0 123 52 188.5t132 67.5q31 0 50 -5q58 -14 86 -67q9 43 13 58h102zM162 258v-11q0 -87 25 -119.5 t75 -32.5q102 0 102 143v21q0 79 -26 112.5t-76 33.5t-75 -32t-25 -115z" />
<glyph unicode="h" d="M63 0v700h116l-1 -258q37 73 119 73q91 0 145.5 -64.5t54.5 -192.5v-258h-115v266q0 75 -26 107t-76 32q-101 0 -101 -136v-269h-116z" />
<glyph unicode="i" horiz-adv-x="247" d="M66 0v500h115v-500h-115zM53 637q0 29 20.5 49.5t49.5 20.5t50 -20.5t21 -49.5t-21 -50t-50 -21t-49.5 21t-20.5 50z" />
<glyph unicode="j" horiz-adv-x="229" d="M162 500v-563q0 -97 -50 -142t-135 -45q-86 0 -150 50l36 101q42 -42 114 -42q69 0 69 78v563h116zM35 633q0 29 19 50.5t47 23.5h2q28 0 48.5 -19.5t21.5 -47.5v-1q0 -29 -19.5 -49.5t-46.5 -22.5h-2q-29 0 -49 19t-21 47z" />
<glyph unicode="k" horiz-adv-x="548" d="M192 263l192 237h144l-192 -237l212 -263h-144zM63 0v700h116v-700h-116z" />
<glyph unicode="l" horiz-adv-x="338" d="M63 174v526h116v-527q0 -73 63 -73q36 0 63 20l36 -101q-46 -29 -116 -29q-162 0 -162 184z" />
<glyph unicode="m" horiz-adv-x="823" d="M63 0v500h101l14 -57q39 72 125 72q96 0 143 -91q49 91 143 91q82 0 131 -64.5t49 -192.5v-258h-115v266q0 139 -90 139t-90 -138v-267h-115v266q0 75 -23 107t-67 32q-90 0 -90 -136v-269h-116z" />
<glyph unicode="n" d="M63 0v500h101l14 -58q37 73 119 73q91 0 145.5 -64.5t54.5 -192.5v-258h-115v266q0 75 -26 107t-76 32q-101 0 -101 -136v-269h-116z" />
<glyph unicode="o" horiz-adv-x="525" d="M363 247v11q0 81 -25.5 114t-75.5 33t-75 -33t-25 -114v-11q0 -81 25 -114t75 -33t75.5 33t25.5 114zM45 247v11q0 130 59.5 193.5t157.5 63.5t158 -63.5t60 -193.5v-11q0 -130 -60 -193.5t-158 -63.5t-157.5 63.5t-59.5 193.5z" />
<glyph unicode="p" horiz-adv-x="543" d="M63 -250v750h101l14 -58q40 73 128 73q83 0 137.5 -65.5t54.5 -191.5v-16q0 -123 -54.5 -187.5t-137.5 -64.5q-89 0 -127 63v-303h-116zM381 242v16q0 83 -25.5 115t-75.5 32q-49 0 -75 -33.5t-26 -112.5v-26q0 -138 101 -138q50 0 75.5 32t25.5 115z" />
<glyph unicode="q" horiz-adv-x="543" d="M480 500v-750h-116v304q-40 -64 -127 -64q-83 0 -137.5 64.5t-54.5 187.5v16q0 126 54.5 191.5t137.5 65.5q88 0 128 -73l13 58h102zM162 258v-16q0 -83 25 -115t75 -32q102 0 102 138v25q0 79 -26 113t-76 34t-75 -32t-25 -115z" />
<glyph unicode="r" horiz-adv-x="361" d="M48 0v500h100l13 -54q31 69 98 69q65 0 102 -29l-42 -101q-28 20 -69 20q-87 0 -87 -147v-258h-115z" />
<glyph unicode="s" horiz-adv-x="508" d="M45 40l36 102q72 -42 165 -42q101 0 101 42q0 43 -103 60q-31 5 -50.5 10t-48.5 17t-46 27.5t-30 42t-13 61.5q0 44 17.5 76t48.5 48.5t65.5 23.5t75.5 7q107 0 191 -50l-35 -101q-59 41 -156 41q-91 0 -91 -42q0 -11 5.5 -18.5t18 -12.5t21 -7t26.5 -4.5t21 -3.5 q199 -34 199 -179q0 -44 -20 -74.5t-54 -46t-68.5 -21.5t-74.5 -6q-115 0 -201 50z" />
<glyph unicode="t" horiz-adv-x="425" d="M63 178v472h116v-150h193v-110h-193v-213q0 -73 63 -76q6 -1 13 -1q19 0 37 5q54 9 88 37l36 -102q-70 -50 -167 -50q-86 0 -136 45t-50 143z" />
<glyph unicode="u" d="M488 500v-500h-102l-13 58q-38 -68 -120 -68q-90 0 -144.5 64.5t-54.5 192.5v253h115v-261q0 -139 101 -139q102 0 102 136v264h116z" />
<glyph unicode="v" horiz-adv-x="520" d="M122 500l138 -359l138 359h122l-200 -500h-121l-199 500h122z" />
<glyph unicode="w" horiz-adv-x="812" d="M129 500l108 -349l109 349h120l108 -349l109 349h120l-168 -500h-121l-109 321l-107 -321h-121l-168 500h120z" />
<glyph unicode="x" horiz-adv-x="540" d="M162 500l108 -150l108 150h142l-179 -237l199 -263h-142l-128 175l-128 -175h-142l199 263l-179 237h142z" />
<glyph unicode="y" d="M488 500v-527q0 -108 -62 -165.5t-163 -57.5q-115 0 -199 49l36 101q69 -41 163 -41q50 0 79.5 28t29.5 86v89q-37 -72 -119 -72q-90 0 -144.5 64.5t-54.5 192.5v253h115v-261q0 -144 101 -144q47 0 74.5 35t27.5 108v262h116z" />
<glyph unicode="z" horiz-adv-x="488" d="M27 390v110h434v-110l-273 -281h273v-109h-434v109l273 281h-273z" />
<glyph unicode="{" horiz-adv-x="510" d="M63 217v84h55q55 0 83.5 39.5t28.5 112.5v100q0 94 47 145.5t127 51.5h70v-84h-68q-44 0 -64 -32.5t-20 -102.5v-97q0 -132 -83 -175q83 -41 83 -175v-115q0 -70 20 -102.5t64 -32.5h68v-84h-70q-78 0 -126 51.5t-48 145.5v118q0 73 -28.5 112.5t-83.5 39.5h-55z" />
<glyph unicode="|" horiz-adv-x="277" d="M185 750v-1000h-93v1000h93z" />
<glyph unicode="}" horiz-adv-x="510" d="M447 301v-84h-55q-55 0 -83.5 -39.5t-28.5 -112.5v-118q0 -94 -48 -145.5t-126 -51.5h-70v84h68q44 0 64 32.5t20 102.5v115q0 134 83 175q-83 43 -83 175v97q0 70 -20 102.5t-64 32.5h-68v84h70q80 0 127 -51.5t47 -145.5v-100q0 -73 28.5 -112.5t83.5 -39.5h55z" />
<glyph unicode="~" horiz-adv-x="597" d="M54 199q0 182 148 182q34 0 62 -16t43 -34.5t37 -34.5t45 -16q33 0 49 27t16 70h89q0 -182 -147 -182q-34 0 -62 15.5t-43 34.5t-36.5 34.5t-45.5 15.5q-33 0 -49 -27t-16 -69h-90z" />
<glyph unicode="&#xaa;" horiz-adv-x="515" d="M461 328v-328h-101l-13 56q-41 -66 -128 -66t-139.5 41.5t-52.5 124.5v6q0 74 68 115.5t179 46.5l71 3v18q0 60 -109 60q-83 0 -151 -33l-39 93q88 50 198 50q217 0 217 -187zM345 184v56l-71 -2q-131 -3 -131 -76v-6q0 -36 28 -53t73 -17q44 0 72.5 23.5t28.5 74.5z" />
<glyph unicode="&#xad;" horiz-adv-x="360" d="M328 305v-110h-296v110h296z" />
<glyph unicode="&#xb2;" horiz-adv-x="504" d="M469 442q0 -97 -93 -191q-41 -42 -164 -140h257v-111h-443v111l96 75l82 65q27 21 61 51t48.5 49t25 43t10.5 48q0 49 -29.5 80t-95.5 31q-42 0 -89 -17t-77 -40l-41 102q83 67 207 67q102 0 173.5 -58.5t71.5 -164.5z" />
<glyph unicode="&#xb3;" horiz-adv-x="511" d="M183 289v103h38q120 0 120 81q0 40 -25 60t-84 20q-81 0 -151 -55l-44 103q91 64 195 64q107 0 168 -51.5t61 -140.5q0 -44 -22.5 -79.5t-59.5 -56.5q41 -22 66.5 -60t25.5 -84q0 -99 -63.5 -153.5t-175.5 -54.5q-117 0 -205 70l44 102q29 -26 73 -43t88 -17 q65 0 92 22.5t27 73.5q0 42 -31.5 69t-98.5 27h-38z" />
<glyph unicode="&#xb9;" horiz-adv-x="325" d="M9 538v112h253v-650h-119v538h-134z" />
<glyph unicode="&#xba;" horiz-adv-x="525" d="M363 247v11q0 81 -25.5 114t-75.5 33t-75 -33t-25 -114v-11q0 -81 25 -114t75 -33t75.5 33t25.5 114zM45 247v11q0 130 59.5 193.5t157.5 63.5t158 -63.5t60 -193.5v-11q0 -130 -60 -193.5t-158 -63.5t-157.5 63.5t-59.5 193.5z" />
<glyph unicode="&#xc0;" horiz-adv-x="594" d="M255 725l-101 136h108l77 -136h-84zM0 0l236 650h122l236 -650h-122l-65 180h-219l-66 -180h-122zM297 481l-69 -190h138z" />
<glyph unicode="&#xc2;" horiz-adv-x="594" d="M341 1133l198 -407h-105l-138 314l-138 -315h-103l197 408h89zM0 0l236 650h122l236 -650h-122l-65 180h-219l-66 -180h-122zM297 481l-69 -190h138z" />
<glyph unicode="&#xc3;" horiz-adv-x="594" d="M52 729q0 182 148 182q34 0 62 -16t43 -34.5t37 -34.5t45 -16q33 0 49 27t16 70h89q0 -182 -147 -182q-34 0 -62 15.5t-43 34.5t-36.5 34.5t-45.5 15.5q-33 0 -49 -27t-16 -69h-90zM0 0l236 650h122l236 -650h-122l-65 180h-219l-66 -180h-122zM297 481l-69 -190h138z " />
<glyph unicode="&#xc8;" horiz-adv-x="561" d="M257 725l-101 136h108l77 -136h-84zM183 287v-176h351v-111h-471v650h471v-112h-351v-140h311v-111h-311z" />
<glyph unicode="&#xca;" horiz-adv-x="561" d="M342 1133l198 -407h-105l-138 314l-138 -315h-103l197 408h89zM183 287v-176h351v-111h-471v650h471v-112h-351v-140h311v-111h-311z" />
<glyph unicode="&#xcc;" horiz-adv-x="246" d="M81 725l-101 136h108l77 -136h-84zM63 0v650h120v-650h-120z" />
<glyph unicode="&#xce;" horiz-adv-x="246" d="M167 1133l198 -407h-105l-138 314l-138 -315h-103l197 408h89zM63 0v650h120v-650h-120z" />
<glyph unicode="&#xd1;" horiz-adv-x="620" d="M66 729q0 182 148 182q34 0 62 -16t43 -34.5t37 -34.5t45 -16q33 0 49 27t16 70h89q0 -182 -147 -182q-34 0 -62 15.5t-43 34.5t-36.5 34.5t-45.5 15.5q-33 0 -49 -27t-16 -69h-90zM63 0v650h131l243 -434v434h120v-650h-132l-242 433v-433h-120z" />
<glyph unicode="&#xd2;" horiz-adv-x="625" d="M270 725l-101 136h108l77 -136h-84zM459 301v48q0 110 -38 157t-109 47q-70 0 -108 -47t-38 -157v-48q0 -110 38 -157t108 -47q71 0 109 47t38 157zM45 301v48q0 162 72 239t195 77q124 0 196 -77t72 -239v-48q0 -162 -72 -239t-196 -77q-123 0 -195 77t-72 239z" />
<glyph unicode="&#xd4;" horiz-adv-x="625" d="M356 1133l198 -407h-105l-138 314l-138 -315h-103l197 408h89zM459 301v48q0 110 -38 157t-109 47q-70 0 -108 -47t-38 -157v-48q0 -110 38 -157t108 -47q71 0 109 47t38 157zM45 301v48q0 162 72 239t195 77q124 0 196 -77t72 -239v-48q0 -162 -72 -239t-196 -77 q-123 0 -195 77t-72 239z" />
<glyph unicode="&#xd5;" horiz-adv-x="625" d="M68 729q0 182 148 182q34 0 62 -16t43 -34.5t37 -34.5t45 -16q33 0 49 27t16 70h89q0 -182 -147 -182q-34 0 -62 15.5t-43 34.5t-36.5 34.5t-45.5 15.5q-33 0 -49 -27t-16 -69h-90zM459 301v48q0 110 -38 157t-109 47q-70 0 -108 -47t-38 -157v-48q0 -110 38 -157 t108 -47q71 0 109 47t38 157zM45 301v48q0 162 72 239t195 77q124 0 196 -77t72 -239v-48q0 -162 -72 -239t-196 -77q-123 0 -195 77t-72 239z" />
<glyph unicode="&#xd9;" horiz-adv-x="622" d="M269 725l-101 136h108l77 -136h-84zM54 301v349h120v-349q0 -110 35.5 -157t101.5 -47t101.5 47t35.5 157v349h120v-349q0 -162 -69.5 -239t-187.5 -77t-187.5 77t-69.5 239z" />
<glyph unicode="&#xdb;" horiz-adv-x="622" d="M355 1133l198 -407h-105l-138 314l-138 -315h-103l197 408h89zM54 301v349h120v-349q0 -110 35.5 -157t101.5 -47t101.5 47t35.5 157v349h120v-349q0 -162 -69.5 -239t-187.5 -77t-187.5 77t-69.5 239z" />
<glyph unicode="&#xe0;" horiz-adv-x="515" d="M202 575l-101 136h108l77 -136h-84zM461 328v-328h-101l-13 56q-41 -66 -128 -66t-139.5 41.5t-52.5 124.5v6q0 74 68 115.5t179 46.5l71 3v18q0 60 -109 60q-83 0 -151 -33l-39 93q88 50 198 50q217 0 217 -187zM345 184v56l-71 -2q-131 -3 -131 -76v-6q0 -36 28 -53 t73 -17q44 0 72.5 23.5t28.5 74.5z" />
<glyph unicode="&#xe2;" horiz-adv-x="515" d="M288 983l198 -407h-105l-138 314l-138 -315h-103l197 408h89zM461 328v-328h-101l-13 56q-41 -66 -128 -66t-139.5 41.5t-52.5 124.5v6q0 74 68 115.5t179 46.5l71 3v18q0 60 -109 60q-83 0 -151 -33l-39 93q88 50 198 50q217 0 217 -187zM345 184v56l-71 -2 q-131 -3 -131 -76v-6q0 -36 28 -53t73 -17q44 0 72.5 23.5t28.5 74.5z" />
<glyph unicode="&#xe3;" horiz-adv-x="515" d="M0 579q0 182 148 182q34 0 62 -16t43 -34.5t37 -34.5t45 -16q33 0 49 27t16 70h89q0 -182 -147 -182q-34 0 -62 15.5t-43 34.5t-36.5 34.5t-45.5 15.5q-33 0 -49 -27t-16 -69h-90zM461 328v-328h-101l-13 56q-41 -66 -128 -66t-139.5 41.5t-52.5 124.5v6q0 74 68 115.5 t179 46.5l71 3v18q0 60 -109 60q-83 0 -151 -33l-39 93q88 50 198 50q217 0 217 -187zM345 184v56l-71 -2q-131 -3 -131 -76v-6q0 -36 28 -53t73 -17q44 0 72.5 23.5t28.5 74.5z" />
<glyph unicode="&#xe8;" horiz-adv-x="516" d="M220 575l-101 136h108l77 -136h-84zM480 258v-51h-316v-5q0 -46 33.5 -74t89.5 -28q91 0 156 42l36 -102q-81 -50 -192 -50q-114 0 -178 62t-64 190v16q0 131 57.5 194t159.5 63t160 -63t58 -194zM164 298v-5h196v5q0 52 -27 79.5t-71 27.5t-71 -27.5t-27 -79.5z" />
<glyph unicode="&#xea;" horiz-adv-x="516" d="M306 983l198 -407h-105l-138 314l-138 -315h-103l197 408h89zM480 258v-51h-316v-5q0 -46 33.5 -74t89.5 -28q91 0 156 42l36 -102q-81 -50 -192 -50q-114 0 -178 62t-64 190v16q0 131 57.5 194t159.5 63t160 -63t58 -194zM164 298v-5h196v5q0 52 -27 79.5t-71 27.5 t-71 -27.5t-27 -79.5z" />
<glyph unicode="&#xec;" horiz-adv-x="247" d="M81 767l-101 136h108l77 -136h-84zM66 0v500h115v-500h-115zM53 637q0 29 20.5 49.5t49.5 20.5t50 -20.5t21 -49.5t-21 -50t-50 -21t-49.5 21t-20.5 50z" />
<glyph unicode="&#xee;" horiz-adv-x="247" d="M167 1175l198 -407h-105l-138 314l-138 -315h-103l197 408h89zM66 0v500h115v-500h-115zM53 637q0 29 20.5 49.5t49.5 20.5t50 -20.5t21 -49.5t-21 -50t-50 -21t-49.5 21t-20.5 50z" />
<glyph unicode="&#xf1;" d="M36 579q0 182 148 182q34 0 62 -16t43 -34.5t37 -34.5t45 -16q33 0 49 27t16 70h89q0 -182 -147 -182q-34 0 -62 15.5t-43 34.5t-36.5 34.5t-45.5 15.5q-33 0 -49 -27t-16 -69h-90zM63 0v500h101l14 -58q37 73 119 73q91 0 145.5 -64.5t54.5 -192.5v-258h-115v266 q0 75 -26 107t-76 32q-101 0 -101 -136v-269h-116z" />
<glyph unicode="&#xf2;" horiz-adv-x="525" d="M220 575l-101 136h108l77 -136h-84zM363 247v11q0 81 -25.5 114t-75.5 33t-75 -33t-25 -114v-11q0 -81 25 -114t75 -33t75.5 33t25.5 114zM45 247v11q0 130 59.5 193.5t157.5 63.5t158 -63.5t60 -193.5v-11q0 -130 -60 -193.5t-158 -63.5t-157.5 63.5t-59.5 193.5z" />
<glyph unicode="&#xf4;" horiz-adv-x="525" d="M306 983l198 -407h-105l-138 314l-138 -315h-103l197 408h89zM363 247v11q0 81 -25.5 114t-75.5 33t-75 -33t-25 -114v-11q0 -81 25 -114t75 -33t75.5 33t25.5 114zM45 247v11q0 130 59.5 193.5t157.5 63.5t158 -63.5t60 -193.5v-11q0 -130 -60 -193.5t-158 -63.5 t-157.5 63.5t-59.5 193.5z" />
<glyph unicode="&#xf5;" horiz-adv-x="525" d="M18 579q0 182 148 182q34 0 62 -16t43 -34.5t37 -34.5t45 -16q33 0 49 27t16 70h89q0 -182 -147 -182q-34 0 -62 15.5t-43 34.5t-36.5 34.5t-45.5 15.5q-33 0 -49 -27t-16 -69h-90zM363 247v11q0 81 -25.5 114t-75.5 33t-75 -33t-25 -114v-11q0 -81 25 -114t75 -33 t75.5 33t25.5 114zM45 247v11q0 130 59.5 193.5t157.5 63.5t158 -63.5t60 -193.5v-11q0 -130 -60 -193.5t-158 -63.5t-157.5 63.5t-59.5 193.5z" />
<glyph unicode="&#xf9;" d="M229 575l-101 136h108l77 -136h-84zM488 500v-500h-102l-13 58q-38 -68 -120 -68q-90 0 -144.5 64.5t-54.5 192.5v253h115v-261q0 -139 101 -139q102 0 102 136v264h116z" />
<glyph unicode="&#xfb;" d="M315 983l198 -407h-105l-138 314l-138 -315h-103l197 408h89zM488 500v-500h-102l-13 58q-38 -68 -120 -68q-90 0 -144.5 64.5t-54.5 192.5v253h115v-261q0 -139 101 -139q102 0 102 136v264h116z" />
<glyph unicode="&#x152;" horiz-adv-x="1186" d="M808 287v-176h351v-111h-471v650h471v-112h-351v-140h311v-111h-311zM459 301v48q0 110 -38 157t-109 47q-70 0 -108 -47t-38 -157v-48q0 -110 38 -157t108 -47q71 0 109 47t38 157zM45 301v48q0 162 72 239t195 77q124 0 196 -77t72 -239v-48q0 -162 -72 -239t-196 -77 q-123 0 -195 77t-72 239z" />
<glyph unicode="&#x153;" horiz-adv-x="1041" d="M1005 258v-51h-316v-5q0 -46 33.5 -74t89.5 -28q91 0 156 42l36 -102q-81 -50 -192 -50q-114 0 -178 62t-64 190v16q0 131 57.5 194t159.5 63t160 -63t58 -194zM689 298v-5h196v5q0 52 -27 79.5t-71 27.5t-71 -27.5t-27 -79.5zM363 247v11q0 81 -25.5 114t-75.5 33 t-75 -33t-25 -114v-11q0 -81 25 -114t75 -33t75.5 33t25.5 114zM45 247v11q0 130 59.5 193.5t157.5 63.5t158 -63.5t60 -193.5v-11q0 -130 -60 -193.5t-158 -63.5t-157.5 63.5t-59.5 193.5z" />
<glyph unicode="&#x2c6;" horiz-adv-x="592" d="M340 710l198 -407h-105l-138 314l-138 -315h-103l197 408h89z" />
<glyph unicode="&#x2dc;" horiz-adv-x="218" d="M-244 64q0 182 148 182q34 0 62 -16t43 -34.5t37 -34.5t45 -16q33 0 49 27t16 70h89q0 -182 -147 -182q-34 0 -62 15.5t-43 34.5t-36.5 34.5t-45.5 15.5q-33 0 -49 -27t-16 -69h-90z" />
<glyph unicode="&#x2000;" horiz-adv-x="587" />
<glyph unicode="&#x2001;" horiz-adv-x="1175" />
<glyph unicode="&#x2002;" horiz-adv-x="587" />
<glyph unicode="&#x2003;" horiz-adv-x="1175" />
<glyph unicode="&#x2004;" horiz-adv-x="391" />
<glyph unicode="&#x2005;" horiz-adv-x="293" />
<glyph unicode="&#x2006;" horiz-adv-x="195" />
<glyph unicode="&#x2007;" horiz-adv-x="195" />
<glyph unicode="&#x2008;" horiz-adv-x="146" />
<glyph unicode="&#x2009;" horiz-adv-x="235" />
<glyph unicode="&#x200a;" horiz-adv-x="65" />
<glyph unicode="&#x2010;" horiz-adv-x="360" d="M328 305v-110h-296v110h296z" />
<glyph unicode="&#x2011;" horiz-adv-x="360" d="M328 305v-110h-296v110h296z" />
<glyph unicode="&#x2013;" horiz-adv-x="500" d="M32 195v110h436v-110h-436z" />
<glyph unicode="&#x2014;" horiz-adv-x="1000" d="M32 195v110h936v-110h-936z" />
<glyph unicode="&#x2018;" horiz-adv-x="329" d="M173 750l-101 136h108l77 -136h-84z" />
<glyph unicode="&#x2019;" horiz-adv-x="194" d="M54 514v209h86l-1 -209h-85z" />
<glyph unicode="&#x201c;" horiz-adv-x="344" d="M206 514v209h84l-1 -209h-83zM54 514v209h84v-209h-84z" />
<glyph unicode="&#x201d;" horiz-adv-x="344" d="M206 514v209h84l-1 -209h-83zM54 514v209h84v-209h-84z" />
<glyph unicode="&#x2026;" horiz-adv-x="786" d="M584 60q0 29 21 50t50 21q30 0 51 -21t21 -50q0 -30 -21 -51t-51 -21q-29 0 -50 21t-21 51zM322 60q0 29 21 50t50 21q30 0 51 -21t21 -50q0 -30 -21 -51t-51 -21q-29 0 -50 21t-21 51zM60 60q0 29 21 50t50 21q30 0 51 -21t21 -50q0 -30 -21 -51t-51 -21q-29 0 -50 21 t-21 51z" />
<glyph unicode="&#x202f;" horiz-adv-x="235" />
<glyph unicode="&#x2039;" horiz-adv-x="573" d="M525 129v-102l-477 261v71l477 260v-101l-358 -195z" />
<glyph unicode="&#x203a;" horiz-adv-x="573" d="M48 27v102l358 194l-358 195v101l477 -260v-71z" />
<glyph unicode="&#x205f;" horiz-adv-x="293" />
<glyph unicode="&#x2122;" horiz-adv-x="1291" d="M628 0v650h128l172 -293l172 293h128v-650h-120v439l-180 -316l-180 316v-439h-120zM9 538v112h547v-112h-213v-538h-121v538h-213z" />
</font>
</defs>
</svg>
