<?xml version="1.0" standalone="no"?>
<!DOCTYPE svg PUBLIC "-//W3C//DTD SVG 1.1//EN" "http://www.w3.org/Graphics/SVG/1.1/DTD/svg11.dtd" >
<svg xmlns="http://www.w3.org/2000/svg">
<metadata>
This is a custom SVG webfont generated by Fontspring.
</metadata>
<defs>
<font id="AccordMedium" horiz-adv-x="1060" >
<font-face units-per-em="2048" ascent="1536" descent="-512" />
<missing-glyph horiz-adv-x="432" />
<glyph unicode=" "  horiz-adv-x="432" />
<glyph unicode="&#x09;" horiz-adv-x="432" />
<glyph unicode="&#xa0;" horiz-adv-x="432" />
<glyph unicode="!" horiz-adv-x="630" d="M217 1331h201v-491q0 -82 -14.5 -246t-14.5 -244h-143q0 80 -14.5 244t-14.5 246v491zM184 113q0 53 38 92t93.5 39t93 -39t37.5 -92q0 -55 -37.5 -93t-93 -38t-93.5 38t-38 93z" />
<glyph unicode="&#x22;" horiz-adv-x="622" d="M385 1053l-2 428h149l-2 -428h-145zM92 1053l-2 428h150l-2 -428h-146z" />
<glyph unicode="#" horiz-adv-x="1437" d="M754 0l80 322h-398l-80 -322h-174l80 322h-262v153h301l105 414h-314v153h352l80 312h174l-80 -312h398l80 312h174l-80 -312h246v-153h-285l-102 -414h294v-153h-335l-80 -322h-174zM580 889l-103 -414h395l105 414h-397z" />
<glyph unicode="$" horiz-adv-x="995" d="M584 -319h-201v301q-199 16 -330 110l62 191q106 -78 250.5 -100.5t253 24.5t108.5 155q0 76 -67.5 123t-163 76t-191.5 68t-163.5 125t-67.5 219q0 150 85 241t224 121v316h201v-303q182 -16 313 -109l-61 -192q-96 76 -226.5 100t-226.5 -19t-96 -145q0 -82 67.5 -132 t163.5 -80t192.5 -66.5t164 -118.5t67.5 -209q0 -166 -100.5 -262.5t-257.5 -124.5v-309z" />
<glyph unicode="%" horiz-adv-x="2172" d="M850 895q0 -221 -99.5 -338t-271.5 -117q-170 0 -270 118t-100 337t100 337t270 118q172 0 271.5 -117t99.5 -338zM647 895q0 139 -42 200.5t-126 61.5t-126 -61.5t-42 -200.5q0 -143 41 -201.5t127 -58.5t127 58.5t41 201.5zM2064 434q0 -221 -98 -337.5t-272 -116.5 q-172 0 -271.5 117.5t-99.5 336.5t100.5 337t270.5 118q174 0 272 -118t98 -337zM1860 434q0 260 -166 260q-84 0 -126 -61.5t-42 -198.5q0 -143 41 -201.5t127 -58.5t126 58.5t40 201.5zM1319 1331h227l-694 -1331h-225z" />
<glyph unicode="&#x26;" horiz-adv-x="1241" d="M1235 618h-201v-155q0 -258 -134 -372t-347 -114q-119 0 -224.5 40t-181 134.5t-75.5 225.5q0 238 219 334q-174 86 -174 295q0 147 125 245.5t311 98.5q174 0 311 -74l-90 -174q-106 51 -225 51q-98 0 -159.5 -47t-61.5 -123q0 -84 52 -138t175 -54h268v217h211v-217 h201v-173zM285 391q0 -113 80.5 -166t187.5 -53q270 0 270 291v155h-268q-119 0 -194.5 -59t-75.5 -168z" />
<glyph unicode="'" horiz-adv-x="333" d="M92 1053l-2 428h154l-2 -428h-150z" />
<glyph unicode="(" horiz-adv-x="768" d="M113 512q0 317 105.5 568t334.5 456l125 -113q-186 -147 -294 -377.5t-108 -533.5t108 -533.5t294 -377.5l-125 -113q-229 205 -334.5 456t-105.5 568z" />
<glyph unicode=")" horiz-adv-x="768" d="M655 512q0 -317 -105.5 -568t-334.5 -456l-125 113q399 317 399 911q0 303 -106.5 534.5t-292.5 376.5l125 113q229 -205 334.5 -456t105.5 -568z" />
<glyph unicode="*" horiz-adv-x="972" d="M567 1526l-10 -299l279 104l49 -153l-285 -86l182 -230l-131 -96l-166 246l-163 -244l-134 96l185 230l-285 84l49 153l279 -102l-10 297h161z" />
<glyph unicode="+" horiz-adv-x="1284" d="M1192 762v-189h-447v-426h-204v426h-449v189h449v426h204v-426h447z" />
<glyph unicode="," horiz-adv-x="458" d="M80 111q0 55 39 93t94 38q72 0 105.5 -56.5t31.5 -140.5q-2 -96 -51 -206.5t-158 -170.5l-63 62q49 45 84 113.5t39 138.5q-51 2 -86 40t-35 89z" />
<glyph unicode="-" horiz-adv-x="696" d="M651 606v-188h-606v188h606z" />
<glyph unicode="." horiz-adv-x="471" d="M104 110.5q0 55.5 38 93.5t93.5 38t93.5 -38t38 -93.5t-38 -93t-93.5 -37.5t-93.5 37.5t-38 93z" />
<glyph unicode="/" horiz-adv-x="638" d="M492 1536h167l-516 -1597h-163z" />
<glyph unicode="0" horiz-adv-x="1120" d="M836 629v73q0 244 -71 347.5t-206 103.5q-133 0 -204.5 -103.5t-71.5 -347.5v-73q0 -246 71.5 -349.5t204.5 -103.5q135 0 206 103.5t71 349.5zM70 629v73q0 334 130 491t359 157q231 0 361.5 -157t130.5 -491v-73q0 -334 -130 -491.5t-362 -157.5q-229 0 -359 157.5 t-130 491.5z" />
<glyph unicode="1" horiz-adv-x="598" d="M6 1135v196h486v-1331h-213v1135h-273z" />
<glyph unicode="2" horiz-adv-x="964" d="M913 911q0 -41 -9 -82t-19.5 -73.5t-36.5 -74.5l-43 -69q-16 -27 -59.5 -70.5t-62.5 -65t-76 -70.5l-76 -66l-86 -72q-67 -55 -85 -71h553v-197h-874v197l186 153l167 136q56 46 126 111t102.5 109t56 98t23.5 107q0 104 -64.5 173t-201.5 69q-90 0 -184 -31.5 t-156 -77.5l-61 189q168 117 401 117q199 0 339 -116t140 -323z" />
<glyph unicode="3" horiz-adv-x="970" d="M340 606v182h78q258 0 258 182.5t-242 182.5q-170 0 -315 -106l-64 192q61 35 105.5 54.5t118 38t155.5 18.5q215 0 335 -101.5t120 -277.5q0 -184 -174 -279q86 -45 140 -121.5t54 -179.5q0 -193 -126 -302t-349 -109q-213 0 -399 118l63 193q143 -115 336 -115 q139 0 200.5 53.5t61.5 161.5q0 92 -67.5 153.5t-210.5 61.5h-78z" />
<glyph unicode="4" d="M66 485l380 846h224l-381 -846h481v519h213v-1004h-213v289h-704v196z" />
<glyph unicode="5" horiz-adv-x="995" d="M104 629v702h799v-196h-588v-308h111q248 0 383 -113.5t135 -310.5q0 -207 -134 -315t-351 -108q-131 0 -219 25.5t-189 90.5l62 189q150 -109 338 -109q283 0 282 221q0 137 -89 184.5t-302 47.5h-238z" />
<glyph unicode="6" horiz-adv-x="1048" d="M563 823q193 0 313.5 -102.5t120.5 -304.5q0 -217 -116.5 -326.5t-302.5 -109.5q-119 0 -208 33.5t-145.5 92t-91.5 145.5t-48 180t-13 210q0 356 126 532.5t398 176.5q227 0 389 -117l-61 -189q-143 109 -334 109q-154 0 -226.5 -101.5t-72.5 -279.5q116 51 272 51z M557 643q-147 0 -266 -61q0 -201 59.5 -303.5t220.5 -102.5q92 0 153.5 58.5t61.5 181.5q0 121 -66.5 174t-162.5 53z" />
<glyph unicode="7" horiz-adv-x="952" d="M385 0h-225l538 1135h-669v196h895v-196z" />
<glyph unicode="8" horiz-adv-x="1081" d="M541 1350q190 0 316 -104.5t126 -248.5q0 -193 -166 -286q100 -43 155.5 -129t55.5 -197q0 -170 -130 -287.5t-357.5 -117.5t-357.5 117.5t-130 287.5q0 111 55.5 197t155.5 129q-166 94 -166 286q0 143 125 248t318 105zM266 399q0 -104 72 -164.5t203 -60.5t202.5 60.5 t71.5 164.5q0 98 -72.5 158.5t-201.5 60.5t-202 -60.5t-73 -158.5zM309 969q0 -84 61.5 -131t170 -47t170 47t61.5 131q0 76 -60.5 131t-171 55t-171 -54t-60.5 -132z" />
<glyph unicode="9" horiz-adv-x="1048" d="M485 508q-193 0 -313.5 102.5t-120.5 302.5q0 217 117 327t303 110q147 0 249.5 -50.5t157 -144.5t77 -205.5t22.5 -259.5q0 -358 -126 -534t-402 -176q-225 0 -386 118l62 189q137 -111 332 -111q301 0 301 385q-121 -53 -273 -53zM492 690q147 0 266 60 q0 199 -59.5 301t-221.5 102q-92 0 -153.5 -58.5t-61.5 -181.5q0 -117 67 -170t163 -53z" />
<glyph unicode=":" horiz-adv-x="471" d="M104 110.5q0 55.5 38 93.5t93.5 38t93.5 -38t38 -93.5t-38 -93t-93.5 -37.5t-93.5 37.5t-38 93zM104 913.5q0 55.5 38 93t93.5 37.5t93.5 -38.5t38 -92t-38 -92.5t-93.5 -39t-93.5 38t-38 93.5z" />
<glyph unicode=";" horiz-adv-x="468" d="M100 913.5q0 55.5 39 93t94 37.5q53 0 92.5 -38.5t39.5 -92t-39 -92.5t-93 -39q-55 0 -94 38t-39 93.5zM100 111q0 55 39 93t94 38q72 0 106 -56.5t32 -140.5q-2 -96 -50.5 -206.5t-156.5 -170.5l-66 62q49 45 84 113.5t39 138.5q-51 2 -86 40t-35 89z" />
<glyph unicode="&#x3c;" horiz-adv-x="1136" d="M1057 248v-178l-977 532v121l977 534v-178l-760 -415z" />
<glyph unicode="=" horiz-adv-x="1157" d="M1065 500v-148h-973v148h973zM1065 981v-147h-973v147h973z" />
<glyph unicode="&#x3e;" horiz-adv-x="1136" d="M80 70v178l760 416l-760 415v178l977 -534v-121z" />
<glyph unicode="?" horiz-adv-x="974" d="M170 113q0 53 38 92t93 39t93 -39t38 -92q0 -55 -38 -93t-93 -38t-93 38t-38 93zM903 956q0 -82 -26.5 -146.5t-89 -115.5t-96.5 -72.5t-111 -60.5q-18 -10 -27 -14q-145 -80 -145 -189h-213q0 209 237 344q20 12 70.5 37t74 40.5t55.5 42t45 59t13 75.5 q0 98 -68.5 148.5t-191.5 50.5q-178 0 -289 -55l-61 188q141 61 350 61.5t341 -102.5t132 -291z" />
<glyph unicode="@" horiz-adv-x="2316" d="M2007 637q0 209 -63.5 357.5t-183.5 232.5t-272.5 121.5t-348.5 37.5q-395 0 -613.5 -209.5t-218.5 -641.5q0 -885 850 -897q352 -4 709 108l47 -149q-377 -113 -756 -109q-172 2 -319.5 37t-277.5 114.5t-221 198.5t-143.5 296t-52.5 401q2 479 256 740t740 261 q229 0 410.5 -47t324.5 -149.5t221 -280.5t78 -422q0 -135 -20.5 -246.5t-66.5 -209t-132 -153t-205 -55.5q-225 0 -287 191q-27 -78 -117 -134.5t-223 -56.5q-436 0 -436 541q0 92 23.5 178t76 170t155.5 135.5t245 51.5q117 0 224.5 -35t172.5 -76v-580q0 -127 39 -181 t127 -54q78 0 131 42t80 119.5t37 160.5t10 192zM1417 494v340q-100 66 -231 65q-182 0 -259 -110.5t-77 -274.5v-60q0 -17 5 -67.5t14.5 -77t29 -68.5t47 -62.5t73.5 -38t103 -17.5q152 0 223.5 89t71.5 282z" />
<glyph unicode="A" horiz-adv-x="1232" d="M1016 0l-119 315h-561l-119 -315h-217l508 1331h217l508 -1331h-217zM616 1059l-208 -547h415z" />
<glyph unicode="B" horiz-adv-x="1165" d="M109 1331h475q246 0 363.5 -100.5t117.5 -263.5q0 -188 -170 -277q211 -90 211 -311q0 -174 -120 -276.5t-376 -102.5h-501v1331zM610 590h-291v-393h291q285 0 285 196.5t-285 196.5zM584 1135h-265v-363h265q141 0 205.5 50t64.5 130q0 183 -270 183z" />
<glyph unicode="C" horiz-adv-x="1073" d="M283 723v-115q0 -434 364 -434q96 0 189.5 35t136.5 76l63 -193q-166 -115 -389 -115q-264 0 -419.5 155t-155.5 476v115q0 319 155.5 473t419.5 154q199 0 389 -111l-63 -192q-156 106 -326 106q-364 0 -364 -430z" />
<glyph unicode="D" horiz-adv-x="1165" d="M109 0v1331h409q575 0 576 -602v-127q0 -602 -576 -602h-409zM881 602v127q0 219 -90.5 312.5t-272.5 93.5h-199v-938h199q182 0 272.5 93t90.5 312z" />
<glyph unicode="E" horiz-adv-x="1046" d="M319 602v-405h693v-197h-903v1331h903v-196h-693v-334h611v-199h-611z" />
<glyph unicode="F" horiz-adv-x="1013" d="M319 602v-602h-210v1331h888v-196h-678v-334h596v-199h-596z" />
<glyph unicode="G" horiz-adv-x="1146" d="M616 551v182h459v-633q-188 -123 -416 -123q-270 0 -428.5 155t-158.5 476v115q0 319 158.5 473t428.5 154q86 0 165 -18.5t124 -38t113 -54.5l-62 -192q-160 106 -340 106q-377 0 -376 -430v-115q0 -434 376 -434q102 0 205 37v340h-248z" />
<glyph unicode="H" horiz-adv-x="1202" d="M319 602v-602h-210v1331h210v-530h562v530h213v-1331h-213v602h-562z" />
<glyph unicode="I" horiz-adv-x="428" d="M109 0v1331h210v-1331h-210z" />
<glyph unicode="J" horiz-adv-x="870" d="M762 1331v-901q0 -453 -397 -453q-174 0 -338 84l61 191q129 -78 262 -78q100 0 149.5 52.5t49.5 203.5v705h-422v196h635z" />
<glyph unicode="K" horiz-adv-x="1124" d="M354 696l477 635h252l-477 -635l518 -696h-252zM109 0v1331h210v-1331h-210z" />
<glyph unicode="L" horiz-adv-x="948" d="M109 0v1331h210v-1134h611v-197h-821z" />
<glyph unicode="M" horiz-adv-x="1419" d="M109 0v1331h204l398 -635l395 635h205v-1331h-213v950l-387 -620l-392 620v-950h-210z" />
<glyph unicode="N" horiz-adv-x="1202" d="M109 0v1331h204l568 -934v934h213v-1331h-205l-570 932v-932h-210z" />
<glyph unicode="O" horiz-adv-x="1210" d="M926 608v113q0 432 -320 432q-322 0 -321 -432v-113q0 -434 321 -434q320 0 320 434zM72 608v113q0 324 144 476.5t390 152.5t389.5 -153t143.5 -476v-113q0 -324 -143.5 -477.5t-389.5 -153.5t-390 153.5t-144 477.5z" />
<glyph unicode="P" horiz-adv-x="1128" d="M109 1331h487q258 0 378 -114.5t120 -317.5q0 -201 -120 -315.5t-378 -114.5h-277v-469h-210v1331zM596 1135h-277v-467h277q154 0 219.5 57t65.5 174t-65.5 176.5t-219.5 59.5z" />
<glyph unicode="Q" horiz-adv-x="1210" d="M215 -279v197q63 57 147 58h6q81 0 160 -28l165 -60q80 -29 161 -28h5q83 1 147 58v-197q-63 -57 -147 -58h-5l-161 29l-165 59q-79 29 -160 29h-6q-84 -2 -147 -59zM926 608v113q0 432 -320 432q-322 0 -321 -432v-113q0 -434 321 -434q320 0 320 434zM72 608v113 q0 324 144 476.5t390 152.5t389.5 -153t143.5 -476v-113q0 -324 -143.5 -477.5t-389.5 -153.5t-390 153.5t-144 477.5z" />
<glyph unicode="R" horiz-adv-x="1193" d="M950 0l-340 518h-291v-518h-210v1331h487q498 0 498 -407q0 -283 -267 -369l367 -555h-244zM596 1135h-277v-420h277q285 0 285 209q0 104 -65.5 157.5t-219.5 53.5z" />
<glyph unicode="S" horiz-adv-x="995" d="M53 92l62 191q106 -78 251 -101q47 -7 89 -7q90 0 163 32q109 47 109 155q0 76 -67.5 123t-163 76t-191.5 68t-163.5 125t-67.5 219q0 123 60.5 209t155.5 123.5t206 44.5q18 1 36 1q92 0 181 -26q106 -31 184 -86l-61 -192q-96 76 -227 100q-47 9 -90 9q-75 0 -136 -28 q-96 -43 -96 -145q0 -82 67.5 -132t163.5 -80t192.5 -66.5t164 -118.5t67.5 -209q0 -160 -99.5 -260.5t-240.5 -124.5q-69 -12 -141 -12q-75 0 -152 13q-152 25 -256 99z" />
<glyph unicode="T" horiz-adv-x="1114" d="M39 1135v196h1036v-196h-411v-1135h-213v1135h-412z" />
<glyph unicode="U" horiz-adv-x="1208" d="M90 614v717h213v-717q0 -440 301 -440t301 440v717h211v-717q0 -328 -137 -482.5t-374.5 -154.5t-376 154.5t-138.5 482.5z" />
<glyph unicode="V" horiz-adv-x="1183" d="M1184 1331l-484 -1331h-217l-483 1331h217l375 -1059l375 1059h217z" />
<glyph unicode="W" horiz-adv-x="1828" d="M1020 1331l297 -1007l295 1007h211l-402 -1331h-211l-295 979l-297 -979h-210l-402 1331h211l297 -1007l295 1007h211z" />
<glyph unicode="X" horiz-adv-x="1171" d="M285 1331l299 -467l303 467h243l-423 -635l464 -696h-243l-344 526l-340 -526h-244l463 696l-422 635h244z" />
<glyph unicode="Y" horiz-adv-x="1230" d="M1231 1331l-508 -815v-516h-213v512l-510 819h240l376 -622l375 622h240z" />
<glyph unicode="Z" horiz-adv-x="1058" d="M57 1135v196h944v-170l-708 -964h749v-197h-1026v170l709 965h-668z" />
<glyph unicode="[" horiz-adv-x="720" d="M612 -362v-150h-444v2048h444v-150h-280v-1748h280z" />
<glyph unicode="\" horiz-adv-x="641" d="M-20 1536h167l515 -1597h-166z" />
<glyph unicode="]" horiz-adv-x="720" d="M109 -512v150h280v1748h-280v150h444v-2048h-444z" />
<glyph unicode="^" horiz-adv-x="1142" d="M645 1454l406 -833h-185l-297 659l-297 -662h-182l404 836h151z" />
<glyph unicode="_" horiz-adv-x="1044" d="M1038 -18v-162h-1032v162h1032z" />
<glyph unicode="`" horiz-adv-x="604" d="M328 1536l-201 279h192l158 -279h-149z" />
<glyph unicode="a" horiz-adv-x="983" d="M905 662v-662h-176l-24 125q-74 -143 -273 -143q-176 0 -282.5 84t-106.5 253q0 307 494 332l163 8v29q0 152 -239 152q-164 0 -311 -64l-60 185q188 72 385 71.5t313.5 -88t116.5 -282.5zM700 389v111l-163 -8q-55 -2 -95.5 -9.5t-90.5 -24t-76.5 -52t-26.5 -87.5 q0 -154 227 -153q100 0 162.5 54t62.5 169z" />
<glyph unicode="b" horiz-adv-x="1071" d="M109 0v1434h204v-547q70 145 283 145q111 0 191.5 -43t125.5 -119.5t65.5 -168t20.5 -199.5q0 -231 -97 -376.5t-306 -145.5q-94 0 -171 37.5t-114 113.5l-26 -131h-176zM553 172q139 0 190.5 80t51.5 250q0 59 -4.5 102t-17.5 90t-38.5 77t-72 49.5t-109.5 19.5 q-141 0 -190.5 -84t-49.5 -246q0 -164 49.5 -251t190.5 -87z" />
<glyph unicode="c" horiz-adv-x="905" d="M72 506q0 238 117.5 382t367.5 144q160 0 301 -90l-57 -178q-106 76 -244 76q-154 0 -217.5 -83t-63.5 -251q0 -160 76 -247t226 -87q137 0 241 59l58 -176q-129 -76 -299 -75q-246 0 -376 147.5t-130 378.5z" />
<glyph unicode="d" horiz-adv-x="1071" d="M963 1434v-1434h-177l-26 133q-37 -76 -114 -114.5t-171 -38.5q-209 0 -306 145t-97 377q0 109 20.5 200t65.5 167.5t126 119.5t191 43q213 0 283 -145v547h205zM516 172q141 0 191.5 87t50.5 251q0 162 -49.5 246t-192.5 84q-78 0 -129 -27t-73.5 -80t-30 -104 t-7.5 -127q0 -170 50.5 -250t189.5 -80z" />
<glyph unicode="e" horiz-adv-x="1028" d="M963 528v-100h-682v-8q0 -121 74.5 -184.5t209.5 -63.5q188 0 316 51l59 -182q-166 -61 -375 -61q-494 0 -493.5 526t444.5 526q211 0 329 -123t118 -381zM281 596v-12h471v12q0 244 -235.5 244t-235.5 -244z" />
<glyph unicode="f" horiz-adv-x="671" d="M109 0v1077q0 377 364 377q145 0 266 -57l-61 -183q-94 47 -205 48q-162 0 -162 -183v-67h361v-193h-361v-819h-202z" />
<glyph unicode="g" horiz-adv-x="1071" d="M963 1012v-1080q0 -219 -122 -330.5t-329 -111.5q-231 0 -395 90l61 180q137 -78 334 -77q246 0 246 249v199q-74 -152 -283 -151q-113 0 -193.5 45t-124.5 122.5t-64.5 166.5t-20.5 194q0 96 18.5 181t60.5 166t125.5 129t198.5 48q207 0 285 -151l26 131h177zM516 840 q-139 0 -189.5 -86t-50.5 -246q0 -162 48.5 -249t191.5 -87q139 0 190.5 85t51.5 243q0 162 -49.5 251t-192.5 89z" />
<glyph unicode="h" d="M109 0v1434h202v-551q94 150 314 149q147 0 246.5 -102.5t99.5 -317.5v-612h-203v598q0 131 -52 186.5t-153 55.5q-119 0 -185.5 -67.5t-66.5 -237.5v-535h-202z" />
<glyph unicode="i" horiz-adv-x="430" d="M113 0v1012h204v-1012h-204zM88 1319q0 53 37 90t90 37t90 -37t37 -90q0 -51 -37 -88t-90 -37t-90 37t-37 88z" />
<glyph unicode="j" horiz-adv-x="436" d="M319 1012v-1168q0 -186 -88 -270t-235 -84q-90 0 -162 39l62 180q43 -27 100 -26q119 0 119 161v1168h204zM90 1319q0 53 37 90t90 37t90 -37t37 -90t-37 -89t-90 -36t-90 37t-37 88z" />
<glyph unicode="k" horiz-adv-x="1042" d="M346 532l399 480h256l-399 -480l440 -532h-256zM109 0v1434h204v-1434h-204z" />
<glyph unicode="l" horiz-adv-x="524" d="M109 338v1096h202v-1096q0 -162 88 -162q39 0 72 17l59 -181q-80 -29 -157 -28q-264 0 -264 354z" />
<glyph unicode="m" horiz-adv-x="1611" d="M109 0v1012h176l26 -131q84 152 285 151.5t281 -188.5q109 188 323 188q137 0 229.5 -103.5t92.5 -320.5v-608h-203v594q0 133 -46 189.5t-132 56.5q-104 0 -163.5 -57.5t-59.5 -202.5v-580h-203v594q0 246 -178 246q-106 0 -166 -67.5t-60 -237.5v-535h-202z" />
<glyph unicode="n" d="M109 0v1012h176l26 -131q94 152 314 151q150 0 248 -103.5t98 -320.5v-608h-203v594q0 133 -52 189.5t-153 56.5q-119 0 -185.5 -67.5t-66.5 -237.5v-535h-202z" />
<glyph unicode="o" horiz-adv-x="1036" d="M760 506q0 166 -49 250t-192.5 84t-193 -84t-49.5 -250t49.5 -250t193 -84t192.5 84t49 250zM72 506q0 526 446.5 526t446.5 -526t-446.5 -526t-446.5 526z" />
<glyph unicode="p" horiz-adv-x="1071" d="M109 -512v1524h176l26 -131q37 76 114 113.5t171 37.5q209 0 306 -145.5t97 -376.5t-95 -380.5t-308 -149.5t-283 145v-637h-204zM553 840q-141 0 -190.5 -87t-49.5 -251q0 -160 49.5 -245t190.5 -85q63 0 109.5 19.5t72 49t38.5 77t17.5 90.5t4.5 102q0 170 -51.5 250 t-190.5 80z" />
<glyph unicode="q" horiz-adv-x="1071" d="M963 1012v-1524h-205v637q-70 -145 -283 -145t-308 149.5t-95 380.5t97 376.5t306 145.5q94 0 171 -38t114 -113l26 131h177zM516 840q-139 0 -189.5 -80t-50.5 -250q0 -76 7.5 -127t30 -104.5t73.5 -80t129 -26.5q143 0 192.5 85t49.5 245q0 164 -50.5 251t-191.5 87z " />
<glyph unicode="r" horiz-adv-x="716" d="M109 0v1012h176l24 -131q59 154 221 153q117 0 183 -55l-78 -178q-53 41 -135 41q-188 0 -189 -322v-520h-202z" />
<glyph unicode="s" horiz-adv-x="921" d="M72 55l59 183q84 -45 205 -61q43 -5 83 -5q71 0 131 17q93 28 93 96q0 49 -41 78.5t-101.5 40t-132 30t-132 46t-101.5 90t-41 159.5q0 160 136 239q117 67 259 67q24 0 49 -2q171 -13 287 -91l-59 -184q-76 55 -186 75q-47 8 -89 8q-57 0 -106 -16q-84 -27 -84 -92 q0 -49 41 -78.5t101.5 -39t132 -28t132 -43t101.5 -86t41 -155.5q0 -135 -86 -216t-211 -98q-61 -8 -123 -9q-66 0 -132 10q-130 18 -226 65z" />
<glyph unicode="t" horiz-adv-x="774" d="M109 356v975h202v-319h375v-193h-375v-463q0 -184 160 -184q127 0 223 53l60 -180q-115 -66 -283 -65.5t-265 89t-97 287.5z" />
<glyph unicode="u" d="M952 1012v-1012h-176l-26 131q-94 -152 -314 -151q-150 0 -248 103t-98 320v609h203v-594q0 -133 52 -189.5t153 -56.5q119 0 185.5 67.5t66.5 237.5v535h202z" />
<glyph unicode="v" horiz-adv-x="1036" d="M215 1012l303 -764l305 764h213l-411 -1012h-213l-412 1012h215z" />
<glyph unicode="w" horiz-adv-x="1628" d="M229 1012l240 -744l240 744h211l239 -744l238 744h213l-344 -1012h-213l-240 696l-238 -696h-213l-344 1012h211z" />
<glyph unicode="x" horiz-adv-x="1064" d="M293 1012l239 -326l242 326h250l-367 -480l408 -532h-250l-283 379l-280 -379h-252l408 532l-367 480h252z" />
<glyph unicode="y" d="M952 1012v-1080q0 -221 -119.5 -331.5t-324.5 -110.5q-225 0 -389 90l61 180q135 -78 328 -77q240 0 240 249v197q-92 -150 -312 -149q-150 0 -248 103t-98 320v609h203v-594q0 -133 52 -189.5t153 -56.5q117 0 184.5 68.5t67.5 240.5v531h202z" />
<glyph unicode="z" horiz-adv-x="972" d="M55 819v193h863v-193l-580 -626h580v-193h-863v193l582 626h-582z" />
<glyph unicode="{" horiz-adv-x="1034" d="M129 457v147h96q113 0 171.5 84t58.5 240v205q0 193 93 298t249 105h145v-150h-133q-96 0 -142 -71.5t-46 -227.5v-198q0 -270 -170 -359q166 -82 170 -358v-235q0 -156 46 -227.5t142 -71.5h133v-150h-145q-152 0 -247 105.5t-95 297.5v242q0 324 -230 324h-96z" />
<glyph unicode="|" horiz-adv-x="503" d="M334 1536v-2048h-166v2048h166z" />
<glyph unicode="}" horiz-adv-x="1034" d="M905 604v-147h-98q-229 0 -229 -324v-242q0 -193 -95.5 -298t-246.5 -105h-146v150h135q188 0 189 299v235q4 276 170 358q-170 88 -170 359v198q0 299 -189 299h-135v150h146q156 0 249 -105.5t93 -297.5v-205q0 -156 58 -240t171 -84h98z" />
<glyph unicode="~" horiz-adv-x="1159" d="M90 408q0 373 289 372q59 0 107.5 -23.5t79.5 -58.5l61 -68q29 -34 64.5 -57.5t76.5 -23.5q141 0 141 223h158q0 -373 -285 -373q-74 0 -130 36t-86.5 79t-76 79t-98.5 36q-72 0 -106.5 -60.5t-34.5 -160.5h-160z" />
<glyph unicode="&#xa1;" horiz-adv-x="630" d="M418 -338h-201v524q0 80 14.5 244t14.5 246h143q0 -82 14.5 -246t14.5 -244v-524zM184 913q0 53 38 92t93.5 39t93 -38.5t37.5 -92.5q0 -55 -37.5 -93t-93 -38t-93.5 38t-38 93z" />
<glyph unicode="&#xa2;" horiz-adv-x="905" d="M72 506q0 211 93 350t290 168v307h163v-303q125 -14 240 -86l-57 -178q-106 76 -244 76q-154 0 -217.5 -83t-63.5 -251q0 -160 76 -247t226 -87q137 0 241 59l58 -176q-115 -68 -259 -73v-289h-163v299q-186 35 -284.5 174t-98.5 340z" />
<glyph unicode="&#xa3;" horiz-adv-x="1034" d="M1016 197v-197h-821v563h-177v148h177v155q0 244 105.5 364t328.5 120q170 0 301 -74l-58 -180q-104 51 -237 57q-133 2 -180 -68.5t-47 -240.5v-133h337v-148h-337v-366h608z" />
<glyph unicode="&#xa4;" horiz-adv-x="1390" d="M698 352q-82 0 -143 31l-283 -283l-141 142l266 264q-43 70 -43 158t41 155l-264 266l141 142l281 -281q66 33 145 33q72 0 142 -33l276 281l141 -142l-260 -260q43 -74 43 -162t-45 -161l265 -258l-144 -144l-280 281q-64 -29 -138 -29zM698.5 487q77.5 0 128 50.5 t50.5 126.5q0 80 -50.5 129t-128.5 49q-80 0 -130 -49.5t-50 -128.5q0 -76 51.5 -126.5t129 -50.5z" />
<glyph unicode="&#xa5;" horiz-adv-x="1230" d="M1102 596v-147h-379v-132h379v-147h-379v-170h-213v170h-381v147h381v132h-381v147h328l-457 735h240l376 -608l375 608h240l-457 -735h328z" />
<glyph unicode="&#xa6;" horiz-adv-x="452" d="M309 1536v-825h-166v825h166zM309 356v-868h-166v868h166z" />
<glyph unicode="&#xa7;" horiz-adv-x="1105" d="M109 -367l61 193q160 -109 338 -109q117 0 196.5 49.5t79.5 141.5q0 82 -69.5 130t-227.5 95q-72 23 -127 50.5t-111 72.5t-88 113.5t-32 154.5q0 186 135 283q-135 106 -135 280q0 190 127 286.5t332 96.5q84 0 157.5 -19t111.5 -37.5t97 -55.5l-61 -191 q-53 33 -84 50.5t-97.5 37t-140.5 19.5q-96 0 -162.5 -44t-66.5 -130q0 -43 19.5 -78t42 -56.5t66.5 -42t69 -28.5l71 -23q387 -111 387 -383q0 -190 -141 -294q141 -102 141 -271q0 -203 -145 -303t-358 -100q-84 0 -160 18.5t-119 37.5t-106 56zM342 537q0 -45 21.5 -82 t42 -57.5t76 -45t72.5 -29.5l83 -24q18 -6 27 -8q121 53 120 180q0 88 -79.5 137t-247.5 99q-115 -43 -115 -170z" />
<glyph unicode="&#xa8;" horiz-adv-x="972" d="M109 1663q0 53 36.5 90t90.5 37q51 0 87.5 -37t36.5 -90t-36.5 -90t-87.5 -37q-53 0 -90 37t-37 90zM612 1663q0 53 37 90t90 37q51 0 88 -37t37 -90q0 -51 -36.5 -89t-88 -38t-89.5 37t-38 90z" />
<glyph unicode="&#xa9;" horiz-adv-x="1837" d="M530 709v36q0 201 107.5 303.5t280.5 102.5q121 0 249 -72l-49 -145q-88 61 -194 61q-225 0 -226 -258v-30q0 -135 68 -196.5t178 -61.5q109 0 191 49q18 -61 47 -146q-113 -61 -250 -61q-170 0 -286 109.5t-116 308.5zM174 721q0 309 217 527t527 218q311 0 528 -217 t217 -528q0 -309 -218 -526.5t-527.5 -217.5t-526.5 217.5t-217 526.5zM297 721q0 -256 182.5 -438.5t438.5 -182.5t438 182.5t182 438.5q0 258 -182 441.5t-438 183.5t-438.5 -183.5t-182.5 -441.5z" />
<glyph unicode="&#xaa;" horiz-adv-x="983" d="M905 662v-662h-176l-24 125q-74 -143 -273 -143q-176 0 -282.5 84t-106.5 253q0 307 494 332l163 8v29q0 152 -239 152q-164 0 -311 -64l-60 185q188 72 385 71.5t313.5 -88t116.5 -282.5zM700 389v111l-163 -8q-55 -2 -95.5 -9.5t-90.5 -24t-76.5 -52t-26.5 -87.5 q0 -154 227 -153q100 0 162.5 54t62.5 169z" />
<glyph unicode="&#xab;" horiz-adv-x="1093" d="M985 82h-188l-330 430l330 430h188l-330 -430zM592 82h-191l-329 430l329 430h191l-330 -430z" />
<glyph unicode="&#xac;" horiz-adv-x="1173" d="M1065 872v-608h-164v461h-829v147h993z" />
<glyph unicode="&#xad;" horiz-adv-x="696" d="M651 606v-188h-606v188h606z" />
<glyph unicode="&#xae;" horiz-adv-x="1837" d="M1063 311l-176 322h-119v-322h-166v819h318q158 0 235.5 -65.5t77.5 -175.5q0 -88 -45 -151.5t-131 -88.5l194 -338h-188zM920 975h-152v-195h152q145 0 145 97q0 49 -32.5 73.5t-112.5 24.5zM174 721q0 309 217 527t527 218q311 0 528 -217t217 -528q0 -309 -218 -526.5 t-527.5 -217.5t-526.5 217.5t-217 526.5zM297 721q0 -256 182.5 -438.5t438.5 -182.5t438 182.5t182 438.5q0 258 -182 441.5t-438 183.5t-438.5 -183.5t-182.5 -441.5z" />
<glyph unicode="&#xb0;" horiz-adv-x="888" d="M776 1202q0 -139 -96 -235.5t-238 -96.5q-143 0 -239.5 94.5t-96.5 237.5q0 141 97.5 237.5t238.5 96.5q139 0 236.5 -97.5t97.5 -236.5zM625 1202q0 80 -51.5 133.5t-129.5 53.5q-80 0 -132 -53.5t-52 -133.5t52.5 -132t131.5 -52q72 0 126.5 53t54.5 131z" />
<glyph unicode="&#xb1;" horiz-adv-x="1261" d="M1182 772v-190h-447v-355h445v-190h-1100v190h448v355h-448v190h448v424h207v-424h447z" />
<glyph unicode="&#xb2;" horiz-adv-x="964" d="M913 911q0 -41 -9 -82t-19.5 -73.5t-36.5 -74.5l-43 -69q-16 -27 -59.5 -70.5t-62.5 -65t-76 -70.5l-76 -66l-86 -72q-67 -55 -85 -71h553v-197h-874v197l186 153l167 136q56 46 126 111t102.5 109t56 98t23.5 107q0 104 -64.5 173t-201.5 69q-90 0 -184 -31.5 t-156 -77.5l-61 189q168 117 401 117q199 0 339 -116t140 -323z" />
<glyph unicode="&#xb3;" horiz-adv-x="970" d="M340 606v182h78q258 0 258 182.5t-242 182.5q-170 0 -315 -106l-64 192q61 35 105.5 54.5t118 38t155.5 18.5q215 0 335 -101.5t120 -277.5q0 -184 -174 -279q86 -45 140 -121.5t54 -179.5q0 -193 -126 -302t-349 -109q-213 0 -399 118l63 193q143 -115 336 -115 q139 0 200.5 53.5t61.5 161.5q0 92 -67.5 153.5t-210.5 61.5h-78z" />
<glyph unicode="&#xb4;" horiz-adv-x="616" d="M289 1815h198l-206 -279h-154z" />
<glyph unicode="&#xb5;" horiz-adv-x="1079" d="M971 1012v-1012h-176l-27 125q-78 -143 -244 -143q-150 0 -213 96v-557h-202v1491h202v-535q0 -303 227.5 -303t227.5 303v535h205z" />
<glyph unicode="&#xb6;" horiz-adv-x="1097" d="M989 1489v-1690h-166v1518h-172v-1518h-164v781q-188 23 -301.5 147.5t-113.5 312.5q0 213 138 331t394 118h385z" />
<glyph unicode="&#xb7;" horiz-adv-x="458" d="M98 512q0 55 38 93t93.5 38t93 -38t37.5 -93t-37.5 -93t-93 -38t-93.5 38t-38 93z" />
<glyph unicode="&#xb8;" horiz-adv-x="524" d="M178 51h107l-27 -125q78 8 129 -32.5t49 -114.5q-2 -82 -61.5 -130t-135 -49t-147.5 21l2 109q35 -25 121 -18t86 65q0 53 -64.5 65.5t-109.5 -6.5z" />
<glyph unicode="&#xb9;" horiz-adv-x="598" d="M6 1135v196h486v-1331h-213v1135h-273z" />
<glyph unicode="&#xba;" horiz-adv-x="1036" d="M760 506q0 166 -49 250t-192.5 84t-193 -84t-49.5 -250t49.5 -250t193 -84t192.5 84t49 250zM72 506q0 526 446.5 526t446.5 -526t-446.5 -526t-446.5 526z" />
<glyph unicode="&#xbb;" horiz-adv-x="1089" d="M295 82h-191l330 430l-330 430h191l330 -430zM688 82h-188l329 430l-329 430h188l330 -430z" />
<glyph unicode="&#xbc;" horiz-adv-x="2294" d="M1300 485l380 846h224l-381 -846h481v519h213v-1004h-213v289h-704v196zM1153 1489h172l-649 -1675h-168zM6 1135v196h486v-1331h-213v1135h-273z" />
<glyph unicode="&#xbd;" horiz-adv-x="2198" d="M2147 911q0 -41 -9 -82t-19.5 -73.5t-36.5 -74.5l-43 -69q-16 -27 -59.5 -70.5t-62.5 -65t-76 -70.5l-76 -66l-86 -72q-67 -55 -85 -71h553v-197h-874v197l186 153l167 136q56 46 126 111t102.5 109t56 98t23.5 107q0 104 -64.5 173t-201.5 69q-90 0 -184 -31.5 t-156 -77.5l-61 189q168 117 401 117q199 0 339 -116t140 -323zM1153 1489h172l-649 -1675h-168zM6 1135v196h486v-1331h-213v1135h-273z" />
<glyph unicode="&#xbe;" horiz-adv-x="2666" d="M1672 485l380 846h224l-381 -846h481v519h213v-1004h-213v289h-704v196zM1525 1489h172l-649 -1675h-168zM340 606v182h78q258 0 258 182.5t-242 182.5q-170 0 -315 -106l-64 192q61 35 105.5 54.5t118 38t155.5 18.5q215 0 335 -101.5t120 -277.5q0 -184 -174 -279 q86 -45 140 -121.5t54 -179.5q0 -193 -126 -302t-349 -109q-213 0 -399 118l63 193q143 -115 336 -115q139 0 200.5 53.5t61.5 161.5q0 92 -67.5 153.5t-210.5 61.5h-78z" />
<glyph unicode="&#xbf;" horiz-adv-x="997" d="M809 915q0 -55 -39 -94t-94 -39q-53 0 -92 39t-39 94q0 53 39 92.5t92 39.5q55 0 94 -39.5t39 -92.5zM74 63q0 68 22.5 127.5t52 98.5t80 75.5t84.5 56.5l86 46l25 12q145 72 145 168h213q0 -199 -237 -323q-20 -12 -69.5 -37t-74 -41.5t-56.5 -43t-45 -61.5t-13 -78 q0 -98 68.5 -149t191.5 -51q174 0 289 63l63 -188q-152 -72 -352 -72q-209 0 -341 104.5t-132 292.5z" />
<glyph unicode="&#xc0;" horiz-adv-x="1196" d="M997 0l-118 315h-562l-118 -315h-217l507 1331h218l507 -1331h-217zM598 1059l-209 -547h416zM557 1536l-199 279h191l158 -279h-150z" />
<glyph unicode="&#xc1;" horiz-adv-x="1196" d="M997 0l-118 315h-562l-118 -315h-217l507 1331h218l507 -1331h-217zM598 1059l-209 -547h416zM651 1815h199l-207 -279h-154z" />
<glyph unicode="&#xc2;" horiz-adv-x="1196" d="M997 0l-118 315h-562l-118 -315h-217l507 1331h218l507 -1331h-217zM598 1059l-209 -547h416zM326 1536l186 279h170l188 -279h-153l-117 186h-4l-119 -186h-151z" />
<glyph unicode="&#xc3;" horiz-adv-x="1196" d="M997 0l-118 315h-562l-118 -315h-217l507 1331h218l507 -1331h-217zM598 1059l-209 -547h416zM244 1542q0 281 217 281q51 0 91 -25.5t61.5 -57.5t51 -57.5t62.5 -25.5q96 0 96 160h129q0 -281 -217 -281q-51 0 -91 25.5t-61.5 57.5t-51 57.5t-62.5 25.5q-96 0 -96 -160 h-129z" />
<glyph unicode="&#xc4;" horiz-adv-x="1196" d="M997 0l-118 315h-562l-118 -315h-217l507 1331h218l507 -1331h-217zM598 1059l-209 -547h416zM219 1663q0 53 38 90t89 37q53 0 90 -37t37 -90t-37 -90t-90 -37q-51 0 -89 37t-38 90zM723 1663q0 53 38 90t89 37q53 0 90 -37t37 -90t-38 -90t-89 -37t-89 37t-38 90z" />
<glyph unicode="&#xc5;" horiz-adv-x="1196" d="M997 0l-118 315h-562l-118 -315h-217l507 1331h218l507 -1331h-217zM598 1059l-209 -547h416zM598 1536q-76 0 -126 43t-50 116.5t50 118t126 44.5q74 0 125 -44.5t51 -118t-51 -116.5t-125 -43zM598 1614q37 0 59.5 23.5t22.5 58.5q0 37 -22.5 60.5t-59.5 23.5 q-39 0 -61.5 -23.5t-22.5 -60.5q0 -35 23.5 -58.5t60.5 -23.5z" />
<glyph unicode="&#xc6;" horiz-adv-x="1765" d="M0 0l483 1331h1250v-196h-719v-334h637v-199h-637v-405h719v-197h-932v397h-441l-143 -397h-217zM629 1135l-197 -541h369v541h-172z" />
<glyph unicode="&#xc7;" horiz-adv-x="1073" d="M283 723v-115q0 -434 364 -434q96 0 189.5 35t136.5 76l63 -193q-166 -115 -389 -115q-31 0 -80 5l-12 -56q78 8 129 -32.5t49 -114.5q-4 -82 -62.5 -130t-134 -49t-147.5 21l2 109q35 -25 121 -18t86 65q0 53 -64.5 65.5t-109.5 -6.5l37 164q-182 47 -285.5 197.5 t-103.5 410.5v115q0 319 155.5 473t419.5 154q199 0 389 -111l-63 -192q-156 106 -326 106q-364 0 -364 -430z" />
<glyph unicode="&#xc8;" horiz-adv-x="1046" d="M319 602v-405h693v-197h-903v1331h903v-196h-693v-334h611v-199h-611zM528 1536l-198 279h190l158 -279h-150z" />
<glyph unicode="&#xc9;" horiz-adv-x="1046" d="M319 602v-405h693v-197h-903v1331h903v-196h-693v-334h611v-199h-611zM629 1815h196l-204 -279h-154z" />
<glyph unicode="&#xca;" horiz-adv-x="1046" d="M319 602v-405h693v-197h-903v1331h903v-196h-693v-334h611v-199h-611zM301 1536l186 279h170l189 -279h-154l-117 186h-4l-118 -186h-152z" />
<glyph unicode="&#xcb;" horiz-adv-x="1046" d="M319 602v-405h693v-197h-903v1331h903v-196h-693v-334h611v-199h-611zM195 1663q0 53 37.5 90t89 37t89.5 -37t38 -90t-38 -90t-89.5 -37t-89 37t-37.5 90zM698 1663q0 53 38 90t89.5 37t89 -37t37.5 -90t-37.5 -90t-89 -37t-89.5 37t-38 90z" />
<glyph unicode="&#xcc;" horiz-adv-x="428" d="M109 0v1331h210v-1331h-210zM147 1536l-198 279h190l158 -279h-150z" />
<glyph unicode="&#xcd;" horiz-adv-x="428" d="M109 0v1331h210v-1331h-210zM293 1815h199l-207 -279h-154z" />
<glyph unicode="&#xce;" horiz-adv-x="428" d="M109 0v1331h210v-1331h-210zM-59 1536l186 279h172l188 -279h-153l-119 186h-4l-117 -186h-153z" />
<glyph unicode="&#xcf;" horiz-adv-x="428" d="M109 0v1331h210v-1331h-210zM-164 1663q0 53 37 90t90 37q51 0 88 -37t37 -90t-37 -90t-88 -37q-53 0 -90 37t-37 90zM340 1663q0 53 37 90t90 37q51 0 88 -37t37 -90q0 -51 -37 -89t-88 -38q-53 0 -90 37t-37 90z" />
<glyph unicode="&#xd0;" horiz-adv-x="1212" d="M156 0v606h-166v164h166v561h411q573 0 574 -602v-127q0 -602 -574 -602h-411zM930 602v127q0 219 -91 312.5t-272 93.5h-198v-365h174v-164h-174v-409h198q180 0 271.5 93t91.5 312z" />
<glyph unicode="&#xd1;" horiz-adv-x="1202" d="M109 0v1331h204l568 -934v934h213v-1331h-205l-570 932v-932h-210zM246 1542q0 281 217 281q51 0 91 -25.5t61.5 -57.5t51 -57.5t62.5 -25.5q96 0 96 160h129q0 -281 -217 -281q-51 0 -91 25.5t-61.5 57.5t-51 57.5t-62.5 25.5q-96 0 -96 -160h-129z" />
<glyph unicode="&#xd2;" horiz-adv-x="1210" d="M926 608v113q0 432 -320 432q-322 0 -321 -432v-113q0 -434 321 -434q320 0 320 434zM72 608v113q0 324 144 476.5t390 152.5t389.5 -153t143.5 -476v-113q0 -324 -143.5 -477.5t-389.5 -153.5t-390 153.5t-144 477.5zM537 1536l-201 279h190l158 -279h-147z" />
<glyph unicode="&#xd3;" horiz-adv-x="1210" d="M926 608v113q0 432 -320 432q-322 0 -321 -432v-113q0 -434 321 -434q320 0 320 434zM72 608v113q0 324 144 476.5t390 152.5t389.5 -153t143.5 -476v-113q0 -324 -143.5 -477.5t-389.5 -153.5t-390 153.5t-144 477.5zM655 1815h199l-207 -279h-153z" />
<glyph unicode="&#xd4;" horiz-adv-x="1210" d="M926 608v113q0 432 -320 432q-322 0 -321 -432v-113q0 -434 321 -434q320 0 320 434zM72 608v113q0 324 144 476.5t390 152.5t389.5 -153t143.5 -476v-113q0 -324 -143.5 -477.5t-389.5 -153.5t-390 153.5t-144 477.5zM332 1536l186 279h172l189 -279h-154l-117 186h-4 l-119 -186h-153z" />
<glyph unicode="&#xd5;" horiz-adv-x="1210" d="M926 608v113q0 432 -320 432q-322 0 -321 -432v-113q0 -434 321 -434q320 0 320 434zM72 608v113q0 324 144 476.5t390 152.5t389.5 -153t143.5 -476v-113q0 -324 -143.5 -477.5t-389.5 -153.5t-390 153.5t-144 477.5zM252 1542q0 281 217 281q51 0 91 -25.5t61.5 -57.5 t51 -57.5t62.5 -25.5q96 0 96 160h130q0 -281 -218 -281q-51 0 -91 25.5t-61.5 57.5t-51 57.5t-62.5 25.5q-98 0 -98 -160h-127z" />
<glyph unicode="&#xd6;" horiz-adv-x="1210" d="M926 608v113q0 432 -320 432q-322 0 -321 -432v-113q0 -434 321 -434q320 0 320 434zM72 608v113q0 324 144 476.5t390 152.5t389.5 -153t143.5 -476v-113q0 -324 -143.5 -477.5t-389.5 -153.5t-390 153.5t-144 477.5zM227 1663q0 53 38 90t89.5 37t89 -37t37.5 -90 t-37.5 -90t-89 -37t-89.5 37t-38 90zM731 1663q0 53 38 90t89 37t89 -37t38 -90t-38 -90t-89 -37t-89 37t-38 90z" />
<glyph unicode="&#xd7;" horiz-adv-x="1345" d="M674 803l420 424l141 -142l-424 -421l426 -420l-143 -144l-422 424l-422 -424l-141 142l423 422l-423 421l141 142z" />
<glyph unicode="&#xd8;" horiz-adv-x="1210" d="M72 608v113q0 324 144 476.5t390 152.5t389.5 -153t143.5 -476v-113q0 -324 -143.5 -477.5t-389.5 -153.5t-390 153.5t-144 477.5zM926 608v113q0 252 -115 354l-289 -887q35 -14 84 -14q320 0 320 434zM285 608q0 -238 96 -344l283 883q-29 6 -58 6q-322 0 -321 -432 v-113z" />
<glyph unicode="&#xd9;" horiz-adv-x="1208" d="M90 614v717h213v-717q0 -440 301 -440t301 440v717h211v-717q0 -328 -137 -482.5t-374.5 -154.5t-376 154.5t-138.5 482.5zM535 1536l-201 279h190l158 -279h-147z" />
<glyph unicode="&#xda;" horiz-adv-x="1208" d="M90 614v717h213v-717q0 -440 301 -440t301 440v717h211v-717q0 -328 -137 -482.5t-374.5 -154.5t-376 154.5t-138.5 482.5zM686 1815h197l-205 -279h-154z" />
<glyph unicode="&#xdb;" horiz-adv-x="1208" d="M90 614v717h213v-717q0 -440 301 -440t301 440v717h211v-717q0 -328 -137 -482.5t-374.5 -154.5t-376 154.5t-138.5 482.5zM330 1536l186 279h172l189 -279h-154l-117 186h-4l-119 -186h-153z" />
<glyph unicode="&#xdc;" horiz-adv-x="1208" d="M90 614v717h213v-717q0 -440 301 -440t301 440v717h211v-717q0 -328 -137 -482.5t-374.5 -154.5t-376 154.5t-138.5 482.5zM225 1663q0 53 37 90t90.5 37t90 -37t36.5 -90t-36.5 -90t-90 -37t-90.5 37t-37 90zM729 1663q0 53 37 90t90 37t90 -37t37 -90t-37 -90t-90 -37 t-90 37t-37 90z" />
<glyph unicode="&#xdd;" horiz-adv-x="1230" d="M1231 1331l-508 -815v-516h-213v512l-510 819h240l376 -622l375 622h240zM698 1815h197l-205 -279h-153z" />
<glyph unicode="&#xde;" horiz-adv-x="1153" d="M109 0v1434h210v-205h277q258 0 378 -109.5t120 -302t-120 -301t-378 -108.5h-277v-408h-210zM596 1032h-277v-426h277q154 0 219.5 53.5t65.5 157.5q0 106 -65.5 160.5t-219.5 54.5z" />
<glyph unicode="&#xdf;" horiz-adv-x="1089" d="M1018 330q0 -174 -118 -263.5t-322 -89.5q-88 0 -152 25v209q66 -37 160 -37q217 0 217 133q0 53 -53.5 90t-117 58.5t-116.5 78t-53 146.5q0 68 40 120t87 78.5t87 64.5t40 81q0 131 -168 131q-121 0 -175.5 -74.5t-54.5 -240.5v-840h-210v831q0 518 446 519 q174 0 275.5 -88t101.5 -240q0 -66 -26.5 -116t-64.5 -79.5t-76 -52t-64.5 -46t-26.5 -50.5q0 -29 54 -58.5t117.5 -56t118 -88t54.5 -145.5z" />
<glyph unicode="&#xe0;" horiz-adv-x="983" d="M432 1147l-201 278h191l158 -278h-148zM905 662v-662h-176l-24 125q-74 -143 -273 -143q-176 0 -282.5 84t-106.5 253q0 307 494 332l163 8v29q0 152 -239 152q-164 0 -311 -64l-60 185q188 72 385 71.5t313.5 -88t116.5 -282.5zM700 389v111l-163 -8q-55 -2 -95.5 -9.5 t-90.5 -24t-76.5 -52t-26.5 -87.5q0 -154 227 -153q100 0 162.5 54t62.5 169z" />
<glyph unicode="&#xe1;" horiz-adv-x="983" d="M541 1425h198l-207 -278h-153zM905 662v-662h-176l-24 125q-74 -143 -273 -143q-176 0 -282.5 84t-106.5 253q0 307 494 332l163 8v29q0 152 -239 152q-164 0 -311 -64l-60 185q188 72 385 71.5t313.5 -88t116.5 -282.5zM700 389v111l-163 -8q-55 -2 -95.5 -9.5 t-90.5 -24t-76.5 -52t-26.5 -87.5q0 -154 227 -153q100 0 162.5 54t62.5 169z" />
<glyph unicode="&#xe2;" horiz-adv-x="983" d="M227 1147l187 278h172l188 -278h-153l-117 186h-4l-119 -186h-154zM905 662v-662h-176l-24 125q-74 -143 -273 -143q-176 0 -282.5 84t-106.5 253q0 307 494 332l163 8v29q0 152 -239 152q-164 0 -311 -64l-60 185q188 72 385 71.5t313.5 -88t116.5 -282.5zM700 389v111 l-163 -8q-55 -2 -95.5 -9.5t-90.5 -24t-76.5 -52t-26.5 -87.5q0 -154 227 -153q100 0 162.5 54t62.5 169z" />
<glyph unicode="&#xe3;" horiz-adv-x="983" d="M145 1153q0 281 217 281q51 0 91.5 -26t62 -57.5t51 -57t62.5 -25.5q96 0 96 159h129q0 -281 -217 -280q-51 0 -91 25.5t-61.5 57.5t-51.5 57.5t-62 25.5q-96 0 -97 -160h-129zM905 662v-662h-176l-24 125q-74 -143 -273 -143q-176 0 -282.5 84t-106.5 253q0 307 494 332 l163 8v29q0 152 -239 152q-164 0 -311 -64l-60 185q188 72 385 71.5t313.5 -88t116.5 -282.5zM700 389v111l-163 -8q-55 -2 -95.5 -9.5t-90.5 -24t-76.5 -52t-26.5 -87.5q0 -154 227 -153q100 0 162.5 54t62.5 169z" />
<glyph unicode="&#xe4;" horiz-adv-x="983" d="M121 1274q0 53 37 90t90 37q51 0 88 -37t37 -90t-37 -90t-88 -37q-53 0 -90 37t-37 90zM625 1274q0 53 36.5 90t90.5 37q51 0 88 -37t37 -90q0 -51 -37 -89t-88.5 -38t-89 37t-37.5 90zM905 662v-662h-176l-24 125q-74 -143 -273 -143q-176 0 -282.5 84t-106.5 253 q0 307 494 332l163 8v29q0 152 -239 152q-164 0 -311 -64l-60 185q188 72 385 71.5t313.5 -88t116.5 -282.5zM700 389v111l-163 -8q-55 -2 -95.5 -9.5t-90.5 -24t-76.5 -52t-26.5 -87.5q0 -154 227 -153q100 0 162.5 54t62.5 169z" />
<glyph unicode="&#xe5;" horiz-adv-x="983" d="M498 1147q-74 0 -125 43t-51 116.5t51 117.5t125 44q76 0 126 -44t50 -117.5t-50 -116.5t-126 -43zM498 1225q37 0 60.5 23.5t23.5 58.5q0 37 -22.5 60.5t-61.5 23.5q-37 0 -59.5 -24t-22.5 -60q0 -35 22.5 -58.5t59.5 -23.5zM905 662v-662h-176l-24 125 q-74 -143 -273 -143q-176 0 -282.5 84t-106.5 253q0 307 494 332l163 8v29q0 152 -239 152q-164 0 -311 -64l-60 185q188 72 385 71.5t313.5 -88t116.5 -282.5zM700 389v111l-163 -8q-55 -2 -95.5 -9.5t-90.5 -24t-76.5 -52t-26.5 -87.5q0 -154 227 -153q100 0 162.5 54 t62.5 169z" />
<glyph unicode="&#xe6;" horiz-adv-x="1656" d="M1591 530v-102h-682v-14q2 -117 76 -179.5t203 -62.5q201 0 321 51l60 -182q-168 -61 -381 -61q-262 0 -369 180q-98 -178 -387 -178q-172 0 -280.5 81.5t-108.5 253.5q0 309 489 334l168 8v27q0 86 -61 120t-178 34q-164 0 -311 -64l-60 185q193 72 385 71 q236 0 346 -119q113 119 318 119q452 0 452 -502zM700 387v113l-163 -8q-135 -6 -212 -44t-77 -131q0 -78 64.5 -114.5t162.5 -36.5q104 0 164.5 56t60.5 165zM909 604v-20h471v12q0 244 -241 244q-104 0 -167 -59.5t-63 -176.5z" />
<glyph unicode="&#xe7;" horiz-adv-x="905" d="M72 506q0 238 117.5 382t367.5 144q160 0 301 -90l-57 -178q-106 76 -244 76q-154 0 -217.5 -83t-63.5 -251q0 -160 76 -247t226 -87q137 0 241 59l58 -176q-129 -76 -299 -75q-29 0 -78 4l-13 -58q78 8 129.5 -32.5t49.5 -114.5q-2 -82 -61.5 -130t-135.5 -49t-147 21 l2 109q35 -25 120.5 -18t85.5 65q0 53 -64.5 65.5t-109.5 -6.5l39 170q-158 49 -240.5 182.5t-82.5 317.5z" />
<glyph unicode="&#xe8;" horiz-adv-x="1028" d="M440 1147l-200 278h192l158 -278h-150zM963 528v-100h-682v-8q0 -121 74.5 -184.5t209.5 -63.5q188 0 316 51l59 -182q-166 -61 -375 -61q-494 0 -493.5 526t444.5 526q211 0 329 -123t118 -381zM281 596v-12h471v12q0 244 -235.5 244t-235.5 -244z" />
<glyph unicode="&#xe9;" horiz-adv-x="1028" d="M592 1425h199l-207 -278h-154zM963 528v-100h-682v-8q0 -121 74.5 -184.5t209.5 -63.5q188 0 316 51l59 -182q-166 -61 -375 -61q-494 0 -493.5 526t444.5 526q211 0 329 -123t118 -381zM281 596v-12h471v12q0 244 -235.5 244t-235.5 -244z" />
<glyph unicode="&#xea;" horiz-adv-x="1028" d="M238 1147l186 278h170l188 -278h-153l-117 186h-4l-119 -186h-151zM963 528v-100h-682v-8q0 -121 74.5 -184.5t209.5 -63.5q188 0 316 51l59 -182q-166 -61 -375 -61q-494 0 -493.5 526t444.5 526q211 0 329 -123t118 -381zM281 596v-12h471v12q0 244 -235.5 244 t-235.5 -244z" />
<glyph unicode="&#xeb;" horiz-adv-x="1028" d="M131 1274q0 53 37 90t90 37t90 -37t37 -90t-37 -90t-90 -37t-90 37t-37 90zM635 1274q0 53 37 90t90 37t90 -37t37 -90t-37 -90t-90 -37t-90 37t-37 90zM963 528v-100h-682v-8q0 -121 74.5 -184.5t209.5 -63.5q188 0 316 51l59 -182q-166 -61 -375 -61q-494 0 -493.5 526 t444.5 526q211 0 329 -123t118 -381zM281 596v-12h471v12q0 244 -235.5 244t-235.5 -244z" />
<glyph unicode="&#xec;" horiz-adv-x="430" d="M113 0v1012h204v-1012h-204zM170 1147l-201 278h191l157 -278h-147z" />
<glyph unicode="&#xed;" horiz-adv-x="430" d="M113 0v1012h204v-1012h-204zM274 1425h199l-207 -278h-153z" />
<glyph unicode="&#xee;" horiz-adv-x="430" d="M113 0v1012h204v-1012h-204zM-57 1147l186 278h172l188 -278h-153l-117 186h-4l-119 -186h-153z" />
<glyph unicode="&#xef;" horiz-adv-x="430" d="M113 0v1012h204v-1012h-204zM-162 1274q0 53 38 90t89 37t89 -37t38 -90t-38 -90t-89 -37t-89 37t-38 90zM342 1274q0 53 38 90t89 37t89 -37t38 -90t-38 -90t-89 -37t-89 37t-38 90z" />
<glyph unicode="&#xf0;" horiz-adv-x="1062" d="M285 1026l196 197q-123 61 -301 77l56 185q211 -23 389 -119l137 137l94 -96l-121 -119q125 -102 190.5 -247.5t65.5 -399.5q0 -147 -22.5 -260t-76.5 -208t-156.5 -145.5t-250.5 -50.5q-186 0 -302.5 110t-116.5 327q0 205 120.5 307t313.5 102q156 0 272 -51 q-12 244 -176 375l-217 -217zM506 641q-98 0 -164 -53t-66 -174t61.5 -180.5t154.5 -59.5q162 0 221 102.5t59 303.5q-119 61 -266 61z" />
<glyph unicode="&#xf1;" d="M174 1153q0 281 217 281q51 0 91 -26t61.5 -57.5t50.5 -57t61 -25.5q98 0 99 159h129q0 -281 -217 -280q-51 0 -92.5 25.5t-61.5 57.5t-50 57.5t-63 25.5q-98 0 -98 -160h-127zM109 0v1012h176l26 -131q94 152 314 151q150 0 248 -103.5t98 -320.5v-608h-203v594 q0 133 -52 189.5t-153 56.5q-119 0 -185.5 -67.5t-66.5 -237.5v-535h-202z" />
<glyph unicode="&#xf2;" horiz-adv-x="1036" d="M467 1147l-199 278h191l157 -278h-149zM760 506q0 166 -49 250t-192.5 84t-193 -84t-49.5 -250t49.5 -250t193 -84t192.5 84t49 250zM72 506q0 526 446.5 526t446.5 -526t-446.5 -526t-446.5 526z" />
<glyph unicode="&#xf3;" horiz-adv-x="1036" d="M614 1425h197l-205 -278h-153zM760 506q0 166 -49 250t-192.5 84t-193 -84t-49.5 -250t49.5 -250t193 -84t192.5 84t49 250zM72 506q0 526 446.5 526t446.5 -526t-446.5 -526t-446.5 526z" />
<glyph unicode="&#xf4;" horiz-adv-x="1036" d="M260 1147l186 278h170l189 -278h-154l-116 186h-5l-118 -186h-152zM760 506q0 166 -49 250t-192.5 84t-193 -84t-49.5 -250t49.5 -250t193 -84t192.5 84t49 250zM72 506q0 526 446.5 526t446.5 -526t-446.5 -526t-446.5 526z" />
<glyph unicode="&#xf5;" horiz-adv-x="1036" d="M178 1155q0 281 217 281q66 0 111 -42t80 -83t76 -41q96 0 96 160h129q0 -281 -217 -281q-51 0 -91 25.5t-61.5 56.5t-51.5 56.5t-63 25.5q-98 0 -98 -158h-127zM760 506q0 166 -49 250t-192.5 84t-193 -84t-49.5 -250t49.5 -250t193 -84t192.5 84t49 250zM72 506 q0 526 446.5 526t446.5 -526t-446.5 -526t-446.5 526z" />
<glyph unicode="&#xf6;" horiz-adv-x="1036" d="M154 1274q0 53 37.5 90t89 37t89.5 -37t38 -90t-38 -90t-89.5 -37t-89 37t-37.5 90zM657 1274q0 53 38 90t89.5 37t89 -37t37.5 -90t-37.5 -90t-89 -37t-89.5 37t-38 90zM760 506q0 166 -49 250t-192.5 84t-193 -84t-49.5 -250t49.5 -250t193 -84t192.5 84t49 250z M72 506q0 526 446.5 526t446.5 -526t-446.5 -526t-446.5 526z" />
<glyph unicode="&#xf7;" horiz-adv-x="1284" d="M510 266q0 55 39 94t94 39q53 0 92 -40t39 -93t-39 -92t-92 -39q-55 0 -94 39t-39 92zM510 1028q0 53 39 92t94 39q53 0 92 -39t39 -92t-39 -93t-92 -40q-55 0 -94 39t-39 94zM1192 741v-188h-1100v188h1100z" />
<glyph unicode="&#xf8;" horiz-adv-x="1036" d="M72 506q0 526 446.5 526t446.5 -526t-446.5 -526t-446.5 526zM760 506q0 203 -72 274l-235 -604q18 -4 65 -4q143 0 192.5 84t49.5 250zM276 506q0 -205 72 -277l232 605q-27 6 -62 6q-143 0 -192.5 -84t-49.5 -250z" />
<glyph unicode="&#xf9;" d="M451 1147l-199 278h190l158 -278h-149zM952 1012v-1012h-176l-26 131q-94 -152 -314 -151q-150 0 -248 103t-98 320v609h203v-594q0 -133 52 -189.5t153 -56.5q119 0 185.5 67.5t66.5 237.5v535h202z" />
<glyph unicode="&#xfa;" d="M602 1425h199l-207 -278h-154zM952 1012v-1012h-176l-26 131q-94 -152 -314 -151q-150 0 -248 103t-98 320v609h203v-594q0 -133 52 -189.5t153 -56.5q119 0 185.5 67.5t66.5 237.5v535h202z" />
<glyph unicode="&#xfb;" d="M254 1147l186 278h170l191 -278h-154l-119 186h-4l-118 -186h-152zM952 1012v-1012h-176l-26 131q-94 -152 -314 -151q-150 0 -248 103t-98 320v609h203v-594q0 -133 52 -189.5t153 -56.5q119 0 185.5 67.5t66.5 237.5v535h202z" />
<glyph unicode="&#xfc;" d="M141 1274q0 53 38 90t89 37q53 0 90 -37t37 -90t-36.5 -90t-90.5 -37q-51 0 -89 37t-38 90zM645 1274q0 53 38 90t89 37q53 0 90 -37t37 -90t-38 -90t-89 -37t-89 38t-38 89zM952 1012v-1012h-176l-26 131q-94 -152 -314 -151q-150 0 -248 103t-98 320v609h203v-594 q0 -133 52 -189.5t153 -56.5q119 0 185.5 67.5t66.5 237.5v535h202z" />
<glyph unicode="&#xfd;" d="M602 1425h199l-207 -278h-154zM952 1012v-1080q0 -221 -119.5 -331.5t-324.5 -110.5q-225 0 -389 90l61 180q135 -78 328 -77q240 0 240 249v197q-92 -150 -312 -149q-150 0 -248 103t-98 320v609h203v-594q0 -133 52 -189.5t153 -56.5q117 0 184.5 68.5t67.5 240.5v531 h202z" />
<glyph unicode="&#xfe;" horiz-adv-x="1071" d="M109 -512v1946h204v-553q37 76 113 113.5t170 37.5q209 0 306 -145.5t97 -376.5t-95 -380.5t-308 -149.5t-283 145v-637h-204zM553 840q-141 0 -190.5 -87t-49.5 -251q0 -160 49.5 -245t190.5 -85q63 0 109.5 19.5t72 49t38.5 77t17.5 90.5t4.5 102q0 170 -51.5 250 t-190.5 80z" />
<glyph unicode="&#xff;" d="M143 1274q0 53 37 90t90.5 37t90 -37t36.5 -90t-36.5 -90t-90 -37t-90.5 37t-37 90zM647 1274q0 53 37 90t90 37t90 -37t37 -90t-37 -90t-90 -37t-90 37t-37 90zM952 1012v-1080q0 -221 -119.5 -331.5t-324.5 -110.5q-225 0 -389 90l61 180q135 -78 328 -77 q240 0 240 249v197q-92 -150 -312 -149q-150 0 -248 103t-98 320v609h203v-594q0 -133 52 -189.5t153 -56.5q117 0 184.5 68.5t67.5 240.5v531h202z" />
<glyph unicode="&#x152;" horiz-adv-x="1863" d="M72 608v113q0 324 144 476.5t390 152.5q201 0 320 -111v92h903v-196h-690v-334h608v-199h-608v-405h690v-197h-903v88q-119 -111 -320 -111q-246 0 -390 153.5t-144 477.5zM926 608v135q-8 410 -320 410q-322 0 -321 -432v-113q0 -434 321 -434q320 0 320 434z" />
<glyph unicode="&#x153;" horiz-adv-x="1716" d="M1651 528v-100h-682v-8q0 -121 74.5 -184.5t209.5 -63.5q188 0 316 51l59 -182q-166 -61 -375 -61q-266 0 -387 149q-111 -150 -348 -149q-446 0 -446 526t446 526q227 0 342 -143q111 143 344 143q211 0 329 -123t118 -381zM518 172q137 0 189.5 81t52.5 253 q0 78 -8.5 131t-32 103.5t-73.5 75t-128 24.5q-143 0 -192.5 -84t-49.5 -250t49.5 -250t192.5 -84zM969 596v-12h471v12q0 244 -235.5 244t-235.5 -244z" />
<glyph unicode="&#x178;" horiz-adv-x="1230" d="M1231 1331l-508 -815v-516h-213v512l-510 819h240l376 -622l375 622h240zM238 1663q0 53 36.5 90t90 37t90.5 -37t37 -90t-37 -90t-90.5 -37t-90 37t-36.5 90zM741 1663q0 53 37 90t90.5 37t90 -37t36.5 -90t-36.5 -90t-90 -37t-90.5 37t-37 90z" />
<glyph unicode="&#x2c6;" horiz-adv-x="884" d="M168 1536l186 279h172l189 -279h-154l-117 186h-4l-118 -186h-154z" />
<glyph unicode="&#x2dc;" horiz-adv-x="1036" d="M164 1542q0 281 217 281q51 0 91 -25.5t61.5 -57.5t51 -57.5t62.5 -25.5q96 0 96 160h129q0 -281 -217 -281q-51 0 -91 25.5t-61.5 57.5t-51 57.5t-62.5 25.5q-96 0 -96 -160h-129z" />
<glyph unicode="&#x2000;" horiz-adv-x="929" />
<glyph unicode="&#x2001;" horiz-adv-x="1858" />
<glyph unicode="&#x2002;" horiz-adv-x="929" />
<glyph unicode="&#x2003;" horiz-adv-x="1858" />
<glyph unicode="&#x2004;" horiz-adv-x="619" />
<glyph unicode="&#x2005;" horiz-adv-x="464" />
<glyph unicode="&#x2006;" horiz-adv-x="309" />
<glyph unicode="&#x2007;" horiz-adv-x="309" />
<glyph unicode="&#x2008;" horiz-adv-x="232" />
<glyph unicode="&#x2009;" horiz-adv-x="371" />
<glyph unicode="&#x200a;" horiz-adv-x="103" />
<glyph unicode="&#x2010;" horiz-adv-x="696" d="M651 606v-188h-606v188h606z" />
<glyph unicode="&#x2011;" horiz-adv-x="696" d="M651 606v-188h-606v188h606z" />
<glyph unicode="&#x2012;" horiz-adv-x="696" d="M651 606v-188h-606v188h606z" />
<glyph unicode="&#x2013;" horiz-adv-x="1144" d="M90 547v188h963v-188h-963z" />
<glyph unicode="&#x2014;" horiz-adv-x="1525" d="M90 508v154h1346v-154h-1346z" />
<glyph unicode="&#x2018;" horiz-adv-x="483" d="M379 1100q0 -53 -39 -92t-92 -39q-74 0 -108 57t-31 139q2 96 51 208t157 171q23 -20 66 -63q-117 -104 -125 -250q53 -4 87 -42t34 -89z" />
<glyph unicode="&#x2019;" horiz-adv-x="483" d="M106 1411q0 55 38 94t94 39q72 0 105.5 -57t31.5 -139q-2 -96 -50.5 -208t-156.5 -171l-66 61q113 109 125 252q-53 2 -87 40t-34 89z" />
<glyph unicode="&#x201a;" horiz-adv-x="458" d="M80 111q0 55 39 93t94 38q72 0 105.5 -56.5t31.5 -140.5q-2 -96 -51 -206.5t-158 -170.5l-63 62q49 45 84 113.5t39 138.5q-51 2 -86 40t-35 89z" />
<glyph unicode="&#x201c;" horiz-adv-x="856" d="M752 1100q0 -53 -39 -92t-92 -39q-74 0 -108 57t-32 139q2 96 51.5 208t157.5 171l66 -63q-117 -104 -125 -250q53 -4 87 -42t34 -89zM379 1100q0 -53 -39 -92t-92 -39q-74 0 -108 57t-31 139q2 96 51 208t157 171q23 -20 66 -63q-117 -104 -125 -250q53 -4 87 -42 t34 -89z" />
<glyph unicode="&#x201d;" horiz-adv-x="856" d="M106 1411q0 55 38 94t94 39q72 0 105.5 -57t31.5 -139q-2 -96 -50.5 -208t-156.5 -171l-66 61q113 109 125 252q-53 2 -87 40t-34 89zM477 1411q0 55 39 94t94 39q72 0 106 -57t32 -139q-2 -96 -50.5 -208t-156.5 -171l-66 61q115 111 123 252q-51 2 -86 40t-35 89z" />
<glyph unicode="&#x201e;" horiz-adv-x="831" d="M453 111q0 55 38.5 93t92.5 38q74 0 107.5 -56.5t31.5 -140.5q-2 -96 -51 -206.5t-158 -170.5l-65 62q51 45 85.5 112.5t38.5 139.5q-51 2 -85.5 40t-34.5 89zM80 111q0 55 39 93t94 38q72 0 105.5 -56.5t31.5 -140.5q-2 -96 -51 -206.5t-158 -170.5l-63 62 q49 45 84 113.5t39 138.5q-51 2 -86 40t-35 89z" />
<glyph unicode="&#x2022;" horiz-adv-x="659" d="M575 651q0 -90 -67.5 -157.5t-178 -67.5t-177 67.5t-66.5 157.5t67.5 159t176.5 69q106 0 175.5 -69t69.5 -159z" />
<glyph unicode="&#x2026;" horiz-adv-x="1742" d="M1376 110.5q0 55.5 38 93.5t93.5 38t93 -38t37.5 -93.5t-37.5 -93t-93 -37.5t-93.5 37.5t-38 93zM739 110.5q0 55.5 39 93.5t94 38q53 0 92.5 -38t39.5 -93.5t-39 -93t-93 -37.5q-55 0 -94 37.5t-39 93zM104 110.5q0 55.5 38 93.5t93.5 38t93.5 -38t38 -93.5t-38 -93 t-93.5 -37.5t-93.5 37.5t-38 93z" />
<glyph unicode="&#x202f;" horiz-adv-x="371" />
<glyph unicode="&#x2039;" horiz-adv-x="686" d="M614 289v-195l-542 412v82l542 409v-194l-376 -258z" />
<glyph unicode="&#x203a;" horiz-adv-x="686" d="M72 94v195l374 256l-374 258v194l542 -409v-82z" />
<glyph unicode="&#x2044;" horiz-adv-x="636" d="M555 1489h172l-649 -1675h-168z" />
<glyph unicode="&#x205f;" horiz-adv-x="464" />
<glyph unicode="&#x20ac;" horiz-adv-x="1286" d="M459 715v-101v-41h555v-149h-527q66 -250 349 -250q102 0 198 35t142 76l73 -185q-188 -123 -413 -123q-227 0 -377 110t-195 337h-223v149h205v41v101v28h-205v148h221q41 236 191.5 347.5t382.5 111.5q223 0 413 -121l-73 -182q-160 106 -340 106q-289 0 -353 -262h531 v-148h-555v-28z" />
<glyph unicode="&#x2122;" horiz-adv-x="1896" d="M1786 1331v-817h-160v678l-203 -678h-143l-209 678v-678h-162v817h271l174 -596l170 596h262zM735 1331v-145h-250v-672h-161v672h-250v145h661z" />
<glyph unicode="&#xe000;" horiz-adv-x="1010" d="M0 1010h1010v-1010h-1010v1010z" />
<glyph unicode="&#xfb01;" horiz-adv-x="1099" d="M109 0v1077q0 377 364 377q145 0 266 -57l-61 -183q-94 47 -205 48q-162 0 -162 -183v-67h361v-193h-361v-819h-202zM784 0v1012h205v-1012h-205zM760 1319q0 53 37 90t90 37t90 -37t37 -90q0 -51 -37 -88t-90 -37t-90 37t-37 88z" />
<glyph unicode="&#xfb02;" horiz-adv-x="1198" d="M109 0v1077q0 377 364 377q145 0 266 -57l-61 -183q-94 47 -205 48q-162 0 -162 -183v-67h361v-193h-361v-819h-202zM780 338v1096h203v-1096q0 -162 88 -162q39 0 72 17l59 -181q-80 -29 -158 -28q-264 0 -264 354z" />
<glyph unicode="&#xfb03;" horiz-adv-x="1772" d="M1455 0v1012h204v-1012h-204zM1430 1319q0 53 37 90t90 37t90 -37t37 -90q0 -51 -37 -88t-90 -37t-90 37t-37 88zM780 0v1077q0 377 364 377q145 0 266 -57l-61 -183q-94 47 -205 48q-162 0 -162 -183v-67h361v-193h-361v-819h-202zM109 0v1077q0 377 364 377 q145 0 266 -57l-61 -183q-94 47 -205 48q-162 0 -162 -183v-67h361v-193h-361v-819h-202z" />
<glyph unicode="&#xfb04;" horiz-adv-x="1866" d="M1451 338v1096h202v-1096q0 -162 88 -162q39 0 72 17l59 -181q-80 -29 -157 -28q-264 0 -264 354zM780 0v1077q0 377 364 377q145 0 266 -57l-61 -183q-94 47 -205 48q-162 0 -162 -183v-67h361v-193h-361v-819h-202zM109 0v1077q0 377 364 377q145 0 266 -57l-61 -183 q-94 47 -205 48q-162 0 -162 -183v-67h361v-193h-361v-819h-202z" />
</font>
</defs>
</svg>
