<?xml version="1.0" standalone="no"?>
<!DOCTYPE svg PUBLIC "-//W3C//DTD SVG 1.1//EN" "http://www.w3.org/Graphics/SVG/1.1/DTD/svg11.dtd" >
<svg xmlns="http://www.w3.org/2000/svg">
<metadata>
This is a custom SVG webfont generated by Fontspring.
</metadata>
<defs>
<font id="AccordRegular" horiz-adv-x="1042" >
<font-face units-per-em="2048" ascent="1536" descent="-512" />
<missing-glyph horiz-adv-x="417" />
<glyph unicode=" "  horiz-adv-x="417" />
<glyph unicode="&#x09;" horiz-adv-x="417" />
<glyph unicode="&#xa0;" horiz-adv-x="417" />
<glyph unicode="!" horiz-adv-x="610" d="M223 1331h168v-497q0 -84 -12 -251t-12 -249h-121q0 82 -11.5 249t-11.5 251v497zM188 98q0 49 34 83t83 34q47 0 81 -34t34 -83q0 -47 -34 -80.5t-81 -33.5q-49 0 -83 33.5t-34 80.5z" />
<glyph unicode="&#x22;" horiz-adv-x="587" d="M371 1053l-4 428h125l-3 -428h-118zM98 1053l-2 428h125l-4 -428h-119z" />
<glyph unicode="#" horiz-adv-x="1447" d="M772 0l82 332h-422l-84 -332h-147l82 332h-279v133h313l109 434h-330v131h363l82 318h149l-82 -318h422l82 318h150l-82 -318h260v-131h-293l-109 -434h310v-133h-344l-84 -332h-148zM575 899l-108 -434h422l108 434h-422z" />
<glyph unicode="$" horiz-adv-x="985" d="M55 88l51 160q111 -78 263.5 -99.5t267.5 31.5t115 174q0 72 -50.5 120t-125 72.5t-162.5 58.5t-163 71t-125 115.5t-50 191.5q0 152 89 240t232 114v314h164v-305q197 -14 326 -105l-51 -160q-98 76 -235.5 99.5t-242 -25.5t-104.5 -164q0 -90 69.5 -145t169 -87 t199 -69t169 -117.5t69.5 -207.5q0 -166 -103.5 -261.5t-265.5 -117.5v-305h-164v301q-209 12 -342 106z" />
<glyph unicode="%" horiz-adv-x="2095" d="M825 895q0 -225 -94 -340t-262 -115q-166 0 -261 116t-95 339t96 339t260 116q168 0 262 -116t94 -339zM655 895q0 293 -186 293q-184 0 -184 -293q0 -162 45 -227.5t139 -65.5t140 65.5t46 227.5zM1980 436q0 -225 -94 -339.5t-262 -114.5q-166 0 -261 115.5t-95 338.5 t96 339t260 116q168 0 262 -116t94 -339zM1810 436q0 293 -186 293q-184 0 -184 -293q0 -162 45 -227.5t139 -65.5t140 65.5t46 227.5zM1298 1331h191l-694 -1331h-189z" />
<glyph unicode="&#x26;" horiz-adv-x="1214" d="M1206 631h-200v-168q0 -258 -129 -370.5t-336 -112.5q-115 0 -216.5 37.5t-175 130t-73.5 223.5q0 248 231 338q-186 82 -186 301q0 145 120.5 242.5t299.5 97.5q176 0 313 -76l-72 -146q-115 57 -243 58q-106 0 -173 -55.5t-67 -137.5q0 -217 244 -217h284v232h179v-232 h200v-145zM256 381q0 -125 86 -182.5t199 -57.5q57 0 102 12.5t90 44t69.5 98t24.5 167.5v168h-284q-127 0 -207 -64.5t-80 -185.5z" />
<glyph unicode="'" horiz-adv-x="319" d="M98 1053l-2 428h127l-4 -428h-121z" />
<glyph unicode="(" horiz-adv-x="747" d="M117 512q0 317 105.5 568t334.5 456l105 -94q-188 -150 -297 -385.5t-109 -544.5t108.5 -543.5t297.5 -386.5l-105 -94q-229 205 -334.5 456t-105.5 568z" />
<glyph unicode=")" horiz-adv-x="747" d="M629 512q0 -317 -105.5 -568t-335.5 -456l-102 94q188 152 297 386.5t109 543.5q0 307 -110 543.5t-296 386.5l102 94q229 -205 335 -456t106 -568z" />
<glyph unicode="*" horiz-adv-x="964" d="M549 1518l-8 -308l288 105l41 -127l-292 -90l186 -240l-109 -80l-174 252l-172 -250l-110 78l186 242l-291 88l41 127l287 -103l-8 306h135z" />
<glyph unicode="+" horiz-adv-x="1282" d="M1184 743v-153h-461v-434h-166v434h-459v153h459v437h166v-437h461z" />
<glyph unicode="," horiz-adv-x="442" d="M90 98q0 47 34 81t83 34q68 0 96.5 -53.5t24.5 -128.5q-4 -92 -49.5 -196.5t-139.5 -160.5l-59 56q113 102 123 254q-49 2 -81 34.5t-32 79.5z" />
<glyph unicode="-" horiz-adv-x="706" d="M655 588v-154h-606v154h606z" />
<glyph unicode="." horiz-adv-x="452" d="M111 98q0 47 33.5 81t80.5 34q49 0 83 -34t34 -81q0 -49 -34 -82.5t-83 -33.5q-47 0 -80.5 33.5t-33.5 82.5z" />
<glyph unicode="/" horiz-adv-x="622" d="M496 1536h141l-514 -1597h-139z" />
<glyph unicode="0" horiz-adv-x="1097" d="M844 631v69q0 264 -76 375t-219 111q-145 0 -221 -110.5t-76 -375.5v-69q0 -264 75.5 -375t221.5 -111q143 0 219 111t76 375zM74 631v69q0 649 475 650q473 0 473 -650v-69q0 -649 -473 -649q-475 0 -475 649z" />
<glyph unicode="1" horiz-adv-x="571" d="M8 1167v164h449v-1331h-176v1167h-273z" />
<glyph unicode="2" horiz-adv-x="935" d="M881 928q0 -61 -14.5 -118.5t-53.5 -119t-69.5 -104.5t-99.5 -111l-102 -99q-34 -32 -122 -109l-119 -103h580v-164h-842v164l179 155l166 143q56 48 128 118.5t105.5 120t59 109.5t25.5 118q0 111 -68.5 184.5t-207.5 73.5q-197 0 -342 -107l-51 158q168 113 393 113 q188 0 321.5 -112.5t133.5 -309.5z" />
<glyph unicode="3" horiz-adv-x="958" d="M344 621v153h78q270 0 270 203q0 209 -262 209q-170 0 -317 -105l-54 160q193 109 371 109q213 0 326.5 -100.5t113.5 -272.5q0 -195 -182 -285q203 -100 203 -307q0 -190 -121 -296.5t-340 -106.5q-207 0 -391 112l53 160q145 -109 338 -109q150 0 216.5 59.5 t66.5 180.5q0 100 -72 168t-219 68h-78z" />
<glyph unicode="4" horiz-adv-x="1048" d="M78 471l387 860h186l-387 -860h524v533h177v-1004h-177v307h-710v164z" />
<glyph unicode="5" horiz-adv-x="974" d="M109 645v686h770v-164h-594v-358h131q244 0 374 -106.5t130 -303.5q0 -205 -127 -311t-340 -106q-127 0 -215 24.5t-185 87.5l51 156q152 -104 340 -105q297 0 297 248q0 150 -93 201t-316 51h-223z" />
<glyph unicode="6" horiz-adv-x="1030" d="M551 817q186 0 304 -102.5t118 -298.5q0 -217 -114 -325.5t-298 -108.5q-141 0 -239.5 50t-150.5 144t-73.5 206t-21.5 259q0 356 123 532.5t387 176.5q215 0 377 -115l-52 -156q-143 106 -331 107q-322 0 -322 -428q131 59 293 59zM547 666q-154 0 -289 -68 q0 -221 63.5 -337t235.5 -116q106 0 173 65.5t67 205.5q0 129 -73 189.5t-177 60.5z" />
<glyph unicode="7" horiz-adv-x="942" d="M362 0h-188l547 1167h-688v164h876v-164z" />
<glyph unicode="8" horiz-adv-x="1062" d="M530 1350q188 0 308 -104.5t120 -250.5q0 -197 -170 -284q102 -41 159 -128t57 -200q0 -170 -126 -285.5t-347.5 -115.5t-347.5 115.5t-126 285.5q0 111 57.5 199t159.5 129q-172 88 -172 284q0 145 119 250t309 105zM236 393q0 -115 77.5 -182.5t217 -67.5t217 68 t77.5 182q0 109 -77.5 174.5t-217 65.5t-217 -65.5t-77.5 -174.5zM281 975q0 -92 66.5 -145.5t182.5 -53.5q119 0 185.5 53.5t66.5 145.5q0 86 -65.5 148.5t-186 62.5t-185 -61.5t-64.5 -149.5z" />
<glyph unicode="9" horiz-adv-x="1030" d="M477 516q-184 0 -303 101.5t-119 295.5q0 217 115 327t297 110q141 0 239.5 -50.5t150.5 -144.5t73.5 -205.5t21.5 -259.5q0 -358 -122.5 -533t-391.5 -175q-213 0 -372 112l51 158q141 -106 327 -107q326 0 326 430q-127 -59 -293 -59zM481 666q154 0 289 67 q0 221 -63.5 337t-235.5 116q-106 0 -172 -66.5t-66 -206.5q0 -127 72 -187t176 -60z" />
<glyph unicode=":" horiz-adv-x="452" d="M111 98q0 47 33.5 81t80.5 34q49 0 83 -34t34 -81q0 -49 -34 -82.5t-83 -33.5q-47 0 -80.5 33.5t-33.5 82.5zM111 926q0 47 33.5 80.5t80.5 33.5q49 0 83 -33.5t34 -80.5t-34 -82t-83 -35q-47 0 -80.5 34t-33.5 83z" />
<glyph unicode=";" horiz-adv-x="450" d="M106 926q0 47 34 80.5t81 33.5q49 0 83 -33.5t34 -80.5t-34 -82t-83 -35q-47 0 -81 34t-34 83zM106 98q0 47 34 81t81 34q68 0 96.5 -52t26.5 -130q-4 -92 -49 -196.5t-141 -160.5l-58 56q51 45 85 114.5t36 139.5q-49 2 -80 34.5t-31 79.5z" />
<glyph unicode="&#x3c;" horiz-adv-x="1146" d="M1061 231v-149l-977 534v93l977 538v-151l-787 -432z" />
<glyph unicode="=" horiz-adv-x="1169" d="M1071 487v-122h-973v122h973zM1071 969v-123h-973v123h973z" />
<glyph unicode="&#x3e;" horiz-adv-x="1146" d="M84 82v149l788 433l-788 432v151l977 -538v-93z" />
<glyph unicode="?" horiz-adv-x="954" d="M176 98q0 49 34 83t83 34q47 0 81 -34t34 -83q0 -47 -34 -80.5t-81 -33.5q-49 0 -83 33.5t-34 80.5zM877 967q0 -80 -27 -144.5t-84 -114t-93 -72t-110 -61.5q-18 -10 -26 -14q-78 -47 -117 -95t-39 -118h-176q0 205 235 346l71 38q52 28 74.5 43.5t55.5 45t46 65.5 t13 81q0 106 -72.5 162.5t-193.5 56.5q-186 0 -297 -53l-51 157q143 59 348 60q193 0 318 -100.5t125 -282.5z" />
<glyph unicode="@" horiz-adv-x="2299" d="M2013 637q0 215 -64.5 368.5t-186.5 240.5t-276.5 126t-355.5 39q-401 0 -622 -216t-221 -660q0 -909 862 -922q354 -4 717 108l39 -124q-377 -113 -756 -109q-215 2 -390 59.5t-315.5 176t-218.5 324.5t-78 487q2 481 253 741t730 260q227 0 406.5 -47t321 -149.5 t217 -279.5t75.5 -423q0 -662 -409 -662q-223 0 -281 199q-31 -86 -121 -142.5t-225 -56.5q-424 0 -424 539q0 96 22.5 182t75 169t152.5 132.5t238 49.5q215 0 383 -111v-578q0 -137 42 -197.5t138 -60.5q272 0 272 537zM1423 475v375q-111 72 -245 72q-98 0 -170 -35 t-109 -95.5t-53.5 -129t-16.5 -148.5v-64q0 -17 5.5 -71.5t14.5 -82.5t29.5 -71t50 -66.5t78 -41t107.5 -17.5q309 0 309 375z" />
<glyph unicode="A" horiz-adv-x="1193" d="M1014 0l-131 344h-572l-131 -344h-180l506 1331h182l506 -1331h-180zM596 1102l-225 -594h450z" />
<glyph unicode="B" horiz-adv-x="1157" d="M113 1331h460q246 0 362 -98t116 -262q0 -195 -181 -283q221 -84 222 -315q0 -172 -119 -272.5t-369 -100.5h-491v1331zM604 604h-313v-440h313q309 0 309 219q0 221 -309 221zM573 1167h-282v-409h282q299 0 299 203q0 206 -299 206z" />
<glyph unicode="C" horiz-adv-x="1056" d="M254 731v-131q0 -457 383 -457q98 0 193.5 34t138.5 73l51 -160q-162 -111 -383 -110q-258 0 -409.5 151.5t-151.5 468.5v131q0 315 151.5 467t409.5 152q195 0 383 -109l-51 -160q-160 104 -332 105q-383 0 -383 -455z" />
<glyph unicode="D" horiz-adv-x="1146" d="M113 0v1331h407q260 0 405.5 -143.5t145.5 -448.5v-147q0 -307 -145.5 -449.5t-405.5 -142.5h-407zM893 592v147q0 229 -94 328.5t-279 99.5h-229v-1003h229q184 0 278.5 99.5t94.5 328.5z" />
<glyph unicode="E" horiz-adv-x="1028" d="M291 618v-454h698v-164h-876v1331h876v-164h-698v-385h616v-164h-616z" />
<glyph unicode="F" horiz-adv-x="999" d="M291 618v-618h-178v1331h866v-164h-688v-385h606v-164h-606z" />
<glyph unicode="G" horiz-adv-x="1126" d="M600 565v154h451v-623q-182 -117 -404 -116q-264 0 -417.5 151.5t-153.5 468.5v131q0 315 154.5 467t416.5 152q84 0 162 -18.5t120 -37t111 -53.5l-51 -160q-164 104 -342 105q-393 0 -393 -455v-131q0 -457 393 -457q121 0 225 43v379h-272z" />
<glyph unicode="H" horiz-adv-x="1183" d="M291 618v-618h-178v1331h178v-549h602v549h178v-1331h-178v618h-602z" />
<glyph unicode="I" horiz-adv-x="403" d="M113 0v1331h178v-1331h-178z" />
<glyph unicode="J" horiz-adv-x="849" d="M737 1331v-911q0 -440 -385 -440q-164 0 -323 77l51 160q121 -74 262 -74q109 0 163 57.5t54 219.5v747h-434v164h612z" />
<glyph unicode="K" horiz-adv-x="1069" d="M332 696l485 635h211l-485 -635l526 -696h-211zM113 0v1331h178v-1331h-178z" />
<glyph unicode="L" horiz-adv-x="925" d="M113 0v1331h178v-1167h616v-164h-794z" />
<glyph unicode="M" horiz-adv-x="1400" d="M113 0v1331h174l413 -672l414 672h174v-1331h-178v1016l-410 -666l-409 666v-1016h-178z" />
<glyph unicode="N" horiz-adv-x="1183" d="M113 0v1331h174l606 -1003v1003h178v-1331h-174l-606 1001v-1001h-178z" />
<glyph unicode="O" horiz-adv-x="1193" d="M938 600v129q0 457 -342 457t-342 -457v-129q0 -457 342 -457t342 457zM76 600v129q0 317 140 469t380 152t380 -151.5t140 -469.5v-129q0 -319 -140 -469.5t-380 -150.5t-380 150.5t-140 469.5z" />
<glyph unicode="P" horiz-adv-x="1110" d="M113 1331h471q252 0 369.5 -113.5t117.5 -310t-117.5 -309.5t-369.5 -113h-293v-485h-178v1331zM584 1167h-293v-518h293q166 0 237.5 65.5t71.5 192.5t-71.5 193.5t-237.5 66.5z" />
<glyph unicode="Q" horiz-adv-x="1193" d="M223 -246v164q63 57 145 58h5q78 0 153 -28l156 -60q75 -29 153 -28h6q81 1 144 58v-164q-63 -57 -144 -58h-6q-78 0 -153 29l-156 59q-75 29 -153 29h-5q-82 -2 -145 -59zM938 600v129q0 457 -342 457t-342 -457v-129q0 -457 342 -457t342 457zM76 600v129 q0 317 140 469t380 152t380 -151.5t140 -469.5v-129q0 -319 -140 -469.5t-380 -150.5t-380 150.5t-140 469.5z" />
<glyph unicode="R" horiz-adv-x="1165" d="M963 0l-353 537h-319v-537h-178v1331h471q252 0 369.5 -105.5t117.5 -291.5q0 -291 -280 -367l374 -567h-202zM584 1167h-293v-467h293q309 0 309 234q0 115 -71.5 174t-237.5 59z" />
<glyph unicode="S" horiz-adv-x="985" d="M55 88l51 160q111 -78 264 -100q44 -6 84 -6q101 0 183 38q115 53 115 174q0 72 -50.5 120t-125 72.5t-162.5 58.5t-163 71t-125 115.5t-50 191.5q0 150 92 242t221 113q59 10 120 10q72 0 146 -14q137 -26 232 -93l-51 -160q-98 76 -236 100q-44 8 -85 7q-86 0 -157 -33 q-104 -49 -104 -164q0 -90 69.5 -145t169 -87t199 -69t169 -117.5t69.5 -207.5q0 -156 -98.5 -253.5t-236.5 -120.5q-66 -11 -135 -12q-75 0 -153 14q-150 25 -252 95z" />
<glyph unicode="T" horiz-adv-x="1095" d="M37 1167v164h1022v-164h-422v-1167h-178v1167h-422z" />
<glyph unicode="U" horiz-adv-x="1189" d="M96 604v727h176v-727q0 -461 324 -461q322 0 322 461v727h176v-727q0 -322 -134.5 -473t-363.5 -151q-231 0 -365.5 151t-134.5 473z" />
<glyph unicode="V" horiz-adv-x="1146" d="M1147 1331l-483 -1331h-181l-483 1331h180l393 -1102l394 1102h180z" />
<glyph unicode="W" horiz-adv-x="1800" d="M989 1331l311 -1059l314 1059h178l-401 -1331h-179l-313 1036l-311 -1036h-178l-402 1331h178l312 -1059l313 1059h178z" />
<glyph unicode="X" horiz-adv-x="1130" d="M244 1331l319 -493l324 493h203l-424 -635l464 -696h-202l-365 553l-360 -553h-203l463 696l-422 635h203z" />
<glyph unicode="Y" horiz-adv-x="1196" d="M1196 1331l-508 -815v-516h-178v512l-510 819h199l399 -651l397 651h201z" />
<glyph unicode="Z" d="M61 1167v164h918v-143l-731 -1024h772v-164h-1000v143l732 1024h-691z" />
<glyph unicode="[" horiz-adv-x="702" d="M588 -387v-125h-416v2048h416v-125h-279v-1798h279z" />
<glyph unicode="\" horiz-adv-x="624" d="M-16 1536h141l514 -1597h-137z" />
<glyph unicode="]" horiz-adv-x="702" d="M113 -512v125h278v1798h-278v125h417v-2048h-417z" />
<glyph unicode="^" horiz-adv-x="1118" d="M616 1454l406 -833h-154l-311 677l-311 -680h-150l404 836h116z" />
<glyph unicode="_" horiz-adv-x="1021" d="M1012 -18v-134h-1004v134h1004z" />
<glyph unicode="`" horiz-adv-x="581" d="M324 1536l-191 279h158l158 -279h-125z" />
<glyph unicode="a" horiz-adv-x="964" d="M879 662v-662h-142l-22 131q-72 -147 -283 -147q-176 0 -281.5 83t-105.5 248q0 301 479 326l187 12v29q0 182 -258 182q-164 0 -312 -63l-49 153q190 70 371 70q190 0 303 -86t113 -276zM711 385v135l-187 -12q-61 -4 -104 -11.5t-96.5 -26.5t-82 -58t-28.5 -97 q0 -92 68.5 -135t181 -43t180.5 58.5t68 189.5z" />
<glyph unicode="b" horiz-adv-x="1058" d="M115 0v1434h168v-566q72 156 295 156q111 0 191.5 -42t125.5 -118t65.5 -166t20.5 -198q0 -242 -99.5 -380t-303.5 -138q-223 0 -297 159l-23 -141h-143zM547 141q147 0 205.5 86t58.5 273q0 80 -9 137t-35 113.5t-81 85t-139 28.5q-156 0 -210 -93t-54 -267 q0 -180 57 -271.5t207 -91.5z" />
<glyph unicode="c" horiz-adv-x="888" d="M78 502q0 233 109.5 377.5t359.5 144.5q154 0 293 -90l-47 -148q-115 78 -246 78q-168 0 -233.5 -92t-65.5 -270q0 -166 76.5 -263.5t242.5 -97.5q139 0 244 62l47 -146q-127 -76 -291 -75q-244 0 -366.5 144.5t-122.5 375.5z" />
<glyph unicode="d" horiz-adv-x="1058" d="M944 1434v-1434h-143l-25 141q-74 -160 -297 -159q-205 0 -303 138t-98 380q0 231 94 377.5t307 146.5q225 0 295 -158v568h170zM510 141q150 0 207 91.5t57 271.5q0 174 -54 267t-210 93q-68 0 -117 -20.5t-76.5 -52t-43 -83t-20.5 -98.5t-5 -110q0 -186 57.5 -272.5 t204.5 -86.5z" />
<glyph unicode="e" horiz-adv-x="1011" d="M944 530v-94h-692v-8q0 -287 305 -287q186 0 315 56l50 -150q-164 -66 -365 -65q-479 0 -479 520q0 522 434 522q432 0 432 -494zM252 580v-11h520v11q0 285 -260 285t-260 -285z" />
<glyph unicode="f" horiz-adv-x="661" d="M115 0v1083q0 369 350 369q143 0 258 -59l-51 -152q-98 51 -207 51q-180 0 -180 -207v-79h377v-160h-377v-846h-170z" />
<glyph unicode="g" horiz-adv-x="1058" d="M944 1006v-1078q0 -223 -116.5 -330.5t-321.5 -107.5q-215 0 -381 86l49 148q137 -74 332 -74q133 0 200.5 63.5t67.5 214.5v211q-74 -158 -295 -157q-117 0 -199.5 46t-124.5 125.5t-59.5 164.5t-17.5 186q0 92 16.5 174t57.5 165t124.5 132t202.5 49q221 0 297 -162 l25 144h143zM510 864q-150 0 -206 -93t-56 -267q0 -82 9 -138.5t33.5 -111.5t80 -84t139.5 -29q152 0 208 91.5t56 265.5q0 82 -9 140t-36 113.5t-81 84t-138 28.5z" />
<glyph unicode="h" d="M115 0v1434h168v-570q88 160 311 160q158 0 256 -103.5t98 -324.5v-596h-168v586q0 152 -58 215t-173 63q-266 0 -266 -329v-535h-168z" />
<glyph unicode="i" horiz-adv-x="399" d="M115 0v1006h170v-1006h-170zM92 1335q0 45 32 77t77 32t75.5 -32t30.5 -77t-30.5 -75.5t-75.5 -30.5t-77 30.5t-32 75.5z" />
<glyph unicode="j" horiz-adv-x="407" d="M287 1006v-1180q0 -176 -81 -256t-212 -80q-96 0 -164 41l49 147q53 -29 115 -28q125 0 125 176v1180h168zM94 1335q0 45 32 77t77 32q47 0 77.5 -32t30.5 -77t-31.5 -75.5t-76.5 -30.5t-77 30.5t-32 75.5z" />
<glyph unicode="k" horiz-adv-x="987" d="M324 528l407 478h213l-407 -478l448 -528h-213zM115 0v1434h168v-1434h-168z" />
<glyph unicode="l" horiz-adv-x="501" d="M113 319v1115h170v-1115q0 -174 98 -174q41 0 82 19l49 -150q-76 -29 -152 -28q-247 -1 -247 333z" />
<glyph unicode="m" horiz-adv-x="1589" d="M115 0v1006h143l23 -142q82 160 282 160q205 0 285 -193q98 193 319 193q143 0 233.5 -103.5t90.5 -326.5v-594h-168v584q0 154 -51 217t-150 63q-113 0 -174 -65.5t-61 -227.5v-571h-168v584q0 152 -51.5 216t-149.5 64q-236 0 -235 -329v-535h-168z" />
<glyph unicode="n" d="M115 0v1006h143l23 -142q88 160 313 160q158 0 256 -103.5t98 -326.5v-594h-168v584q0 154 -58 217t-173 63q-266 0 -266 -329v-535h-168z" />
<glyph unicode="o" horiz-adv-x="1024" d="M776 502q0 180 -55 271t-209 91t-209 -91t-55 -271t55 -270.5t209 -90.5t209 90.5t55 270.5zM78 502q0 522 434 522t434 -522q0 -520 -434 -520t-434 520z" />
<glyph unicode="p" horiz-adv-x="1058" d="M115 -512v1518h143l23 -142q74 160 297 160q205 0 304 -138t99 -380q0 -111 -20.5 -201t-65.5 -164.5t-126 -116.5t-191 -42q-223 0 -295 155v-649h-168zM547 864q-150 0 -207 -91t-57 -273q0 -174 54 -266.5t210 -92.5q84 0 139 29t81 85t35 113.5t9 137.5 q0 186 -58.5 272t-205.5 86z" />
<glyph unicode="q" horiz-adv-x="1058" d="M944 1006v-1518h-170v649q-72 -156 -295 -155q-213 0 -307 145t-94 379q0 242 98 380t303 138q223 0 297 -160l25 142h143zM510 864q-147 0 -204.5 -86t-57.5 -272q0 -63 5 -110.5t20.5 -98.5t43 -83t76.5 -52.5t117 -20.5q82 0 136 27t81 79t37 110.5t10 142.5 q0 182 -57 273t-207 91z" />
<glyph unicode="r" horiz-adv-x="684" d="M115 0v1006h143l23 -142q53 162 223 162q113 0 174 -51l-66 -148q-47 39 -131 39q-199 0 -198 -348v-518h-168z" />
<glyph unicode="s" horiz-adv-x="909" d="M76 57l49 152q94 -47 220 -64q42 -5 81 -5q77 0 141 22q96 33 97 112q0 57 -42 91t-104.5 46.5t-135.5 31t-135.5 43t-104.5 88t-42 159.5q0 117 79 189.5t190 91.5q51 9 104 8q62 0 127 -11q121 -22 207 -79l-49 -152q-82 59 -198 78q-43 7 -81 7q-67 0 -122 -20 q-87 -32 -87 -108q0 -57 42 -92t104.5 -46t135.5 -29.5t135.5 -42t104.5 -85t42 -155.5q0 -127 -83 -204t-203 -93q-58 -8 -118 -8q-64 0 -129 9q-127 17 -225 66z" />
<glyph unicode="t" horiz-adv-x="753" d="M113 350v981h170v-325h387v-160h-387v-498q0 -207 176 -207q133 0 227 58l49 -150q-119 -68 -276 -67q-160 0 -253 87.5t-93 280.5z" />
<glyph unicode="u" d="M928 1006v-1006h-144l-22 141q-88 -160 -313 -159q-158 0 -256.5 103t-98.5 327v594h168v-584q0 -154 58.5 -217.5t173.5 -63.5q266 0 266 330v535h168z" />
<glyph unicode="v" horiz-adv-x="1007" d="M176 1006l328 -801l325 801h179l-416 -1006h-176l-416 1006h176z" />
<glyph unicode="w" horiz-adv-x="1589" d="M193 1006l258 -783l258 783h172l258 -783l258 783h174l-344 -1006h-176l-256 743l-256 -743h-177l-344 1006h175z" />
<glyph unicode="x" horiz-adv-x="1021" d="M248 1006l262 -349l262 349h209l-367 -478l408 -528h-209l-303 401l-303 -401h-207l408 528l-367 478h207z" />
<glyph unicode="y" d="M928 1006v-1078q0 -223 -113 -330.5t-313 -107.5q-211 0 -373 86l51 148q131 -74 322 -74q127 0 192.5 63.5t65.5 214.5v211q-86 -158 -311 -157q-158 0 -256.5 103t-98.5 327v594h168v-584q0 -154 58.5 -217.5t173.5 -63.5q125 0 195.5 75t70.5 259v531h168z" />
<glyph unicode="z" horiz-adv-x="944" d="M55 846v160h834v-160l-604 -686h604v-160h-834v160l604 686h-604z" />
<glyph unicode="{" horiz-adv-x="999" d="M129 467v125h80q113 0 171 87t58 249v205q0 193 90 298t238 105h147v-125h-131q-207 0 -207 -324v-198q0 -270 -169 -359q170 -84 169 -358v-235q0 -324 207 -324h131v-125h-147q-143 0 -235.5 105.5t-92.5 297.5v242q0 160 -58 247t-171 87h-80z" />
<glyph unicode="|" horiz-adv-x="485" d="M311 1536v-2048h-137v2048h137z" />
<glyph unicode="}" horiz-adv-x="999" d="M870 592v-125h-82q-113 0 -171 -87t-58 -247v-242q0 -193 -92 -298t-236 -105h-145v125h129q207 0 207 324v235q4 276 170 358q-170 88 -170 359v198q0 324 -207 324h-129v125h145q147 0 237.5 -105.5t90.5 -297.5v-205q0 -162 58.5 -249t170.5 -87h82z" />
<glyph unicode="~" horiz-adv-x="1142" d="M96 408q0 371 273 370q74 0 132 -40t89 -87t77 -87t99 -40q150 0 149 248h132q0 -373 -273 -373q-74 0 -131 40t-86 87t-76 87t-104 40q-150 0 -150 -245h-131z" />
<glyph unicode="&#xa1;" horiz-adv-x="610" d="M391 -356h-168v549q0 82 11.5 248.5t11.5 250.5h121q0 -84 12 -251t12 -248v-549zM188 926q0 49 34 82.5t83 33.5q47 0 81 -33.5t34 -82.5q0 -47 -34 -81t-81 -34q-49 0 -83 34t-34 81z" />
<glyph unicode="&#xa2;" horiz-adv-x="888" d="M78 502q0 467 383 516v313h137v-311q121 -10 242 -86l-47 -148q-115 78 -246 78q-168 0 -233.5 -92t-65.5 -270q0 -166 76.5 -263.5t242.5 -97.5q139 0 244 62l47 -146q-119 -70 -260 -75v-289h-137v297q-193 31 -288 169t-95 343z" />
<glyph unicode="&#xa3;" horiz-adv-x="1005" d="M987 164v-164h-792v573h-177v125h177v168q0 244 101 364t314 120q160 0 299 -74l-47 -150q-104 55 -248 60q-139 2 -191 -78t-52 -264v-146h338v-125h-338v-409h616z" />
<glyph unicode="&#xa4;" horiz-adv-x="1372" d="M688 352q-94 0 -160 39l-278 -278l-115 116l266 265q-49 78 -49 170t47 167l-264 267l115 116l276 -278q68 43 162 43q88 0 158 -41l274 274l115 -114l-260 -260q49 -76 49 -174q0 -102 -51 -175l264 -260l-117 -116l-276 276q-68 -37 -156 -37zM688 465q88 0 144.5 55 t56.5 142q0 92 -55.5 147t-145.5 55q-88 0 -144.5 -55t-56.5 -147q0 -86 56.5 -141.5t144.5 -55.5z" />
<glyph unicode="&#xa5;" horiz-adv-x="1196" d="M1083 584v-125h-395v-154h395v-125h-395v-180h-178v180h-399v125h399v154h-399v125h352l-463 747h199l399 -641l397 641h201l-467 -747h354z" />
<glyph unicode="&#xa6;" horiz-adv-x="448" d="M293 1536v-825h-137v825h137zM293 356v-868h-137v868h137z" />
<glyph unicode="&#xa7;" horiz-adv-x="1101" d="M113 -371l51 160q168 -104 338 -104q129 0 218 55t89 158q0 90 -73.5 142t-239.5 103q-74 25 -128.5 51.5t-112.5 70.5t-90 111.5t-32 153.5q0 188 152 285q-152 104 -152 285q0 184 126 277t327 93q84 0 155.5 -18t109.5 -36.5t93 -53.5l-51 -160q-51 33 -84 50.5 t-98.5 36t-139.5 18.5q-111 0 -185.5 -50.5t-74.5 -146.5q0 -47 19.5 -85t42 -60.5t69.5 -45t73 -31.5t79 -26q393 -113 393 -381q0 -195 -158 -295q158 -109 158 -274q0 -197 -142.5 -294t-352.5 -97q-84 0 -158 17.5t-117 36.5t-104 54zM311 541q0 -45 18.5 -83t42 -61.5 t67.5 -46t73 -33t83 -27.5l73 -24q141 57 141 201q0 51 -25.5 92t-82 72t-110.5 52.5t-145 47.5q-135 -49 -135 -190z" />
<glyph unicode="&#xa8;" horiz-adv-x="946" d="M113 1642.5q0 45.5 31.5 77t76.5 31.5t77 -31.5t32 -77t-32 -76t-77 -30.5t-76.5 30.5t-31.5 76zM616 1642.5q0 45.5 32 77t77 31.5t77 -31.5t32 -77t-32 -76t-77 -30.5t-77 30.5t-32 76z" />
<glyph unicode="&#xa9;" horiz-adv-x="1849" d="M551 705v45q0 201 103.5 301t271.5 100q125 0 241 -74l-18 -55l-21 -66q-90 63 -198 64q-240 0 -240 -277v-43q0 -145 72 -211.5t186 -66.5q111 0 195 51q8 -23 39 -121q-106 -61 -242 -61q-168 0 -278.5 106.5t-110.5 307.5zM180 721q0 309 217 527t526.5 218 t527.5 -217t218 -528q0 -309 -218 -526.5t-527.5 -217.5t-526.5 217.5t-217 526.5zM285 721q0 -264 188.5 -451.5t450.5 -187.5q264 0 451.5 187.5t187.5 451.5t-187.5 452.5t-451.5 188.5q-262 0 -450.5 -188.5t-188.5 -452.5z" />
<glyph unicode="&#xaa;" horiz-adv-x="964" d="M879 662v-662h-142l-22 131q-72 -147 -283 -147q-176 0 -281.5 83t-105.5 248q0 301 479 326l187 12v29q0 182 -258 182q-164 0 -312 -63l-49 153q190 70 371 70q190 0 303 -86t113 -276zM711 385v135l-187 -12q-61 -4 -104 -11.5t-96.5 -26.5t-82 -58t-28.5 -97 q0 -92 68.5 -135t181 -43t180.5 58.5t68 189.5z" />
<glyph unicode="&#xab;" d="M928 82h-158l-330 430l330 430h158l-330 -430zM565 82h-159l-330 430l330 430h159l-329 -430z" />
<glyph unicode="&#xac;" horiz-adv-x="1155" d="M1042 862v-590h-135v467h-831v123h966z" />
<glyph unicode="&#xad;" horiz-adv-x="706" d="M655 588v-154h-606v154h606z" />
<glyph unicode="&#xae;" horiz-adv-x="1849" d="M1102 311l-199 334h-143v-334h-139v819h305q154 0 229.5 -64.5t75.5 -170.5q0 -90 -47 -152.5t-137 -83.5l210 -348h-155zM926 1001h-166v-231h166q166 0 166 115q0 116 -166 116zM180 721q0 309 217 527t526.5 218t527.5 -217t218 -528q0 -309 -218 -526.5 t-527.5 -217.5t-526.5 217.5t-217 526.5zM285 721q0 -264 188.5 -451.5t450.5 -187.5q264 0 451.5 187.5t187.5 451.5t-187.5 452.5t-451.5 188.5q-262 0 -450.5 -188.5t-188.5 -452.5z" />
<glyph unicode="&#xb0;" horiz-adv-x="899" d="M782 1202q0 -139 -96 -235.5t-237 -96.5q-143 0 -239.5 94.5t-96.5 237.5q0 141 97 237.5t239 96.5q139 0 236 -97.5t97 -236.5zM655 1202q0 90 -58 150.5t-148 60.5q-92 0 -150.5 -60.5t-58.5 -150.5t59 -150.5t150 -60.5q82 0 144 61.5t62 149.5z" />
<glyph unicode="&#xb1;" horiz-adv-x="1245" d="M1165 752v-154h-458v-387h456v-154h-1083v154h459v387h-459v154h459v434h168v-434h458z" />
<glyph unicode="&#xb2;" horiz-adv-x="935" d="M881 928q0 -61 -14.5 -118.5t-53.5 -119t-69.5 -104.5t-99.5 -111l-102 -99q-34 -32 -122 -109l-119 -103h580v-164h-842v164l179 155l166 143q56 48 128 118.5t105.5 120t59 109.5t25.5 118q0 111 -68.5 184.5t-207.5 73.5q-197 0 -342 -107l-51 158q168 113 393 113 q188 0 321.5 -112.5t133.5 -309.5z" />
<glyph unicode="&#xb3;" horiz-adv-x="958" d="M344 621v153h78q270 0 270 203q0 209 -262 209q-170 0 -317 -105l-54 160q193 109 371 109q213 0 326.5 -100.5t113.5 -272.5q0 -195 -182 -285q203 -100 203 -307q0 -190 -121 -296.5t-340 -106.5q-207 0 -391 112l53 160q145 -109 338 -109q150 0 216.5 59.5 t66.5 180.5q0 100 -72 168t-219 68h-78z" />
<glyph unicode="&#xb4;" horiz-adv-x="591" d="M295 1815h164l-199 -279h-127z" />
<glyph unicode="&#xb5;" horiz-adv-x="1062" d="M948 1006v-1006h-143l-23 141q-80 -160 -260 -159q-166 0 -239 112v-573h-168v1485h168v-531q0 -334 249 -334q248 0 248 328v537h168z" />
<glyph unicode="&#xb6;" horiz-adv-x="1054" d="M940 1489v-1690h-137v1547h-172v-1547h-139v781q-188 23 -302 147.5t-114 312.5q0 213 138 331t394 118h332z" />
<glyph unicode="&#xb7;" horiz-adv-x="434" d="M100 512q0 47 34 81t83 34q47 0 81 -34t34 -81q0 -49 -34 -83t-81 -34q-49 0 -83 34t-34 83z" />
<glyph unicode="&#xb8;" horiz-adv-x="509" d="M178 51h94l-30 -131q80 10 133 -28.5t51 -114.5q-2 -80 -59.5 -125t-131 -46t-143.5 21l2 94q27 -14 77 -19t95 12.5t45 62.5q0 41 -34.5 58.5t-73.5 15t-78 -12.5z" />
<glyph unicode="&#xb9;" horiz-adv-x="571" d="M8 1167v164h449v-1331h-176v1167h-273z" />
<glyph unicode="&#xba;" horiz-adv-x="1024" d="M776 502q0 180 -55 271t-209 91t-209 -91t-55 -271t55 -270.5t209 -90.5t209 90.5t55 270.5zM78 502q0 522 434 522t434 -522q0 -520 -434 -520t-434 520z" />
<glyph unicode="&#xbb;" horiz-adv-x="1038" d="M268 82h-157l329 430l-329 430h157l330 -430zM633 82h-160l330 430l-330 430h160l330 -430z" />
<glyph unicode="&#xbc;" horiz-adv-x="2243" d="M1273 471l387 860h186l-387 -860h524v533h177v-1004h-177v307h-710v164zM1134 1489h144l-650 -1675h-139zM8 1167v164h449v-1331h-176v1167h-273z" />
<glyph unicode="&#xbd;" horiz-adv-x="2130" d="M2076 928q0 -61 -14.5 -118.5t-53.5 -119t-69.5 -104.5t-99.5 -111l-102 -99q-34 -32 -122 -109l-119 -103h580v-164h-842v164l179 155l166 143q56 48 128 118.5t105.5 120t59 109.5t25.5 118q0 111 -68.5 184.5t-207.5 73.5q-197 0 -342 -107l-51 158q168 113 393 113 q188 0 321.5 -112.5t133.5 -309.5zM1134 1489h144l-650 -1675h-139zM8 1167v164h449v-1331h-176v1167h-273z" />
<glyph unicode="&#xbe;" horiz-adv-x="2630" d="M1660 471l387 860h186l-387 -860h524v533h177v-1004h-177v307h-710v164zM1521 1489h144l-650 -1675h-139zM344 621v153h78q270 0 270 203q0 209 -262 209q-170 0 -317 -105l-54 160q193 109 371 109q213 0 326.5 -100.5t113.5 -272.5q0 -195 -182 -285q203 -100 203 -307 q0 -190 -121 -296.5t-340 -106.5q-207 0 -391 112l53 160q145 -109 338 -109q150 0 216.5 59.5t66.5 180.5q0 100 -72 168t-219 68h-78z" />
<glyph unicode="&#xbf;" horiz-adv-x="989" d="M782 928q0 -49 -33.5 -83t-82.5 -34q-47 0 -81 34t-34 83q0 47 33.5 80.5t81.5 33.5q49 0 82.5 -33.5t33.5 -80.5zM82 55q0 41 6 77t23 68l28 55q12 24 41 49.5t43.5 39.5t51.5 38l49 30q10 6 52 28.5t46 24.5q156 78 156 182h176q0 -190 -236 -315q-16 -10 -69.5 -38 t-76 -43t-55 -45t-46 -67t-13.5 -84q0 -109 72.5 -166t193.5 -57q174 0 297 68l56 -158q-152 -72 -353 -72q-195 0 -318.5 101.5t-123.5 283.5z" />
<glyph unicode="&#xc0;" horiz-adv-x="1167" d="M999 0l-129 344h-573l-129 -344h-182l508 1331h180l508 -1331h-183zM584 1102l-226 -594h449zM549 1536l-191 279h158l158 -279h-125z" />
<glyph unicode="&#xc1;" horiz-adv-x="1167" d="M999 0l-129 344h-573l-129 -344h-182l508 1331h180l508 -1331h-183zM584 1102l-226 -594h449zM655 1815h164l-198 -279h-127z" />
<glyph unicode="&#xc2;" horiz-adv-x="1167" d="M999 0l-129 344h-573l-129 -344h-182l508 1331h180l508 -1331h-183zM584 1102l-226 -594h449zM326 1536l186 279h141l189 -279h-131l-125 197h-4l-127 -197h-129z" />
<glyph unicode="&#xc3;" horiz-adv-x="1167" d="M999 0l-129 344h-573l-129 -344h-182l508 1331h180l508 -1331h-183zM584 1102l-226 -594h449zM238 1542q0 281 208 281q53 0 93.5 -29t61 -63.5t50 -63.5t64.5 -29q104 0 104 179h109q0 -281 -207 -281q-53 0 -93 28.5t-59.5 62.5t-50.5 62.5t-65 28.5q-104 0 -105 -176 h-110z" />
<glyph unicode="&#xc4;" horiz-adv-x="1167" d="M999 0l-129 344h-573l-129 -344h-182l508 1331h180l508 -1331h-183zM584 1102l-226 -594h449zM223 1642.5q0 45.5 32 77t77 31.5t76.5 -31.5t31.5 -77t-31.5 -76t-76.5 -30.5t-77 30.5t-32 76zM727 1642.5q0 45.5 32 77t77 31.5t76.5 -31.5t31.5 -77t-31.5 -76 t-76.5 -30.5t-77 30.5t-32 76z" />
<glyph unicode="&#xc5;" horiz-adv-x="1167" d="M999 0l-129 344h-573l-129 -344h-182l508 1331h180l508 -1331h-183zM584 1102l-226 -594h449zM584 1534q-76 0 -125 45t-49 116.5t49 117t125 45.5q74 0 123 -45.5t49 -117t-49 -116.5t-123 -45zM584 1606q41 0 64.5 25.5t23.5 64.5t-23.5 64.5t-64.5 25.5t-65.5 -25.5 t-24.5 -64.5t24.5 -64.5t65.5 -25.5z" />
<glyph unicode="&#xc6;" horiz-adv-x="1710" d="M0 0l483 1331h1188v-164h-719v-385h637v-164h-637v-454h719v-164h-897v426h-438l-156 -426h-180zM604 1167l-211 -577h381v577h-170z" />
<glyph unicode="&#xc7;" horiz-adv-x="1056" d="M254 731v-131q0 -457 383 -457q98 0 193.5 34t138.5 73l51 -160q-162 -111 -383 -110q-27 0 -80 4l-14 -64q80 10 133 -28.5t51 -114.5q-2 -80 -59.5 -125t-131 -46t-143.5 21l2 94q27 -14 77 -19t95 12.5t45 62.5q0 41 -34.5 58.5t-73.5 15t-76 -12.5l39 160 q-184 43 -287.5 192.5t-103.5 409.5v131q0 315 151.5 467t409.5 152q195 0 383 -109l-51 -160q-160 104 -332 105q-383 0 -383 -455z" />
<glyph unicode="&#xc8;" horiz-adv-x="1028" d="M291 618v-454h698v-164h-876v1331h876v-164h-698v-385h616v-164h-616zM543 1536l-191 279h158l158 -279h-125z" />
<glyph unicode="&#xc9;" horiz-adv-x="1028" d="M291 618v-454h698v-164h-876v1331h876v-164h-698v-385h616v-164h-616zM614 1815h164l-198 -279h-127z" />
<glyph unicode="&#xca;" horiz-adv-x="1028" d="M291 618v-454h698v-164h-876v1331h876v-164h-698v-385h616v-164h-616zM303 1536l186 279h142l188 -279h-131l-125 197h-4l-127 -197h-129z" />
<glyph unicode="&#xcb;" horiz-adv-x="1028" d="M291 618v-454h698v-164h-876v1331h876v-164h-698v-385h616v-164h-616zM201 1642.5q0 45.5 31.5 77t76.5 31.5q47 0 78 -31.5t31 -77t-32 -76t-77 -30.5t-76.5 30.5t-31.5 76zM705 1642.5q0 45.5 31.5 77t76.5 31.5q47 0 78 -31.5t31 -77t-32 -76t-77 -30.5t-76.5 30.5 t-31.5 76z" />
<glyph unicode="&#xcc;" horiz-adv-x="403" d="M113 0v1331h178v-1331h-178zM147 1536l-190 279h158l157 -279h-125z" />
<glyph unicode="&#xcd;" horiz-adv-x="403" d="M113 0v1331h178v-1331h-178zM293 1815h164l-199 -279h-127z" />
<glyph unicode="&#xce;" horiz-adv-x="403" d="M113 0v1331h178v-1331h-178zM-57 1536l186 279h141l191 -279h-131l-127 197h-4l-125 -197h-131z" />
<glyph unicode="&#xcf;" horiz-adv-x="403" d="M113 0v1331h178v-1331h-178zM-158 1642.5q0 45.5 32 77t77 31.5t75.5 -31.5t30.5 -77t-30.5 -76t-75.5 -30.5t-77 30.5t-32 76zM346 1642.5q0 45.5 32 77t77 31.5t75.5 -31.5t30.5 -77t-30.5 -76t-75.5 -30.5t-77 30.5t-32 76z" />
<glyph unicode="&#xd0;" horiz-adv-x="1185" d="M152 0v618h-168v140h168v573h407q260 0 405.5 -143.5t145.5 -448.5v-147q0 -307 -145.5 -449.5t-405.5 -142.5h-407zM932 592v147q0 229 -94.5 328.5t-278.5 99.5h-229v-409h178v-140h-178v-454h229q184 0 278.5 99.5t94.5 328.5z" />
<glyph unicode="&#xd1;" horiz-adv-x="1183" d="M113 0v1331h174l606 -1003v1003h178v-1331h-174l-606 1001v-1001h-178zM246 1542q0 281 209 281q53 0 93 -29t60.5 -63.5t50 -63.5t64.5 -29q104 0 104 179h109q0 -281 -207 -281q-53 0 -93 28.5t-59.5 62.5t-50 62.5t-65.5 28.5q-104 0 -105 -176h-110z" />
<glyph unicode="&#xd2;" horiz-adv-x="1193" d="M938 600v129q0 457 -342 457t-342 -457v-129q0 -457 342 -457t342 457zM76 600v129q0 317 140 469t380 152t380 -151.5t140 -469.5v-129q0 -319 -140 -469.5t-380 -150.5t-380 150.5t-140 469.5zM539 1536l-193 279h158l160 -279h-125z" />
<glyph unicode="&#xd3;" horiz-adv-x="1193" d="M938 600v129q0 457 -342 457t-342 -457v-129q0 -457 342 -457t342 457zM76 600v129q0 317 140 469t380 152t380 -151.5t140 -469.5v-129q0 -319 -140 -469.5t-380 -150.5t-380 150.5t-140 469.5zM668 1815h163l-196 -279h-129z" />
<glyph unicode="&#xd4;" horiz-adv-x="1193" d="M938 600v129q0 457 -342 457t-342 -457v-129q0 -457 342 -457t342 457zM76 600v129q0 317 140 469t380 152t380 -151.5t140 -469.5v-129q0 -319 -140 -469.5t-380 -150.5t-380 150.5t-140 469.5zM338 1536l186 279h142l190 -279h-131l-127 197h-4l-125 -197h-131z" />
<glyph unicode="&#xd5;" horiz-adv-x="1193" d="M938 600v129q0 457 -342 457t-342 -457v-129q0 -457 342 -457t342 457zM76 600v129q0 317 140 469t380 152t380 -151.5t140 -469.5v-129q0 -319 -140 -469.5t-380 -150.5t-380 150.5t-140 469.5zM252 1542q0 281 207 281q53 0 93 -29t60.5 -63.5t50 -63.5t64.5 -29 q104 0 104 179h111q0 -281 -209 -281q-53 0 -93 28.5t-59.5 62.5t-50 62.5t-65.5 28.5q-104 0 -105 -176h-108z" />
<glyph unicode="&#xd6;" horiz-adv-x="1193" d="M938 600v129q0 457 -342 457t-342 -457v-129q0 -457 342 -457t342 457zM76 600v129q0 317 140 469t380 152t380 -151.5t140 -469.5v-129q0 -319 -140 -469.5t-380 -150.5t-380 150.5t-140 469.5zM238 1642.5q0 45.5 30.5 77t77.5 31.5q45 0 76 -31.5t31 -77t-31 -76 t-76 -30.5t-76.5 30.5t-31.5 76zM741 1642.5q0 45.5 31 77t78 31.5q45 0 75.5 -31.5t30.5 -77t-30.5 -76t-75.5 -30.5t-77 30.5t-32 76z" />
<glyph unicode="&#xd7;" horiz-adv-x="1347" d="M674 776l434 436l115 -114l-437 -434l439 -435l-117 -116l-434 436l-436 -436l-115 116l436 435l-436 434l115 116z" />
<glyph unicode="&#xd8;" horiz-adv-x="1193" d="M76 600v129q0 317 140 469t380 152t380 -151.5t140 -469.5v-129q0 -319 -140 -469.5t-380 -150.5t-380 150.5t-140 469.5zM938 600v129q0 285 -139 387l-312 -954q43 -18 109 -19q342 0 342 457zM254 600q0 -264 117 -375l303 951q-41 10 -78 10q-342 0 -342 -457v-129z " />
<glyph unicode="&#xd9;" horiz-adv-x="1189" d="M96 604v727h176v-727q0 -461 324 -461q322 0 322 461v727h176v-727q0 -322 -134.5 -473t-363.5 -151q-231 0 -365.5 151t-134.5 473zM537 1536l-193 279h158l160 -279h-125z" />
<glyph unicode="&#xda;" horiz-adv-x="1189" d="M96 604v727h176v-727q0 -461 324 -461q322 0 322 461v727h176v-727q0 -322 -134.5 -473t-363.5 -151q-231 0 -365.5 151t-134.5 473zM690 1815h164l-199 -279h-127z" />
<glyph unicode="&#xdb;" horiz-adv-x="1189" d="M96 604v727h176v-727q0 -461 324 -461q322 0 322 461v727h176v-727q0 -322 -134.5 -473t-363.5 -151q-231 0 -365.5 151t-134.5 473zM336 1536l186 279h142l190 -279h-131l-127 197h-4l-125 -197h-131z" />
<glyph unicode="&#xdc;" horiz-adv-x="1189" d="M96 604v727h176v-727q0 -461 324 -461q322 0 322 461v727h176v-727q0 -322 -134.5 -473t-363.5 -151q-231 0 -365.5 151t-134.5 473zM236 1642.5q0 45.5 31.5 77t76.5 31.5t76 -31.5t31 -77t-31 -76t-76 -30.5t-76.5 30.5t-31.5 76zM739 1642.5q0 45.5 32 77t77 31.5 t75.5 -31.5t30.5 -77t-30.5 -76t-75.5 -30.5t-77 30.5t-32 76z" />
<glyph unicode="&#xdd;" horiz-adv-x="1196" d="M1196 1331l-508 -815v-516h-178v512l-510 819h199l399 -651l397 651h201zM692 1815h164l-197 -279h-129z" />
<glyph unicode="&#xde;" horiz-adv-x="1128" d="M113 0v1434h178v-205h293q252 0 369.5 -108.5t117.5 -295t-117.5 -294t-369.5 -107.5h-293v-424h-178zM584 1065h-293v-477h293q166 0 237.5 61.5t71.5 175.5q0 117 -71.5 178.5t-237.5 61.5z" />
<glyph unicode="&#xdf;" horiz-adv-x="1064" d="M987 317q0 -166 -112.5 -251.5t-307.5 -85.5q-90 0 -153 24v176q66 -37 159 -37q236 0 236 158q0 51 -35 85t-85 55.5t-101 46t-86 72.5t-35 120q0 70 40 120t88 75.5t88 65.5t40 91q0 154 -184 154q-131 0 -189.5 -81t-58.5 -265v-840h-178v831q0 518 430 519 q168 0 263 -86t95 -234q0 -80 -40 -138t-89 -85t-89 -59.5t-40 -69.5q0 -29 36 -53.5t86 -47t100 -52t86 -83t36 -125.5z" />
<glyph unicode="&#xe0;" horiz-adv-x="964" d="M424 1147l-191 278h158l158 -278h-125zM879 662v-662h-142l-22 131q-72 -147 -283 -147q-176 0 -281.5 83t-105.5 248q0 301 479 326l187 12v29q0 182 -258 182q-164 0 -312 -63l-49 153q190 70 371 70q190 0 303 -86t113 -276zM711 385v135l-187 -12q-61 -4 -104 -11.5 t-96.5 -26.5t-82 -58t-28.5 -97q0 -92 68.5 -135t181 -43t180.5 58.5t68 189.5z" />
<glyph unicode="&#xe1;" horiz-adv-x="964" d="M547 1425h164l-197 -278h-129zM879 662v-662h-142l-22 131q-72 -147 -283 -147q-176 0 -281.5 83t-105.5 248q0 301 479 326l187 12v29q0 182 -258 182q-164 0 -312 -63l-49 153q190 70 371 70q190 0 303 -86t113 -276zM711 385v135l-187 -12q-61 -4 -104 -11.5 t-96.5 -26.5t-82 -58t-28.5 -97q0 -92 68.5 -135t181 -43t180.5 58.5t68 189.5z" />
<glyph unicode="&#xe2;" horiz-adv-x="966" d="M225 1147l187 278h141l188 -278h-131l-125 196h-4l-127 -196h-129zM879 662v-662h-142l-22 131q-72 -147 -283 -147q-176 0 -281.5 83t-105.5 248q0 301 479 326l187 12v29q0 182 -258 182q-164 0 -312 -63l-49 153q190 70 371 70q190 0 303 -86t113 -276zM711 385v135 l-187 -12q-61 -4 -104 -11.5t-96.5 -26.5t-82 -58t-28.5 -97q0 -92 68.5 -135t181 -43t180.5 58.5t68 189.5z" />
<glyph unicode="&#xe3;" horiz-adv-x="966" d="M137 1153q0 281 207 281q53 0 93 -29t60.5 -63.5t50.5 -63.5t64 -29q104 0 105 178h110q0 -281 -209 -280q-53 0 -93 28.5t-59.5 62.5t-50 62.5t-65.5 28.5q-104 0 -104 -176h-109zM879 662v-662h-142l-22 131q-72 -147 -283 -147q-176 0 -281.5 83t-105.5 248 q0 301 479 326l187 12v29q0 182 -258 182q-164 0 -312 -63l-49 153q190 70 371 70q190 0 303 -86t113 -276zM711 385v135l-187 -12q-61 -4 -104 -11.5t-96.5 -26.5t-82 -58t-28.5 -97q0 -92 68.5 -135t181 -43t180.5 58.5t68 189.5z" />
<glyph unicode="&#xe4;" horiz-adv-x="966" d="M121 1253q0 45 31.5 77t76.5 32t77 -32t32 -77t-32 -75.5t-77 -30.5t-76.5 30.5t-31.5 75.5zM625 1253q0 45 31.5 77t76.5 32t77 -32t32 -77t-32 -75.5t-77 -30.5t-76.5 30.5t-31.5 75.5zM879 662v-662h-142l-22 131q-72 -147 -283 -147q-176 0 -281.5 83t-105.5 248 q0 301 479 326l187 12v29q0 182 -258 182q-164 0 -312 -63l-49 153q190 70 371 70q190 0 303 -86t113 -276zM711 385v135l-187 -12q-61 -4 -104 -11.5t-96.5 -26.5t-82 -58t-28.5 -97q0 -92 68.5 -135t181 -43t180.5 58.5t68 189.5z" />
<glyph unicode="&#xe5;" horiz-adv-x="966" d="M481 1147q-76 0 -125 44t-49 116q0 74 49.5 117.5t124.5 43.5q74 0 123 -44t49 -117q0 -72 -49 -116t-123 -44zM481 1219q41 0 64.5 25.5t23.5 62.5q0 39 -23.5 64.5t-64.5 25.5t-65.5 -25.5t-24.5 -64.5q0 -37 24.5 -62.5t65.5 -25.5zM879 662v-662h-142l-22 131 q-72 -147 -283 -147q-176 0 -281.5 83t-105.5 248q0 301 479 326l187 12v29q0 182 -258 182q-164 0 -312 -63l-49 153q190 70 371 70q190 0 303 -86t113 -276zM711 385v135l-187 -12q-61 -4 -104 -11.5t-96.5 -26.5t-82 -58t-28.5 -97q0 -92 68.5 -135t181 -43t180.5 58.5 t68 189.5z" />
<glyph unicode="&#xe6;" horiz-adv-x="1636" d="M1577 530v-94h-692v-8q0 -287 305 -287q186 0 315 56l49 -150q-164 -66 -364 -65q-283 0 -389 192q-59 -96 -142.5 -143t-226.5 -47q-176 0 -281.5 83t-105.5 248q0 72 27.5 128.5t71.5 90t108.5 57t128 34t143.5 16.5l187 12v29q0 182 -258 182q-164 0 -312 -63l-49 153 q190 70 371 70q250 0 350 -137q109 137 332 137q432 0 432 -494zM711 385v135l-187 -12q-61 -4 -104 -11.5t-96.5 -26.5t-82 -58t-28.5 -97q0 -92 68.5 -135t181 -43t180.5 58.5t68 189.5zM885 580v-11h520v11q0 285 -260 285t-260 -285z" />
<glyph unicode="&#xe7;" horiz-adv-x="888" d="M78 502q0 233 109.5 377.5t359.5 144.5q154 0 293 -90l-47 -148q-115 78 -246 78q-168 0 -233.5 -92t-65.5 -270q0 -166 76.5 -263.5t242.5 -97.5q139 0 244 62l47 -146q-127 -76 -291 -75q-27 0 -71 4l-17 -66q80 10 133.5 -28.5t51.5 -114.5q-2 -80 -59.5 -125 t-131.5 -46t-143 21l2 94q27 -14 77 -19t95 12.5t45 62.5q0 41 -35 58.5t-74 15t-75 -12.5l38 164q-162 45 -243.5 179.5t-81.5 320.5z" />
<glyph unicode="&#xe8;" horiz-adv-x="1011" d="M446 1147l-192 278h158l159 -278h-125zM944 530v-94h-692v-8q0 -287 305 -287q186 0 315 56l50 -150q-164 -66 -365 -65q-479 0 -479 520q0 522 434 522q432 0 432 -494zM252 580v-11h520v11q0 285 -260 285t-260 -285z" />
<glyph unicode="&#xe9;" horiz-adv-x="1011" d="M600 1425h164l-199 -278h-127zM944 530v-94h-692v-8q0 -287 305 -287q186 0 315 56l50 -150q-164 -66 -365 -65q-479 0 -479 520q0 522 434 522q432 0 432 -494zM252 580v-11h520v11q0 285 -260 285t-260 -285z" />
<glyph unicode="&#xea;" horiz-adv-x="1011" d="M246 1147l186 278h141l191 -278h-131l-127 196h-4l-125 -196h-131zM944 530v-94h-692v-8q0 -287 305 -287q186 0 315 56l50 -150q-164 -66 -365 -65q-479 0 -479 520q0 522 434 522q432 0 432 -494zM252 580v-11h520v11q0 285 -260 285t-260 -285z" />
<glyph unicode="&#xeb;" horiz-adv-x="1011" d="M145 1253q0 45 32 77t77 32t75.5 -32t30.5 -77t-30.5 -75.5t-75.5 -30.5t-77 30.5t-32 75.5zM649 1253q0 45 32 77t77 32t75.5 -32t30.5 -77t-30.5 -75.5t-75.5 -30.5t-77 30.5t-32 75.5zM944 530v-94h-692v-8q0 -287 305 -287q186 0 315 56l50 -150q-164 -66 -365 -65 q-479 0 -479 520q0 522 434 522q432 0 432 -494zM252 580v-11h520v11q0 285 -260 285t-260 -285z" />
<glyph unicode="&#xec;" horiz-adv-x="397" d="M115 0v1006h168v-1006h-168zM164 1147l-193 278h158l160 -278h-125z" />
<glyph unicode="&#xed;" horiz-adv-x="397" d="M115 0v1006h168v-1006h-168zM270 1425h164l-196 -278h-129z" />
<glyph unicode="&#xee;" horiz-adv-x="397" d="M115 0v1006h168v-1006h-168zM-59 1147l186 278h141l189 -278h-131l-125 196h-4l-127 -196h-129z" />
<glyph unicode="&#xef;" horiz-adv-x="397" d="M115 0v1006h168v-1006h-168zM-162 1253q0 45 32 77t77 32t76.5 -32t31.5 -77t-31.5 -75.5t-76.5 -30.5t-77 30.5t-32 75.5zM342 1253q0 45 32 77t77 32t76.5 -32t31.5 -77t-31.5 -75.5t-76.5 -30.5t-77 30.5t-32 75.5z" />
<glyph unicode="&#xf0;" horiz-adv-x="1040" d="M276 1018l216 213q-133 70 -320 92l47 154q78 -6 190.5 -41t200.5 -84l144 143l80 -80l-129 -129q125 -102 191.5 -244.5t66.5 -400.5q0 -147 -21.5 -260t-74 -207t-151 -144t-239.5 -50q-184 0 -297.5 108.5t-113.5 325.5q0 199 117.5 301t303.5 102q166 0 293 -59 q-6 156 -56 249t-136 160l-232 -229zM492 664q-104 0 -176 -60.5t-72 -189.5q0 -139 66.5 -205t170.5 -66q172 0 235.5 115t63.5 338q-134 68 -288 68z" />
<glyph unicode="&#xf1;" d="M176 1153q0 281 209 281q53 0 93 -29t60.5 -63.5t50 -63.5t64.5 -29q104 0 105 178h108q0 -281 -207 -280q-53 0 -93 28.5t-59.5 62.5t-50 62.5t-65.5 28.5q-104 0 -104 -176h-111zM115 0v1006h143l23 -142q88 160 313 160q158 0 256 -103.5t98 -326.5v-594h-168v584 q0 154 -58 217t-173 63q-266 0 -266 -329v-535h-168z" />
<glyph unicode="&#xf2;" horiz-adv-x="1024" d="M467 1147l-193 278h158l160 -278h-125zM776 502q0 180 -55 271t-209 91t-209 -91t-55 -271t55 -270.5t209 -90.5t209 90.5t55 270.5zM78 502q0 522 434 522t434 -522q0 -520 -434 -520t-434 520z" />
<glyph unicode="&#xf3;" horiz-adv-x="1024" d="M616 1425h164l-198 -278h-127zM776 502q0 180 -55 271t-209 91t-209 -91t-55 -271t55 -270.5t209 -90.5t209 90.5t55 270.5zM78 502q0 522 434 522t434 -522q0 -520 -434 -520t-434 520z" />
<glyph unicode="&#xf4;" horiz-adv-x="1024" d="M262 1147l187 278h141l190 -278h-131l-127 196h-4l-125 -196h-131zM776 502q0 180 -55 271t-209 91t-209 -91t-55 -271t55 -270.5t209 -90.5t209 90.5t55 270.5zM78 502q0 522 434 522t434 -522q0 -520 -434 -520t-434 520z" />
<glyph unicode="&#xf5;" horiz-adv-x="1024" d="M176 1155q0 281 207 281q53 0 93 -29t60.5 -63.5t50 -63.5t64.5 -29q104 0 105 179h110q0 -281 -209 -281q-53 0 -93 28.5t-59.5 62.5t-50 62.5t-65.5 28.5q-104 0 -104 -176h-109zM776 502q0 180 -55 271t-209 91t-209 -91t-55 -271t55 -270.5t209 -90.5t209 90.5 t55 270.5zM78 502q0 522 434 522t434 -522q0 -520 -434 -520t-434 520z" />
<glyph unicode="&#xf6;" horiz-adv-x="1024" d="M162 1253q0 45 31.5 77t76.5 32t76 -32t31 -77t-31 -75.5t-76 -30.5t-76.5 30.5t-31.5 75.5zM666 1253q0 45 31.5 77t76.5 32t76 -32t31 -77t-31 -75.5t-76 -30.5t-76.5 30.5t-31.5 75.5zM776 502q0 180 -55 271t-209 91t-209 -91t-55 -271t55 -270.5t209 -90.5t209 90.5 t55 270.5zM78 502q0 522 434 522t434 -522q0 -520 -434 -520t-434 520z" />
<glyph unicode="&#xf7;" horiz-adv-x="1282" d="M524 266q0 47 34 81t83 34q47 0 81 -34t34 -81t-34 -81.5t-81 -34.5q-49 0 -83 33.5t-34 82.5zM524 1028q0 47 34 81t83 34q47 0 81 -34t34 -81t-34 -82t-81 -35q-49 0 -83 34t-34 83zM1184 723v-154h-1086v154h1086z" />
<glyph unicode="&#xf8;" horiz-adv-x="1024" d="M78 502q0 522 434 522t434 -522q0 -520 -434 -520t-434 520zM776 502q0 240 -96 313l-246 -668q33 -6 78 -6q154 0 209 90.5t55 270.5zM248 502q0 -240 94 -314l244 668q-45 8 -74 8q-154 0 -209 -91t-55 -271z" />
<glyph unicode="&#xf9;" d="M453 1147l-191 278h158l158 -278h-125zM928 1006v-1006h-144l-22 141q-88 -160 -313 -159q-158 0 -256.5 103t-98.5 327v594h168v-584q0 -154 58.5 -217.5t173.5 -63.5q266 0 266 330v535h168z" />
<glyph unicode="&#xfa;" d="M606 1425h164l-197 -278h-129zM928 1006v-1006h-144l-22 141q-88 -160 -313 -159q-158 0 -256.5 103t-98.5 327v594h168v-584q0 -154 58.5 -217.5t173.5 -63.5q266 0 266 330v535h168z" />
<glyph unicode="&#xfb;" d="M264 1147l187 278h141l188 -278h-131l-125 196h-4l-127 -196h-129zM928 1006v-1006h-144l-22 141q-88 -160 -313 -159q-158 0 -256.5 103t-98.5 327v594h168v-584q0 -154 58.5 -217.5t173.5 -63.5q266 0 266 330v535h168z" />
<glyph unicode="&#xfc;" d="M152 1253q0 45 31.5 77t76.5 32q47 0 78 -32t31 -77t-32 -75.5t-77 -30.5t-76.5 30.5t-31.5 75.5zM655 1253q0 45 32 77t77 32q47 0 77.5 -32t30.5 -77t-31.5 -75.5t-76.5 -30.5t-77 30.5t-32 75.5zM928 1006v-1006h-144l-22 141q-88 -160 -313 -159q-158 0 -256.5 103 t-98.5 327v594h168v-584q0 -154 58.5 -217.5t173.5 -63.5q266 0 266 330v535h168z" />
<glyph unicode="&#xfd;" d="M606 1425h164l-197 -278h-129zM928 1006v-1078q0 -223 -113 -330.5t-313 -107.5q-211 0 -373 86l51 148q131 -74 322 -74q127 0 192.5 63.5t65.5 214.5v211q-86 -158 -311 -157q-158 0 -256.5 103t-98.5 327v594h168v-584q0 -154 58.5 -217.5t173.5 -63.5q125 0 195.5 75 t70.5 259v531h168z" />
<glyph unicode="&#xfe;" horiz-adv-x="1058" d="M115 -512v1946h168v-570q74 160 295 160q205 0 304 -138t99 -380q0 -111 -20.5 -201t-65.5 -164.5t-126 -116.5t-191 -42q-223 0 -295 155v-649h-168zM547 864q-150 0 -207 -91t-57 -273q0 -174 54 -266.5t210 -92.5q84 0 139 29t81 85t35 113.5t9 137.5q0 186 -58.5 272 t-205.5 86z" />
<glyph unicode="&#xff;" d="M154 1253q0 45 31.5 77t76.5 32t76 -32t31 -77t-31 -75.5t-76 -30.5t-76.5 30.5t-31.5 75.5zM657 1253q0 45 32 77t77 32t75.5 -32t30.5 -77t-30.5 -75.5t-75.5 -30.5t-77 30.5t-32 75.5zM928 1006v-1078q0 -223 -113 -330.5t-313 -107.5q-211 0 -373 86l51 148 q131 -74 322 -74q127 0 192.5 63.5t65.5 214.5v211q-86 -158 -311 -157q-158 0 -256.5 103t-98.5 327v594h168v-584q0 -154 58.5 -217.5t173.5 -63.5q125 0 195.5 75t70.5 259v531h168z" />
<glyph unicode="&#x152;" horiz-adv-x="1853" d="M76 600v129q0 317 140 469t380 152q223 0 342 -140v121h877v-164h-699v-385h617v-164h-617v-454h699v-164h-877v117q-117 -137 -342 -137q-240 0 -380 150.5t-140 469.5zM938 600v154q-8 432 -342 432q-342 0 -342 -457v-129q0 -457 342 -457t342 457z" />
<glyph unicode="&#x153;" horiz-adv-x="1710" d="M1642 530v-94h-692v-8q0 -287 305 -287q186 0 316 56l49 -150q-164 -66 -365 -65q-276 0 -391 165q-104 -166 -352 -165q-434 0 -434 520q0 522 434 522q238 0 348 -162q106 162 350 162q432 0 432 -494zM776 502q0 180 -55 271t-209 91t-209 -91t-55 -271t55 -270.5 t209 -90.5t209 90.5t55 270.5zM950 580v-11h520v11q0 285 -260 285t-260 -285z" />
<glyph unicode="&#x178;" horiz-adv-x="1196" d="M1196 1331l-508 -815v-516h-178v512l-510 819h199l399 -651l397 651h201zM238 1642.5q0 45.5 31.5 77t76.5 31.5q47 0 78 -31.5t31 -77t-32 -76t-77 -30.5t-76.5 30.5t-31.5 76zM741 1642.5q0 45.5 32 77t77 31.5q47 0 77.5 -31.5t30.5 -77t-31.5 -76t-76.5 -30.5 t-77 30.5t-32 76z" />
<glyph unicode="&#x2c6;" horiz-adv-x="864" d="M174 1536l186 279h142l188 -279h-131l-125 197h-4l-127 -197h-129z" />
<glyph unicode="&#x2dc;" horiz-adv-x="1021" d="M166 1542q0 281 207 281q53 0 93 -29t60.5 -63.5t50 -63.5t64.5 -29q104 0 104 179h111q0 -281 -209 -281q-53 0 -93 28.5t-59.5 62.5t-50 62.5t-65.5 28.5q-104 0 -105 -176h-108z" />
<glyph unicode="&#x2000;" horiz-adv-x="929" />
<glyph unicode="&#x2001;" horiz-adv-x="1858" />
<glyph unicode="&#x2002;" horiz-adv-x="929" />
<glyph unicode="&#x2003;" horiz-adv-x="1858" />
<glyph unicode="&#x2004;" horiz-adv-x="619" />
<glyph unicode="&#x2005;" horiz-adv-x="464" />
<glyph unicode="&#x2006;" horiz-adv-x="309" />
<glyph unicode="&#x2007;" horiz-adv-x="309" />
<glyph unicode="&#x2008;" horiz-adv-x="232" />
<glyph unicode="&#x2009;" horiz-adv-x="371" />
<glyph unicode="&#x200a;" horiz-adv-x="103" />
<glyph unicode="&#x2010;" horiz-adv-x="706" d="M655 588v-154h-606v154h606z" />
<glyph unicode="&#x2011;" horiz-adv-x="706" d="M655 588v-154h-606v154h606z" />
<glyph unicode="&#x2012;" horiz-adv-x="706" d="M655 588v-154h-606v154h606z" />
<glyph unicode="&#x2013;" horiz-adv-x="1062" d="M96 549v153h871v-153h-871z" />
<glyph unicode="&#x2014;" horiz-adv-x="1423" d="M96 520v127h1231v-127h-1231z" />
<glyph unicode="&#x2018;" horiz-adv-x="460" d="M352 1089.5q0 -47.5 -33.5 -81t-82.5 -33.5q-68 0 -96.5 53t-24.5 129q4 92 49 196.5t139 159.5l59 -55q-113 -102 -122 -254q49 -2 80.5 -34.5t31.5 -80z" />
<glyph unicode="&#x2019;" horiz-adv-x="460" d="M109 1399q0 47 33.5 80.5t82.5 33.5q68 0 96.5 -53t24.5 -129q-4 -92 -49 -196.5t-139 -159.5l-60 55q113 102 123 254q-49 2 -80.5 35t-31.5 80z" />
<glyph unicode="&#x201a;" horiz-adv-x="442" d="M90 98q0 47 34 81t83 34q68 0 96.5 -53.5t24.5 -128.5q-4 -92 -49.5 -196.5t-139.5 -160.5l-59 56q113 102 123 254q-49 2 -81 34.5t-32 79.5z" />
<glyph unicode="&#x201c;" horiz-adv-x="800" d="M692 1089.5q0 -47.5 -33.5 -81t-83.5 -33.5q-68 0 -96 53t-24 129q4 92 49 196.5t139 159.5l59 -55q-113 -102 -122 -254q49 -2 80.5 -34.5t31.5 -80zM352 1089.5q0 -47.5 -33.5 -81t-82.5 -33.5q-68 0 -96.5 53t-24.5 129q4 92 49 196.5t139 159.5l59 -55 q-113 -102 -122 -254q49 -2 80.5 -34.5t31.5 -80z" />
<glyph unicode="&#x201d;" horiz-adv-x="800" d="M109 1399q0 47 33.5 80.5t82.5 33.5q68 0 96.5 -53t24.5 -129q-4 -92 -49 -196.5t-139 -159.5l-60 55q113 102 123 254q-49 2 -80.5 35t-31.5 80zM449 1399q0 47 33.5 80.5t82.5 33.5q68 0 96.5 -53t24.5 -129q-4 -92 -49 -196.5t-139 -159.5l-60 55q113 102 123 254 q-49 2 -80.5 35t-31.5 80z" />
<glyph unicode="&#x201e;" horiz-adv-x="782" d="M430 98q0 47 34 81t83 34q68 0 96.5 -53.5t24.5 -128.5q-4 -92 -49.5 -196.5t-139.5 -160.5l-59 56q113 102 123 254q-49 2 -81 34.5t-32 79.5zM90 98q0 47 34 81t83 34q68 0 96.5 -53.5t24.5 -128.5q-4 -92 -49.5 -196.5t-139.5 -160.5l-59 56q113 102 123 254 q-49 2 -81 34.5t-32 79.5z" />
<glyph unicode="&#x2022;" horiz-adv-x="610" d="M524 651q0 -82 -60.5 -143.5t-158.5 -61.5t-158.5 61.5t-60.5 143.5q0 84 61.5 144.5t157.5 60.5t157.5 -61.5t61.5 -143.5z" />
<glyph unicode="&#x2026;" horiz-adv-x="1658" d="M1317 98q0 47 33.5 81t81.5 34q49 0 82.5 -34t33.5 -81q0 -49 -33.5 -82.5t-82.5 -33.5q-47 0 -81 33.5t-34 82.5zM713 98q0 47 33.5 81t82.5 34q47 0 81 -34t34 -81q0 -49 -33.5 -82.5t-81.5 -33.5q-49 0 -82.5 33.5t-33.5 82.5zM111 98q0 47 33.5 81t80.5 34 q49 0 83 -34t34 -81q0 -49 -34 -82.5t-83 -33.5q-47 0 -80.5 33.5t-33.5 82.5z" />
<glyph unicode="&#x202f;" horiz-adv-x="371" />
<glyph unicode="&#x2039;" horiz-adv-x="696" d="M618 268v-159l-542 401v74l542 399v-162l-405 -276z" />
<glyph unicode="&#x203a;" horiz-adv-x="696" d="M76 109v159l405 277l-405 276v162l542 -399v-74z" />
<glyph unicode="&#x2044;" horiz-adv-x="624" d="M563 1489h144l-650 -1675h-139z" />
<glyph unicode="&#x205f;" horiz-adv-x="464" />
<glyph unicode="&#x20ac;" horiz-adv-x="1273" d="M440 725v-121v-43h574v-125h-551q59 -293 371 -293q102 0 199 34t143 73l61 -154q-182 -117 -403 -116q-223 0 -371 111.5t-187 344.5h-235v125h221v43v121v29h-221v125h235q35 240 182.5 355.5t375.5 115.5q209 0 403 -115l-61 -154q-164 104 -342 105q-317 0 -375 -307 h555v-125h-574v-29z" />
<glyph unicode="&#x2122;" horiz-adv-x="1853" d="M1743 1331v-817h-133v692l-230 -692h-114l-238 692v-692h-133v817h221l209 -629l203 629h215zM721 1331v-121h-258v-696h-133v696h-256v121h647z" />
<glyph unicode="&#xe000;" horiz-adv-x="1004" d="M0 1005h1005v-1005h-1005v1005z" />
<glyph unicode="&#xfb01;" horiz-adv-x="1062" d="M113 0v1083q0 369 350 369q143 0 258 -59l-51 -152q-98 51 -207 51q-180 0 -180 -207v-79h376v-160h-376v-846h-170zM776 0v1006h170v-1006h-170zM754 1335q0 45 30.5 77t77.5 32q45 0 76 -32t31 -77t-31 -75.5t-76 -30.5t-76.5 30.5t-31.5 75.5z" />
<glyph unicode="&#xfb02;" horiz-adv-x="1163" d="M113 0v1083q0 369 350 369q143 0 258 -59l-51 -152q-98 51 -207 51q-180 0 -180 -207v-79h376v-160h-376v-846h-170zM774 319v1115h168v-1115q0 -174 100 -174q43 0 80 19l49 -150q-72 -29 -149 -28q-248 -1 -248 333z" />
<glyph unicode="&#xfb03;" horiz-adv-x="1721" d="M1437 0v1006h170v-1006h-170zM1414 1335q0 45 32 77t77 32t75.5 -32t30.5 -77t-30.5 -75.5t-75.5 -30.5t-77 30.5t-32 75.5zM776 0v1083q0 369 350 369q143 0 258 -59l-51 -152q-98 51 -207 51q-180 0 -180 -207v-79h377v-160h-377v-846h-170zM115 0v1083q0 369 350 369 q143 0 258 -59l-51 -152q-98 51 -207 51q-180 0 -180 -207v-79h377v-160h-377v-846h-170z" />
<glyph unicode="&#xfb04;" horiz-adv-x="1823" d="M1435 319v1115h170v-1115q0 -174 98 -174q41 0 82 19l49 -150q-76 -29 -152 -28q-247 -1 -247 333zM776 0v1083q0 369 350 369q143 0 258 -59l-51 -152q-98 51 -207 51q-180 0 -180 -207v-79h377v-160h-377v-846h-170zM115 0v1083q0 369 350 369q143 0 258 -59l-51 -152 q-98 51 -207 51q-180 0 -180 -207v-79h377v-160h-377v-846h-170z" />
</font>
</defs>
</svg>
